G04 #@! TF.GenerationSoftware,KiCad,Pcbnew,(5.0.1-3-g963ef8bb5)*
G04 #@! TF.CreationDate,2020-08-17T13:32:48-04:00*
G04 #@! TF.ProjectId,Wave_Pool CV Input,576176655F506F6F6C20435620496E70,rev?*
G04 #@! TF.SameCoordinates,Original*
G04 #@! TF.FileFunction,Soldermask,Top*
G04 #@! TF.FilePolarity,Negative*
%FSLAX46Y46*%
G04 Gerber Fmt 4.6, Leading zero omitted, Abs format (unit mm)*
G04 Created by KiCad (PCBNEW (5.0.1-3-g963ef8bb5)) date Monday, August 17, 2020 at 01:32:48 PM*
%MOMM*%
%LPD*%
G01*
G04 APERTURE LIST*
%ADD10C,0.100000*%
G04 APERTURE END LIST*
D10*
G36*
X159819294Y-141748633D02*
X159991694Y-141800931D01*
X159991696Y-141800932D01*
X160150583Y-141885859D01*
X160150585Y-141885860D01*
X160150584Y-141885860D01*
X160289849Y-142000151D01*
X160404140Y-142139416D01*
X160489069Y-142298306D01*
X160541367Y-142470706D01*
X160559025Y-142650000D01*
X160541367Y-142829294D01*
X160489069Y-143001694D01*
X160489068Y-143001696D01*
X160404141Y-143160583D01*
X160289849Y-143299849D01*
X160150583Y-143414141D01*
X159991696Y-143499068D01*
X159991694Y-143499069D01*
X159819294Y-143551367D01*
X159684931Y-143564600D01*
X159595069Y-143564600D01*
X159460706Y-143551367D01*
X159288306Y-143499069D01*
X159288304Y-143499068D01*
X159129417Y-143414141D01*
X158990151Y-143299849D01*
X158875859Y-143160583D01*
X158790932Y-143001696D01*
X158790931Y-143001694D01*
X158738633Y-142829294D01*
X158720975Y-142650000D01*
X158738633Y-142470706D01*
X158790931Y-142298306D01*
X158875860Y-142139416D01*
X158990151Y-142000151D01*
X159129416Y-141885860D01*
X159129415Y-141885860D01*
X159129417Y-141885859D01*
X159288304Y-141800932D01*
X159288306Y-141800931D01*
X159460706Y-141748633D01*
X159595069Y-141735400D01*
X159684931Y-141735400D01*
X159819294Y-141748633D01*
X159819294Y-141748633D01*
G37*
G36*
X157279294Y-141748633D02*
X157451694Y-141800931D01*
X157451696Y-141800932D01*
X157610583Y-141885859D01*
X157610585Y-141885860D01*
X157610584Y-141885860D01*
X157749849Y-142000151D01*
X157864140Y-142139416D01*
X157949069Y-142298306D01*
X158001367Y-142470706D01*
X158019025Y-142650000D01*
X158001367Y-142829294D01*
X157949069Y-143001694D01*
X157949068Y-143001696D01*
X157864141Y-143160583D01*
X157749849Y-143299849D01*
X157610583Y-143414141D01*
X157451696Y-143499068D01*
X157451694Y-143499069D01*
X157279294Y-143551367D01*
X157144931Y-143564600D01*
X157055069Y-143564600D01*
X156920706Y-143551367D01*
X156748306Y-143499069D01*
X156748304Y-143499068D01*
X156589417Y-143414141D01*
X156450151Y-143299849D01*
X156335859Y-143160583D01*
X156250932Y-143001696D01*
X156250931Y-143001694D01*
X156198633Y-142829294D01*
X156180975Y-142650000D01*
X156198633Y-142470706D01*
X156250931Y-142298306D01*
X156335860Y-142139416D01*
X156450151Y-142000151D01*
X156589416Y-141885860D01*
X156589415Y-141885860D01*
X156589417Y-141885859D01*
X156748304Y-141800932D01*
X156748306Y-141800931D01*
X156920706Y-141748633D01*
X157055069Y-141735400D01*
X157144931Y-141735400D01*
X157279294Y-141748633D01*
X157279294Y-141748633D01*
G37*
G36*
X154739294Y-141748633D02*
X154911694Y-141800931D01*
X154911696Y-141800932D01*
X155070583Y-141885859D01*
X155070585Y-141885860D01*
X155070584Y-141885860D01*
X155209849Y-142000151D01*
X155324140Y-142139416D01*
X155409069Y-142298306D01*
X155461367Y-142470706D01*
X155479025Y-142650000D01*
X155461367Y-142829294D01*
X155409069Y-143001694D01*
X155409068Y-143001696D01*
X155324141Y-143160583D01*
X155209849Y-143299849D01*
X155070583Y-143414141D01*
X154911696Y-143499068D01*
X154911694Y-143499069D01*
X154739294Y-143551367D01*
X154604931Y-143564600D01*
X154515069Y-143564600D01*
X154380706Y-143551367D01*
X154208306Y-143499069D01*
X154208304Y-143499068D01*
X154049417Y-143414141D01*
X153910151Y-143299849D01*
X153795859Y-143160583D01*
X153710932Y-143001696D01*
X153710931Y-143001694D01*
X153658633Y-142829294D01*
X153640975Y-142650000D01*
X153658633Y-142470706D01*
X153710931Y-142298306D01*
X153795860Y-142139416D01*
X153910151Y-142000151D01*
X154049416Y-141885860D01*
X154049415Y-141885860D01*
X154049417Y-141885859D01*
X154208304Y-141800932D01*
X154208306Y-141800931D01*
X154380706Y-141748633D01*
X154515069Y-141735400D01*
X154604931Y-141735400D01*
X154739294Y-141748633D01*
X154739294Y-141748633D01*
G37*
G36*
X152199294Y-141748633D02*
X152371694Y-141800931D01*
X152371696Y-141800932D01*
X152530583Y-141885859D01*
X152530585Y-141885860D01*
X152530584Y-141885860D01*
X152669849Y-142000151D01*
X152784140Y-142139416D01*
X152869069Y-142298306D01*
X152921367Y-142470706D01*
X152939025Y-142650000D01*
X152921367Y-142829294D01*
X152869069Y-143001694D01*
X152869068Y-143001696D01*
X152784141Y-143160583D01*
X152669849Y-143299849D01*
X152530583Y-143414141D01*
X152371696Y-143499068D01*
X152371694Y-143499069D01*
X152199294Y-143551367D01*
X152064931Y-143564600D01*
X151975069Y-143564600D01*
X151840706Y-143551367D01*
X151668306Y-143499069D01*
X151668304Y-143499068D01*
X151509417Y-143414141D01*
X151370151Y-143299849D01*
X151255859Y-143160583D01*
X151170932Y-143001696D01*
X151170931Y-143001694D01*
X151118633Y-142829294D01*
X151100975Y-142650000D01*
X151118633Y-142470706D01*
X151170931Y-142298306D01*
X151255860Y-142139416D01*
X151370151Y-142000151D01*
X151509416Y-141885860D01*
X151509415Y-141885860D01*
X151509417Y-141885859D01*
X151668304Y-141800932D01*
X151668306Y-141800931D01*
X151840706Y-141748633D01*
X151975069Y-141735400D01*
X152064931Y-141735400D01*
X152199294Y-141748633D01*
X152199294Y-141748633D01*
G37*
G36*
X149659294Y-141748633D02*
X149831694Y-141800931D01*
X149831696Y-141800932D01*
X149990583Y-141885859D01*
X149990585Y-141885860D01*
X149990584Y-141885860D01*
X150129849Y-142000151D01*
X150244140Y-142139416D01*
X150329069Y-142298306D01*
X150381367Y-142470706D01*
X150399025Y-142650000D01*
X150381367Y-142829294D01*
X150329069Y-143001694D01*
X150329068Y-143001696D01*
X150244141Y-143160583D01*
X150129849Y-143299849D01*
X149990583Y-143414141D01*
X149831696Y-143499068D01*
X149831694Y-143499069D01*
X149659294Y-143551367D01*
X149524931Y-143564600D01*
X149435069Y-143564600D01*
X149300706Y-143551367D01*
X149128306Y-143499069D01*
X149128304Y-143499068D01*
X148969417Y-143414141D01*
X148830151Y-143299849D01*
X148715859Y-143160583D01*
X148630932Y-143001696D01*
X148630931Y-143001694D01*
X148578633Y-142829294D01*
X148560975Y-142650000D01*
X148578633Y-142470706D01*
X148630931Y-142298306D01*
X148715860Y-142139416D01*
X148830151Y-142000151D01*
X148969416Y-141885860D01*
X148969415Y-141885860D01*
X148969417Y-141885859D01*
X149128304Y-141800932D01*
X149128306Y-141800931D01*
X149300706Y-141748633D01*
X149435069Y-141735400D01*
X149524931Y-141735400D01*
X149659294Y-141748633D01*
X149659294Y-141748633D01*
G37*
G36*
X147119294Y-141748633D02*
X147291694Y-141800931D01*
X147291696Y-141800932D01*
X147450583Y-141885859D01*
X147450585Y-141885860D01*
X147450584Y-141885860D01*
X147589849Y-142000151D01*
X147704140Y-142139416D01*
X147789069Y-142298306D01*
X147841367Y-142470706D01*
X147859025Y-142650000D01*
X147841367Y-142829294D01*
X147789069Y-143001694D01*
X147789068Y-143001696D01*
X147704141Y-143160583D01*
X147589849Y-143299849D01*
X147450583Y-143414141D01*
X147291696Y-143499068D01*
X147291694Y-143499069D01*
X147119294Y-143551367D01*
X146984931Y-143564600D01*
X146895069Y-143564600D01*
X146760706Y-143551367D01*
X146588306Y-143499069D01*
X146588304Y-143499068D01*
X146429417Y-143414141D01*
X146290151Y-143299849D01*
X146175859Y-143160583D01*
X146090932Y-143001696D01*
X146090931Y-143001694D01*
X146038633Y-142829294D01*
X146020975Y-142650000D01*
X146038633Y-142470706D01*
X146090931Y-142298306D01*
X146175860Y-142139416D01*
X146290151Y-142000151D01*
X146429416Y-141885860D01*
X146429415Y-141885860D01*
X146429417Y-141885859D01*
X146588304Y-141800932D01*
X146588306Y-141800931D01*
X146760706Y-141748633D01*
X146895069Y-141735400D01*
X146984931Y-141735400D01*
X147119294Y-141748633D01*
X147119294Y-141748633D01*
G37*
G36*
X144579294Y-141748633D02*
X144751694Y-141800931D01*
X144751696Y-141800932D01*
X144910583Y-141885859D01*
X144910585Y-141885860D01*
X144910584Y-141885860D01*
X145049849Y-142000151D01*
X145164140Y-142139416D01*
X145249069Y-142298306D01*
X145301367Y-142470706D01*
X145319025Y-142650000D01*
X145301367Y-142829294D01*
X145249069Y-143001694D01*
X145249068Y-143001696D01*
X145164141Y-143160583D01*
X145049849Y-143299849D01*
X144910583Y-143414141D01*
X144751696Y-143499068D01*
X144751694Y-143499069D01*
X144579294Y-143551367D01*
X144444931Y-143564600D01*
X144355069Y-143564600D01*
X144220706Y-143551367D01*
X144048306Y-143499069D01*
X144048304Y-143499068D01*
X143889417Y-143414141D01*
X143750151Y-143299849D01*
X143635859Y-143160583D01*
X143550932Y-143001696D01*
X143550931Y-143001694D01*
X143498633Y-142829294D01*
X143480975Y-142650000D01*
X143498633Y-142470706D01*
X143550931Y-142298306D01*
X143635860Y-142139416D01*
X143750151Y-142000151D01*
X143889416Y-141885860D01*
X143889415Y-141885860D01*
X143889417Y-141885859D01*
X144048304Y-141800932D01*
X144048306Y-141800931D01*
X144220706Y-141748633D01*
X144355069Y-141735400D01*
X144444931Y-141735400D01*
X144579294Y-141748633D01*
X144579294Y-141748633D01*
G37*
G36*
X142039294Y-141748633D02*
X142211694Y-141800931D01*
X142211696Y-141800932D01*
X142370583Y-141885859D01*
X142370585Y-141885860D01*
X142370584Y-141885860D01*
X142509849Y-142000151D01*
X142624140Y-142139416D01*
X142709069Y-142298306D01*
X142761367Y-142470706D01*
X142779025Y-142650000D01*
X142761367Y-142829294D01*
X142709069Y-143001694D01*
X142709068Y-143001696D01*
X142624141Y-143160583D01*
X142509849Y-143299849D01*
X142370583Y-143414141D01*
X142211696Y-143499068D01*
X142211694Y-143499069D01*
X142039294Y-143551367D01*
X141904931Y-143564600D01*
X141815069Y-143564600D01*
X141680706Y-143551367D01*
X141508306Y-143499069D01*
X141508304Y-143499068D01*
X141349417Y-143414141D01*
X141210151Y-143299849D01*
X141095859Y-143160583D01*
X141010932Y-143001696D01*
X141010931Y-143001694D01*
X140958633Y-142829294D01*
X140940975Y-142650000D01*
X140958633Y-142470706D01*
X141010931Y-142298306D01*
X141095860Y-142139416D01*
X141210151Y-142000151D01*
X141349416Y-141885860D01*
X141349415Y-141885860D01*
X141349417Y-141885859D01*
X141508304Y-141800932D01*
X141508306Y-141800931D01*
X141680706Y-141748633D01*
X141815069Y-141735400D01*
X141904931Y-141735400D01*
X142039294Y-141748633D01*
X142039294Y-141748633D01*
G37*
G36*
X139499294Y-141748633D02*
X139671694Y-141800931D01*
X139671696Y-141800932D01*
X139830583Y-141885859D01*
X139830585Y-141885860D01*
X139830584Y-141885860D01*
X139969849Y-142000151D01*
X140084140Y-142139416D01*
X140169069Y-142298306D01*
X140221367Y-142470706D01*
X140239025Y-142650000D01*
X140221367Y-142829294D01*
X140169069Y-143001694D01*
X140169068Y-143001696D01*
X140084141Y-143160583D01*
X139969849Y-143299849D01*
X139830583Y-143414141D01*
X139671696Y-143499068D01*
X139671694Y-143499069D01*
X139499294Y-143551367D01*
X139364931Y-143564600D01*
X139275069Y-143564600D01*
X139140706Y-143551367D01*
X138968306Y-143499069D01*
X138968304Y-143499068D01*
X138809417Y-143414141D01*
X138670151Y-143299849D01*
X138555859Y-143160583D01*
X138470932Y-143001696D01*
X138470931Y-143001694D01*
X138418633Y-142829294D01*
X138400975Y-142650000D01*
X138418633Y-142470706D01*
X138470931Y-142298306D01*
X138555860Y-142139416D01*
X138670151Y-142000151D01*
X138809416Y-141885860D01*
X138809415Y-141885860D01*
X138809417Y-141885859D01*
X138968304Y-141800932D01*
X138968306Y-141800931D01*
X139140706Y-141748633D01*
X139275069Y-141735400D01*
X139364931Y-141735400D01*
X139499294Y-141748633D01*
X139499294Y-141748633D01*
G37*
G36*
X136959294Y-141748633D02*
X137131694Y-141800931D01*
X137131696Y-141800932D01*
X137290583Y-141885859D01*
X137290585Y-141885860D01*
X137290584Y-141885860D01*
X137429849Y-142000151D01*
X137544140Y-142139416D01*
X137629069Y-142298306D01*
X137681367Y-142470706D01*
X137699025Y-142650000D01*
X137681367Y-142829294D01*
X137629069Y-143001694D01*
X137629068Y-143001696D01*
X137544141Y-143160583D01*
X137429849Y-143299849D01*
X137290583Y-143414141D01*
X137131696Y-143499068D01*
X137131694Y-143499069D01*
X136959294Y-143551367D01*
X136824931Y-143564600D01*
X136735069Y-143564600D01*
X136600706Y-143551367D01*
X136428306Y-143499069D01*
X136428304Y-143499068D01*
X136269417Y-143414141D01*
X136130151Y-143299849D01*
X136015859Y-143160583D01*
X135930932Y-143001696D01*
X135930931Y-143001694D01*
X135878633Y-142829294D01*
X135860975Y-142650000D01*
X135878633Y-142470706D01*
X135930931Y-142298306D01*
X136015860Y-142139416D01*
X136130151Y-142000151D01*
X136269416Y-141885860D01*
X136269415Y-141885860D01*
X136269417Y-141885859D01*
X136428304Y-141800932D01*
X136428306Y-141800931D01*
X136600706Y-141748633D01*
X136735069Y-141735400D01*
X136824931Y-141735400D01*
X136959294Y-141748633D01*
X136959294Y-141748633D01*
G37*
G36*
X134419294Y-141748633D02*
X134591694Y-141800931D01*
X134591696Y-141800932D01*
X134750583Y-141885859D01*
X134750585Y-141885860D01*
X134750584Y-141885860D01*
X134889849Y-142000151D01*
X135004140Y-142139416D01*
X135089069Y-142298306D01*
X135141367Y-142470706D01*
X135159025Y-142650000D01*
X135141367Y-142829294D01*
X135089069Y-143001694D01*
X135089068Y-143001696D01*
X135004141Y-143160583D01*
X134889849Y-143299849D01*
X134750583Y-143414141D01*
X134591696Y-143499068D01*
X134591694Y-143499069D01*
X134419294Y-143551367D01*
X134284931Y-143564600D01*
X134195069Y-143564600D01*
X134060706Y-143551367D01*
X133888306Y-143499069D01*
X133888304Y-143499068D01*
X133729417Y-143414141D01*
X133590151Y-143299849D01*
X133475859Y-143160583D01*
X133390932Y-143001696D01*
X133390931Y-143001694D01*
X133338633Y-142829294D01*
X133320975Y-142650000D01*
X133338633Y-142470706D01*
X133390931Y-142298306D01*
X133475860Y-142139416D01*
X133590151Y-142000151D01*
X133729416Y-141885860D01*
X133729415Y-141885860D01*
X133729417Y-141885859D01*
X133888304Y-141800932D01*
X133888306Y-141800931D01*
X134060706Y-141748633D01*
X134195069Y-141735400D01*
X134284931Y-141735400D01*
X134419294Y-141748633D01*
X134419294Y-141748633D01*
G37*
G36*
X131879294Y-141748633D02*
X132051694Y-141800931D01*
X132051696Y-141800932D01*
X132210583Y-141885859D01*
X132210585Y-141885860D01*
X132210584Y-141885860D01*
X132349849Y-142000151D01*
X132464140Y-142139416D01*
X132549069Y-142298306D01*
X132601367Y-142470706D01*
X132619025Y-142650000D01*
X132601367Y-142829294D01*
X132549069Y-143001694D01*
X132549068Y-143001696D01*
X132464141Y-143160583D01*
X132349849Y-143299849D01*
X132210583Y-143414141D01*
X132051696Y-143499068D01*
X132051694Y-143499069D01*
X131879294Y-143551367D01*
X131744931Y-143564600D01*
X131655069Y-143564600D01*
X131520706Y-143551367D01*
X131348306Y-143499069D01*
X131348304Y-143499068D01*
X131189417Y-143414141D01*
X131050151Y-143299849D01*
X130935859Y-143160583D01*
X130850932Y-143001696D01*
X130850931Y-143001694D01*
X130798633Y-142829294D01*
X130780975Y-142650000D01*
X130798633Y-142470706D01*
X130850931Y-142298306D01*
X130935860Y-142139416D01*
X131050151Y-142000151D01*
X131189416Y-141885860D01*
X131189415Y-141885860D01*
X131189417Y-141885859D01*
X131348304Y-141800932D01*
X131348306Y-141800931D01*
X131520706Y-141748633D01*
X131655069Y-141735400D01*
X131744931Y-141735400D01*
X131879294Y-141748633D01*
X131879294Y-141748633D01*
G37*
G36*
X129339294Y-141748633D02*
X129511694Y-141800931D01*
X129511696Y-141800932D01*
X129670583Y-141885859D01*
X129670585Y-141885860D01*
X129670584Y-141885860D01*
X129809849Y-142000151D01*
X129924140Y-142139416D01*
X130009069Y-142298306D01*
X130061367Y-142470706D01*
X130079025Y-142650000D01*
X130061367Y-142829294D01*
X130009069Y-143001694D01*
X130009068Y-143001696D01*
X129924141Y-143160583D01*
X129809849Y-143299849D01*
X129670583Y-143414141D01*
X129511696Y-143499068D01*
X129511694Y-143499069D01*
X129339294Y-143551367D01*
X129204931Y-143564600D01*
X129115069Y-143564600D01*
X128980706Y-143551367D01*
X128808306Y-143499069D01*
X128808304Y-143499068D01*
X128649417Y-143414141D01*
X128510151Y-143299849D01*
X128395859Y-143160583D01*
X128310932Y-143001696D01*
X128310931Y-143001694D01*
X128258633Y-142829294D01*
X128240975Y-142650000D01*
X128258633Y-142470706D01*
X128310931Y-142298306D01*
X128395860Y-142139416D01*
X128510151Y-142000151D01*
X128649416Y-141885860D01*
X128649415Y-141885860D01*
X128649417Y-141885859D01*
X128808304Y-141800932D01*
X128808306Y-141800931D01*
X128980706Y-141748633D01*
X129115069Y-141735400D01*
X129204931Y-141735400D01*
X129339294Y-141748633D01*
X129339294Y-141748633D01*
G37*
G36*
X126799294Y-141748633D02*
X126971694Y-141800931D01*
X126971696Y-141800932D01*
X127130583Y-141885859D01*
X127130585Y-141885860D01*
X127130584Y-141885860D01*
X127269849Y-142000151D01*
X127384140Y-142139416D01*
X127469069Y-142298306D01*
X127521367Y-142470706D01*
X127539025Y-142650000D01*
X127521367Y-142829294D01*
X127469069Y-143001694D01*
X127469068Y-143001696D01*
X127384141Y-143160583D01*
X127269849Y-143299849D01*
X127130583Y-143414141D01*
X126971696Y-143499068D01*
X126971694Y-143499069D01*
X126799294Y-143551367D01*
X126664931Y-143564600D01*
X126575069Y-143564600D01*
X126440706Y-143551367D01*
X126268306Y-143499069D01*
X126268304Y-143499068D01*
X126109417Y-143414141D01*
X125970151Y-143299849D01*
X125855859Y-143160583D01*
X125770932Y-143001696D01*
X125770931Y-143001694D01*
X125718633Y-142829294D01*
X125700975Y-142650000D01*
X125718633Y-142470706D01*
X125770931Y-142298306D01*
X125855860Y-142139416D01*
X125970151Y-142000151D01*
X126109416Y-141885860D01*
X126109415Y-141885860D01*
X126109417Y-141885859D01*
X126268304Y-141800932D01*
X126268306Y-141800931D01*
X126440706Y-141748633D01*
X126575069Y-141735400D01*
X126664931Y-141735400D01*
X126799294Y-141748633D01*
X126799294Y-141748633D01*
G37*
G36*
X124259294Y-141748633D02*
X124431694Y-141800931D01*
X124431696Y-141800932D01*
X124590583Y-141885859D01*
X124590585Y-141885860D01*
X124590584Y-141885860D01*
X124729849Y-142000151D01*
X124844140Y-142139416D01*
X124929069Y-142298306D01*
X124981367Y-142470706D01*
X124999025Y-142650000D01*
X124981367Y-142829294D01*
X124929069Y-143001694D01*
X124929068Y-143001696D01*
X124844141Y-143160583D01*
X124729849Y-143299849D01*
X124590583Y-143414141D01*
X124431696Y-143499068D01*
X124431694Y-143499069D01*
X124259294Y-143551367D01*
X124124931Y-143564600D01*
X124035069Y-143564600D01*
X123900706Y-143551367D01*
X123728306Y-143499069D01*
X123728304Y-143499068D01*
X123569417Y-143414141D01*
X123430151Y-143299849D01*
X123315859Y-143160583D01*
X123230932Y-143001696D01*
X123230931Y-143001694D01*
X123178633Y-142829294D01*
X123160975Y-142650000D01*
X123178633Y-142470706D01*
X123230931Y-142298306D01*
X123315860Y-142139416D01*
X123430151Y-142000151D01*
X123569416Y-141885860D01*
X123569415Y-141885860D01*
X123569417Y-141885859D01*
X123728304Y-141800932D01*
X123728306Y-141800931D01*
X123900706Y-141748633D01*
X124035069Y-141735400D01*
X124124931Y-141735400D01*
X124259294Y-141748633D01*
X124259294Y-141748633D01*
G37*
G36*
X121719294Y-141748633D02*
X121891694Y-141800931D01*
X121891696Y-141800932D01*
X122050583Y-141885859D01*
X122050585Y-141885860D01*
X122050584Y-141885860D01*
X122189849Y-142000151D01*
X122304140Y-142139416D01*
X122389069Y-142298306D01*
X122441367Y-142470706D01*
X122459025Y-142650000D01*
X122441367Y-142829294D01*
X122389069Y-143001694D01*
X122389068Y-143001696D01*
X122304141Y-143160583D01*
X122189849Y-143299849D01*
X122050583Y-143414141D01*
X121891696Y-143499068D01*
X121891694Y-143499069D01*
X121719294Y-143551367D01*
X121584931Y-143564600D01*
X121495069Y-143564600D01*
X121360706Y-143551367D01*
X121188306Y-143499069D01*
X121188304Y-143499068D01*
X121029417Y-143414141D01*
X120890151Y-143299849D01*
X120775859Y-143160583D01*
X120690932Y-143001696D01*
X120690931Y-143001694D01*
X120638633Y-142829294D01*
X120620975Y-142650000D01*
X120638633Y-142470706D01*
X120690931Y-142298306D01*
X120775860Y-142139416D01*
X120890151Y-142000151D01*
X121029416Y-141885860D01*
X121029415Y-141885860D01*
X121029417Y-141885859D01*
X121188304Y-141800932D01*
X121188306Y-141800931D01*
X121360706Y-141748633D01*
X121495069Y-141735400D01*
X121584931Y-141735400D01*
X121719294Y-141748633D01*
X121719294Y-141748633D01*
G37*
G36*
X119179294Y-141748633D02*
X119351694Y-141800931D01*
X119351696Y-141800932D01*
X119510583Y-141885859D01*
X119510585Y-141885860D01*
X119510584Y-141885860D01*
X119649849Y-142000151D01*
X119764140Y-142139416D01*
X119849069Y-142298306D01*
X119901367Y-142470706D01*
X119919025Y-142650000D01*
X119901367Y-142829294D01*
X119849069Y-143001694D01*
X119849068Y-143001696D01*
X119764141Y-143160583D01*
X119649849Y-143299849D01*
X119510583Y-143414141D01*
X119351696Y-143499068D01*
X119351694Y-143499069D01*
X119179294Y-143551367D01*
X119044931Y-143564600D01*
X118955069Y-143564600D01*
X118820706Y-143551367D01*
X118648306Y-143499069D01*
X118648304Y-143499068D01*
X118489417Y-143414141D01*
X118350151Y-143299849D01*
X118235859Y-143160583D01*
X118150932Y-143001696D01*
X118150931Y-143001694D01*
X118098633Y-142829294D01*
X118080975Y-142650000D01*
X118098633Y-142470706D01*
X118150931Y-142298306D01*
X118235860Y-142139416D01*
X118350151Y-142000151D01*
X118489416Y-141885860D01*
X118489415Y-141885860D01*
X118489417Y-141885859D01*
X118648304Y-141800932D01*
X118648306Y-141800931D01*
X118820706Y-141748633D01*
X118955069Y-141735400D01*
X119044931Y-141735400D01*
X119179294Y-141748633D01*
X119179294Y-141748633D01*
G37*
G36*
X116639294Y-141748633D02*
X116811694Y-141800931D01*
X116811696Y-141800932D01*
X116970583Y-141885859D01*
X116970585Y-141885860D01*
X116970584Y-141885860D01*
X117109849Y-142000151D01*
X117224140Y-142139416D01*
X117309069Y-142298306D01*
X117361367Y-142470706D01*
X117379025Y-142650000D01*
X117361367Y-142829294D01*
X117309069Y-143001694D01*
X117309068Y-143001696D01*
X117224141Y-143160583D01*
X117109849Y-143299849D01*
X116970583Y-143414141D01*
X116811696Y-143499068D01*
X116811694Y-143499069D01*
X116639294Y-143551367D01*
X116504931Y-143564600D01*
X116415069Y-143564600D01*
X116280706Y-143551367D01*
X116108306Y-143499069D01*
X116108304Y-143499068D01*
X115949417Y-143414141D01*
X115810151Y-143299849D01*
X115695859Y-143160583D01*
X115610932Y-143001696D01*
X115610931Y-143001694D01*
X115558633Y-142829294D01*
X115540975Y-142650000D01*
X115558633Y-142470706D01*
X115610931Y-142298306D01*
X115695860Y-142139416D01*
X115810151Y-142000151D01*
X115949416Y-141885860D01*
X115949415Y-141885860D01*
X115949417Y-141885859D01*
X116108304Y-141800932D01*
X116108306Y-141800931D01*
X116280706Y-141748633D01*
X116415069Y-141735400D01*
X116504931Y-141735400D01*
X116639294Y-141748633D01*
X116639294Y-141748633D01*
G37*
G36*
X114099294Y-141748633D02*
X114271694Y-141800931D01*
X114271696Y-141800932D01*
X114430583Y-141885859D01*
X114430585Y-141885860D01*
X114430584Y-141885860D01*
X114569849Y-142000151D01*
X114684140Y-142139416D01*
X114769069Y-142298306D01*
X114821367Y-142470706D01*
X114839025Y-142650000D01*
X114821367Y-142829294D01*
X114769069Y-143001694D01*
X114769068Y-143001696D01*
X114684141Y-143160583D01*
X114569849Y-143299849D01*
X114430583Y-143414141D01*
X114271696Y-143499068D01*
X114271694Y-143499069D01*
X114099294Y-143551367D01*
X113964931Y-143564600D01*
X113875069Y-143564600D01*
X113740706Y-143551367D01*
X113568306Y-143499069D01*
X113568304Y-143499068D01*
X113409417Y-143414141D01*
X113270151Y-143299849D01*
X113155859Y-143160583D01*
X113070932Y-143001696D01*
X113070931Y-143001694D01*
X113018633Y-142829294D01*
X113000975Y-142650000D01*
X113018633Y-142470706D01*
X113070931Y-142298306D01*
X113155860Y-142139416D01*
X113270151Y-142000151D01*
X113409416Y-141885860D01*
X113409415Y-141885860D01*
X113409417Y-141885859D01*
X113568304Y-141800932D01*
X113568306Y-141800931D01*
X113740706Y-141748633D01*
X113875069Y-141735400D01*
X113964931Y-141735400D01*
X114099294Y-141748633D01*
X114099294Y-141748633D01*
G37*
G36*
X112294600Y-143564600D02*
X110465400Y-143564600D01*
X110465400Y-141735400D01*
X112294600Y-141735400D01*
X112294600Y-143564600D01*
X112294600Y-143564600D01*
G37*
G36*
X159819294Y-139208633D02*
X159991694Y-139260931D01*
X159991696Y-139260932D01*
X160150583Y-139345859D01*
X160289849Y-139460151D01*
X160404141Y-139599417D01*
X160432048Y-139651627D01*
X160489069Y-139758306D01*
X160541367Y-139930706D01*
X160559025Y-140110000D01*
X160541367Y-140289294D01*
X160489069Y-140461694D01*
X160489068Y-140461696D01*
X160404141Y-140620583D01*
X160289849Y-140759849D01*
X160150583Y-140874141D01*
X159991696Y-140959068D01*
X159991694Y-140959069D01*
X159819294Y-141011367D01*
X159684931Y-141024600D01*
X159595069Y-141024600D01*
X159460706Y-141011367D01*
X159288306Y-140959069D01*
X159288304Y-140959068D01*
X159129417Y-140874141D01*
X158990151Y-140759849D01*
X158875859Y-140620583D01*
X158790932Y-140461696D01*
X158790931Y-140461694D01*
X158738633Y-140289294D01*
X158720975Y-140110000D01*
X158738633Y-139930706D01*
X158790931Y-139758306D01*
X158847952Y-139651627D01*
X158875859Y-139599417D01*
X158990151Y-139460151D01*
X159129417Y-139345859D01*
X159288304Y-139260932D01*
X159288306Y-139260931D01*
X159460706Y-139208633D01*
X159595069Y-139195400D01*
X159684931Y-139195400D01*
X159819294Y-139208633D01*
X159819294Y-139208633D01*
G37*
G36*
X134419294Y-139208633D02*
X134591694Y-139260931D01*
X134591696Y-139260932D01*
X134750583Y-139345859D01*
X134889849Y-139460151D01*
X135004141Y-139599417D01*
X135032048Y-139651627D01*
X135089069Y-139758306D01*
X135141367Y-139930706D01*
X135159025Y-140110000D01*
X135141367Y-140289294D01*
X135089069Y-140461694D01*
X135089068Y-140461696D01*
X135004141Y-140620583D01*
X134889849Y-140759849D01*
X134750583Y-140874141D01*
X134591696Y-140959068D01*
X134591694Y-140959069D01*
X134419294Y-141011367D01*
X134284931Y-141024600D01*
X134195069Y-141024600D01*
X134060706Y-141011367D01*
X133888306Y-140959069D01*
X133888304Y-140959068D01*
X133729417Y-140874141D01*
X133590151Y-140759849D01*
X133475859Y-140620583D01*
X133390932Y-140461696D01*
X133390931Y-140461694D01*
X133338633Y-140289294D01*
X133320975Y-140110000D01*
X133338633Y-139930706D01*
X133390931Y-139758306D01*
X133447952Y-139651627D01*
X133475859Y-139599417D01*
X133590151Y-139460151D01*
X133729417Y-139345859D01*
X133888304Y-139260932D01*
X133888306Y-139260931D01*
X134060706Y-139208633D01*
X134195069Y-139195400D01*
X134284931Y-139195400D01*
X134419294Y-139208633D01*
X134419294Y-139208633D01*
G37*
G36*
X111559294Y-139208633D02*
X111731694Y-139260931D01*
X111731696Y-139260932D01*
X111890583Y-139345859D01*
X112029849Y-139460151D01*
X112144141Y-139599417D01*
X112172048Y-139651627D01*
X112229069Y-139758306D01*
X112281367Y-139930706D01*
X112299025Y-140110000D01*
X112281367Y-140289294D01*
X112229069Y-140461694D01*
X112229068Y-140461696D01*
X112144141Y-140620583D01*
X112029849Y-140759849D01*
X111890583Y-140874141D01*
X111731696Y-140959068D01*
X111731694Y-140959069D01*
X111559294Y-141011367D01*
X111424931Y-141024600D01*
X111335069Y-141024600D01*
X111200706Y-141011367D01*
X111028306Y-140959069D01*
X111028304Y-140959068D01*
X110869417Y-140874141D01*
X110730151Y-140759849D01*
X110615859Y-140620583D01*
X110530932Y-140461696D01*
X110530931Y-140461694D01*
X110478633Y-140289294D01*
X110460975Y-140110000D01*
X110478633Y-139930706D01*
X110530931Y-139758306D01*
X110587952Y-139651627D01*
X110615859Y-139599417D01*
X110730151Y-139460151D01*
X110869417Y-139345859D01*
X111028304Y-139260932D01*
X111028306Y-139260931D01*
X111200706Y-139208633D01*
X111335069Y-139195400D01*
X111424931Y-139195400D01*
X111559294Y-139208633D01*
X111559294Y-139208633D01*
G37*
G36*
X114099294Y-139208633D02*
X114271694Y-139260931D01*
X114271696Y-139260932D01*
X114430583Y-139345859D01*
X114569849Y-139460151D01*
X114684141Y-139599417D01*
X114712048Y-139651627D01*
X114769069Y-139758306D01*
X114821367Y-139930706D01*
X114839025Y-140110000D01*
X114821367Y-140289294D01*
X114769069Y-140461694D01*
X114769068Y-140461696D01*
X114684141Y-140620583D01*
X114569849Y-140759849D01*
X114430583Y-140874141D01*
X114271696Y-140959068D01*
X114271694Y-140959069D01*
X114099294Y-141011367D01*
X113964931Y-141024600D01*
X113875069Y-141024600D01*
X113740706Y-141011367D01*
X113568306Y-140959069D01*
X113568304Y-140959068D01*
X113409417Y-140874141D01*
X113270151Y-140759849D01*
X113155859Y-140620583D01*
X113070932Y-140461696D01*
X113070931Y-140461694D01*
X113018633Y-140289294D01*
X113000975Y-140110000D01*
X113018633Y-139930706D01*
X113070931Y-139758306D01*
X113127952Y-139651627D01*
X113155859Y-139599417D01*
X113270151Y-139460151D01*
X113409417Y-139345859D01*
X113568304Y-139260932D01*
X113568306Y-139260931D01*
X113740706Y-139208633D01*
X113875069Y-139195400D01*
X113964931Y-139195400D01*
X114099294Y-139208633D01*
X114099294Y-139208633D01*
G37*
G36*
X116639294Y-139208633D02*
X116811694Y-139260931D01*
X116811696Y-139260932D01*
X116970583Y-139345859D01*
X117109849Y-139460151D01*
X117224141Y-139599417D01*
X117252048Y-139651627D01*
X117309069Y-139758306D01*
X117361367Y-139930706D01*
X117379025Y-140110000D01*
X117361367Y-140289294D01*
X117309069Y-140461694D01*
X117309068Y-140461696D01*
X117224141Y-140620583D01*
X117109849Y-140759849D01*
X116970583Y-140874141D01*
X116811696Y-140959068D01*
X116811694Y-140959069D01*
X116639294Y-141011367D01*
X116504931Y-141024600D01*
X116415069Y-141024600D01*
X116280706Y-141011367D01*
X116108306Y-140959069D01*
X116108304Y-140959068D01*
X115949417Y-140874141D01*
X115810151Y-140759849D01*
X115695859Y-140620583D01*
X115610932Y-140461696D01*
X115610931Y-140461694D01*
X115558633Y-140289294D01*
X115540975Y-140110000D01*
X115558633Y-139930706D01*
X115610931Y-139758306D01*
X115667952Y-139651627D01*
X115695859Y-139599417D01*
X115810151Y-139460151D01*
X115949417Y-139345859D01*
X116108304Y-139260932D01*
X116108306Y-139260931D01*
X116280706Y-139208633D01*
X116415069Y-139195400D01*
X116504931Y-139195400D01*
X116639294Y-139208633D01*
X116639294Y-139208633D01*
G37*
G36*
X119179294Y-139208633D02*
X119351694Y-139260931D01*
X119351696Y-139260932D01*
X119510583Y-139345859D01*
X119649849Y-139460151D01*
X119764141Y-139599417D01*
X119792048Y-139651627D01*
X119849069Y-139758306D01*
X119901367Y-139930706D01*
X119919025Y-140110000D01*
X119901367Y-140289294D01*
X119849069Y-140461694D01*
X119849068Y-140461696D01*
X119764141Y-140620583D01*
X119649849Y-140759849D01*
X119510583Y-140874141D01*
X119351696Y-140959068D01*
X119351694Y-140959069D01*
X119179294Y-141011367D01*
X119044931Y-141024600D01*
X118955069Y-141024600D01*
X118820706Y-141011367D01*
X118648306Y-140959069D01*
X118648304Y-140959068D01*
X118489417Y-140874141D01*
X118350151Y-140759849D01*
X118235859Y-140620583D01*
X118150932Y-140461696D01*
X118150931Y-140461694D01*
X118098633Y-140289294D01*
X118080975Y-140110000D01*
X118098633Y-139930706D01*
X118150931Y-139758306D01*
X118207952Y-139651627D01*
X118235859Y-139599417D01*
X118350151Y-139460151D01*
X118489417Y-139345859D01*
X118648304Y-139260932D01*
X118648306Y-139260931D01*
X118820706Y-139208633D01*
X118955069Y-139195400D01*
X119044931Y-139195400D01*
X119179294Y-139208633D01*
X119179294Y-139208633D01*
G37*
G36*
X121719294Y-139208633D02*
X121891694Y-139260931D01*
X121891696Y-139260932D01*
X122050583Y-139345859D01*
X122189849Y-139460151D01*
X122304141Y-139599417D01*
X122332048Y-139651627D01*
X122389069Y-139758306D01*
X122441367Y-139930706D01*
X122459025Y-140110000D01*
X122441367Y-140289294D01*
X122389069Y-140461694D01*
X122389068Y-140461696D01*
X122304141Y-140620583D01*
X122189849Y-140759849D01*
X122050583Y-140874141D01*
X121891696Y-140959068D01*
X121891694Y-140959069D01*
X121719294Y-141011367D01*
X121584931Y-141024600D01*
X121495069Y-141024600D01*
X121360706Y-141011367D01*
X121188306Y-140959069D01*
X121188304Y-140959068D01*
X121029417Y-140874141D01*
X120890151Y-140759849D01*
X120775859Y-140620583D01*
X120690932Y-140461696D01*
X120690931Y-140461694D01*
X120638633Y-140289294D01*
X120620975Y-140110000D01*
X120638633Y-139930706D01*
X120690931Y-139758306D01*
X120747952Y-139651627D01*
X120775859Y-139599417D01*
X120890151Y-139460151D01*
X121029417Y-139345859D01*
X121188304Y-139260932D01*
X121188306Y-139260931D01*
X121360706Y-139208633D01*
X121495069Y-139195400D01*
X121584931Y-139195400D01*
X121719294Y-139208633D01*
X121719294Y-139208633D01*
G37*
G36*
X124259294Y-139208633D02*
X124431694Y-139260931D01*
X124431696Y-139260932D01*
X124590583Y-139345859D01*
X124729849Y-139460151D01*
X124844141Y-139599417D01*
X124872048Y-139651627D01*
X124929069Y-139758306D01*
X124981367Y-139930706D01*
X124999025Y-140110000D01*
X124981367Y-140289294D01*
X124929069Y-140461694D01*
X124929068Y-140461696D01*
X124844141Y-140620583D01*
X124729849Y-140759849D01*
X124590583Y-140874141D01*
X124431696Y-140959068D01*
X124431694Y-140959069D01*
X124259294Y-141011367D01*
X124124931Y-141024600D01*
X124035069Y-141024600D01*
X123900706Y-141011367D01*
X123728306Y-140959069D01*
X123728304Y-140959068D01*
X123569417Y-140874141D01*
X123430151Y-140759849D01*
X123315859Y-140620583D01*
X123230932Y-140461696D01*
X123230931Y-140461694D01*
X123178633Y-140289294D01*
X123160975Y-140110000D01*
X123178633Y-139930706D01*
X123230931Y-139758306D01*
X123287952Y-139651627D01*
X123315859Y-139599417D01*
X123430151Y-139460151D01*
X123569417Y-139345859D01*
X123728304Y-139260932D01*
X123728306Y-139260931D01*
X123900706Y-139208633D01*
X124035069Y-139195400D01*
X124124931Y-139195400D01*
X124259294Y-139208633D01*
X124259294Y-139208633D01*
G37*
G36*
X126799294Y-139208633D02*
X126971694Y-139260931D01*
X126971696Y-139260932D01*
X127130583Y-139345859D01*
X127269849Y-139460151D01*
X127384141Y-139599417D01*
X127412048Y-139651627D01*
X127469069Y-139758306D01*
X127521367Y-139930706D01*
X127539025Y-140110000D01*
X127521367Y-140289294D01*
X127469069Y-140461694D01*
X127469068Y-140461696D01*
X127384141Y-140620583D01*
X127269849Y-140759849D01*
X127130583Y-140874141D01*
X126971696Y-140959068D01*
X126971694Y-140959069D01*
X126799294Y-141011367D01*
X126664931Y-141024600D01*
X126575069Y-141024600D01*
X126440706Y-141011367D01*
X126268306Y-140959069D01*
X126268304Y-140959068D01*
X126109417Y-140874141D01*
X125970151Y-140759849D01*
X125855859Y-140620583D01*
X125770932Y-140461696D01*
X125770931Y-140461694D01*
X125718633Y-140289294D01*
X125700975Y-140110000D01*
X125718633Y-139930706D01*
X125770931Y-139758306D01*
X125827952Y-139651627D01*
X125855859Y-139599417D01*
X125970151Y-139460151D01*
X126109417Y-139345859D01*
X126268304Y-139260932D01*
X126268306Y-139260931D01*
X126440706Y-139208633D01*
X126575069Y-139195400D01*
X126664931Y-139195400D01*
X126799294Y-139208633D01*
X126799294Y-139208633D01*
G37*
G36*
X129339294Y-139208633D02*
X129511694Y-139260931D01*
X129511696Y-139260932D01*
X129670583Y-139345859D01*
X129809849Y-139460151D01*
X129924141Y-139599417D01*
X129952048Y-139651627D01*
X130009069Y-139758306D01*
X130061367Y-139930706D01*
X130079025Y-140110000D01*
X130061367Y-140289294D01*
X130009069Y-140461694D01*
X130009068Y-140461696D01*
X129924141Y-140620583D01*
X129809849Y-140759849D01*
X129670583Y-140874141D01*
X129511696Y-140959068D01*
X129511694Y-140959069D01*
X129339294Y-141011367D01*
X129204931Y-141024600D01*
X129115069Y-141024600D01*
X128980706Y-141011367D01*
X128808306Y-140959069D01*
X128808304Y-140959068D01*
X128649417Y-140874141D01*
X128510151Y-140759849D01*
X128395859Y-140620583D01*
X128310932Y-140461696D01*
X128310931Y-140461694D01*
X128258633Y-140289294D01*
X128240975Y-140110000D01*
X128258633Y-139930706D01*
X128310931Y-139758306D01*
X128367952Y-139651627D01*
X128395859Y-139599417D01*
X128510151Y-139460151D01*
X128649417Y-139345859D01*
X128808304Y-139260932D01*
X128808306Y-139260931D01*
X128980706Y-139208633D01*
X129115069Y-139195400D01*
X129204931Y-139195400D01*
X129339294Y-139208633D01*
X129339294Y-139208633D01*
G37*
G36*
X131879294Y-139208633D02*
X132051694Y-139260931D01*
X132051696Y-139260932D01*
X132210583Y-139345859D01*
X132349849Y-139460151D01*
X132464141Y-139599417D01*
X132492048Y-139651627D01*
X132549069Y-139758306D01*
X132601367Y-139930706D01*
X132619025Y-140110000D01*
X132601367Y-140289294D01*
X132549069Y-140461694D01*
X132549068Y-140461696D01*
X132464141Y-140620583D01*
X132349849Y-140759849D01*
X132210583Y-140874141D01*
X132051696Y-140959068D01*
X132051694Y-140959069D01*
X131879294Y-141011367D01*
X131744931Y-141024600D01*
X131655069Y-141024600D01*
X131520706Y-141011367D01*
X131348306Y-140959069D01*
X131348304Y-140959068D01*
X131189417Y-140874141D01*
X131050151Y-140759849D01*
X130935859Y-140620583D01*
X130850932Y-140461696D01*
X130850931Y-140461694D01*
X130798633Y-140289294D01*
X130780975Y-140110000D01*
X130798633Y-139930706D01*
X130850931Y-139758306D01*
X130907952Y-139651627D01*
X130935859Y-139599417D01*
X131050151Y-139460151D01*
X131189417Y-139345859D01*
X131348304Y-139260932D01*
X131348306Y-139260931D01*
X131520706Y-139208633D01*
X131655069Y-139195400D01*
X131744931Y-139195400D01*
X131879294Y-139208633D01*
X131879294Y-139208633D01*
G37*
G36*
X136959294Y-139208633D02*
X137131694Y-139260931D01*
X137131696Y-139260932D01*
X137290583Y-139345859D01*
X137429849Y-139460151D01*
X137544141Y-139599417D01*
X137572048Y-139651627D01*
X137629069Y-139758306D01*
X137681367Y-139930706D01*
X137699025Y-140110000D01*
X137681367Y-140289294D01*
X137629069Y-140461694D01*
X137629068Y-140461696D01*
X137544141Y-140620583D01*
X137429849Y-140759849D01*
X137290583Y-140874141D01*
X137131696Y-140959068D01*
X137131694Y-140959069D01*
X136959294Y-141011367D01*
X136824931Y-141024600D01*
X136735069Y-141024600D01*
X136600706Y-141011367D01*
X136428306Y-140959069D01*
X136428304Y-140959068D01*
X136269417Y-140874141D01*
X136130151Y-140759849D01*
X136015859Y-140620583D01*
X135930932Y-140461696D01*
X135930931Y-140461694D01*
X135878633Y-140289294D01*
X135860975Y-140110000D01*
X135878633Y-139930706D01*
X135930931Y-139758306D01*
X135987952Y-139651627D01*
X136015859Y-139599417D01*
X136130151Y-139460151D01*
X136269417Y-139345859D01*
X136428304Y-139260932D01*
X136428306Y-139260931D01*
X136600706Y-139208633D01*
X136735069Y-139195400D01*
X136824931Y-139195400D01*
X136959294Y-139208633D01*
X136959294Y-139208633D01*
G37*
G36*
X139499294Y-139208633D02*
X139671694Y-139260931D01*
X139671696Y-139260932D01*
X139830583Y-139345859D01*
X139969849Y-139460151D01*
X140084141Y-139599417D01*
X140112048Y-139651627D01*
X140169069Y-139758306D01*
X140221367Y-139930706D01*
X140239025Y-140110000D01*
X140221367Y-140289294D01*
X140169069Y-140461694D01*
X140169068Y-140461696D01*
X140084141Y-140620583D01*
X139969849Y-140759849D01*
X139830583Y-140874141D01*
X139671696Y-140959068D01*
X139671694Y-140959069D01*
X139499294Y-141011367D01*
X139364931Y-141024600D01*
X139275069Y-141024600D01*
X139140706Y-141011367D01*
X138968306Y-140959069D01*
X138968304Y-140959068D01*
X138809417Y-140874141D01*
X138670151Y-140759849D01*
X138555859Y-140620583D01*
X138470932Y-140461696D01*
X138470931Y-140461694D01*
X138418633Y-140289294D01*
X138400975Y-140110000D01*
X138418633Y-139930706D01*
X138470931Y-139758306D01*
X138527952Y-139651627D01*
X138555859Y-139599417D01*
X138670151Y-139460151D01*
X138809417Y-139345859D01*
X138968304Y-139260932D01*
X138968306Y-139260931D01*
X139140706Y-139208633D01*
X139275069Y-139195400D01*
X139364931Y-139195400D01*
X139499294Y-139208633D01*
X139499294Y-139208633D01*
G37*
G36*
X142039294Y-139208633D02*
X142211694Y-139260931D01*
X142211696Y-139260932D01*
X142370583Y-139345859D01*
X142509849Y-139460151D01*
X142624141Y-139599417D01*
X142652048Y-139651627D01*
X142709069Y-139758306D01*
X142761367Y-139930706D01*
X142779025Y-140110000D01*
X142761367Y-140289294D01*
X142709069Y-140461694D01*
X142709068Y-140461696D01*
X142624141Y-140620583D01*
X142509849Y-140759849D01*
X142370583Y-140874141D01*
X142211696Y-140959068D01*
X142211694Y-140959069D01*
X142039294Y-141011367D01*
X141904931Y-141024600D01*
X141815069Y-141024600D01*
X141680706Y-141011367D01*
X141508306Y-140959069D01*
X141508304Y-140959068D01*
X141349417Y-140874141D01*
X141210151Y-140759849D01*
X141095859Y-140620583D01*
X141010932Y-140461696D01*
X141010931Y-140461694D01*
X140958633Y-140289294D01*
X140940975Y-140110000D01*
X140958633Y-139930706D01*
X141010931Y-139758306D01*
X141067952Y-139651627D01*
X141095859Y-139599417D01*
X141210151Y-139460151D01*
X141349417Y-139345859D01*
X141508304Y-139260932D01*
X141508306Y-139260931D01*
X141680706Y-139208633D01*
X141815069Y-139195400D01*
X141904931Y-139195400D01*
X142039294Y-139208633D01*
X142039294Y-139208633D01*
G37*
G36*
X144579294Y-139208633D02*
X144751694Y-139260931D01*
X144751696Y-139260932D01*
X144910583Y-139345859D01*
X145049849Y-139460151D01*
X145164141Y-139599417D01*
X145192048Y-139651627D01*
X145249069Y-139758306D01*
X145301367Y-139930706D01*
X145319025Y-140110000D01*
X145301367Y-140289294D01*
X145249069Y-140461694D01*
X145249068Y-140461696D01*
X145164141Y-140620583D01*
X145049849Y-140759849D01*
X144910583Y-140874141D01*
X144751696Y-140959068D01*
X144751694Y-140959069D01*
X144579294Y-141011367D01*
X144444931Y-141024600D01*
X144355069Y-141024600D01*
X144220706Y-141011367D01*
X144048306Y-140959069D01*
X144048304Y-140959068D01*
X143889417Y-140874141D01*
X143750151Y-140759849D01*
X143635859Y-140620583D01*
X143550932Y-140461696D01*
X143550931Y-140461694D01*
X143498633Y-140289294D01*
X143480975Y-140110000D01*
X143498633Y-139930706D01*
X143550931Y-139758306D01*
X143607952Y-139651627D01*
X143635859Y-139599417D01*
X143750151Y-139460151D01*
X143889417Y-139345859D01*
X144048304Y-139260932D01*
X144048306Y-139260931D01*
X144220706Y-139208633D01*
X144355069Y-139195400D01*
X144444931Y-139195400D01*
X144579294Y-139208633D01*
X144579294Y-139208633D01*
G37*
G36*
X147119294Y-139208633D02*
X147291694Y-139260931D01*
X147291696Y-139260932D01*
X147450583Y-139345859D01*
X147589849Y-139460151D01*
X147704141Y-139599417D01*
X147732048Y-139651627D01*
X147789069Y-139758306D01*
X147841367Y-139930706D01*
X147859025Y-140110000D01*
X147841367Y-140289294D01*
X147789069Y-140461694D01*
X147789068Y-140461696D01*
X147704141Y-140620583D01*
X147589849Y-140759849D01*
X147450583Y-140874141D01*
X147291696Y-140959068D01*
X147291694Y-140959069D01*
X147119294Y-141011367D01*
X146984931Y-141024600D01*
X146895069Y-141024600D01*
X146760706Y-141011367D01*
X146588306Y-140959069D01*
X146588304Y-140959068D01*
X146429417Y-140874141D01*
X146290151Y-140759849D01*
X146175859Y-140620583D01*
X146090932Y-140461696D01*
X146090931Y-140461694D01*
X146038633Y-140289294D01*
X146020975Y-140110000D01*
X146038633Y-139930706D01*
X146090931Y-139758306D01*
X146147952Y-139651627D01*
X146175859Y-139599417D01*
X146290151Y-139460151D01*
X146429417Y-139345859D01*
X146588304Y-139260932D01*
X146588306Y-139260931D01*
X146760706Y-139208633D01*
X146895069Y-139195400D01*
X146984931Y-139195400D01*
X147119294Y-139208633D01*
X147119294Y-139208633D01*
G37*
G36*
X149659294Y-139208633D02*
X149831694Y-139260931D01*
X149831696Y-139260932D01*
X149990583Y-139345859D01*
X150129849Y-139460151D01*
X150244141Y-139599417D01*
X150272048Y-139651627D01*
X150329069Y-139758306D01*
X150381367Y-139930706D01*
X150399025Y-140110000D01*
X150381367Y-140289294D01*
X150329069Y-140461694D01*
X150329068Y-140461696D01*
X150244141Y-140620583D01*
X150129849Y-140759849D01*
X149990583Y-140874141D01*
X149831696Y-140959068D01*
X149831694Y-140959069D01*
X149659294Y-141011367D01*
X149524931Y-141024600D01*
X149435069Y-141024600D01*
X149300706Y-141011367D01*
X149128306Y-140959069D01*
X149128304Y-140959068D01*
X148969417Y-140874141D01*
X148830151Y-140759849D01*
X148715859Y-140620583D01*
X148630932Y-140461696D01*
X148630931Y-140461694D01*
X148578633Y-140289294D01*
X148560975Y-140110000D01*
X148578633Y-139930706D01*
X148630931Y-139758306D01*
X148687952Y-139651627D01*
X148715859Y-139599417D01*
X148830151Y-139460151D01*
X148969417Y-139345859D01*
X149128304Y-139260932D01*
X149128306Y-139260931D01*
X149300706Y-139208633D01*
X149435069Y-139195400D01*
X149524931Y-139195400D01*
X149659294Y-139208633D01*
X149659294Y-139208633D01*
G37*
G36*
X152199294Y-139208633D02*
X152371694Y-139260931D01*
X152371696Y-139260932D01*
X152530583Y-139345859D01*
X152669849Y-139460151D01*
X152784141Y-139599417D01*
X152812048Y-139651627D01*
X152869069Y-139758306D01*
X152921367Y-139930706D01*
X152939025Y-140110000D01*
X152921367Y-140289294D01*
X152869069Y-140461694D01*
X152869068Y-140461696D01*
X152784141Y-140620583D01*
X152669849Y-140759849D01*
X152530583Y-140874141D01*
X152371696Y-140959068D01*
X152371694Y-140959069D01*
X152199294Y-141011367D01*
X152064931Y-141024600D01*
X151975069Y-141024600D01*
X151840706Y-141011367D01*
X151668306Y-140959069D01*
X151668304Y-140959068D01*
X151509417Y-140874141D01*
X151370151Y-140759849D01*
X151255859Y-140620583D01*
X151170932Y-140461696D01*
X151170931Y-140461694D01*
X151118633Y-140289294D01*
X151100975Y-140110000D01*
X151118633Y-139930706D01*
X151170931Y-139758306D01*
X151227952Y-139651627D01*
X151255859Y-139599417D01*
X151370151Y-139460151D01*
X151509417Y-139345859D01*
X151668304Y-139260932D01*
X151668306Y-139260931D01*
X151840706Y-139208633D01*
X151975069Y-139195400D01*
X152064931Y-139195400D01*
X152199294Y-139208633D01*
X152199294Y-139208633D01*
G37*
G36*
X154739294Y-139208633D02*
X154911694Y-139260931D01*
X154911696Y-139260932D01*
X155070583Y-139345859D01*
X155209849Y-139460151D01*
X155324141Y-139599417D01*
X155352048Y-139651627D01*
X155409069Y-139758306D01*
X155461367Y-139930706D01*
X155479025Y-140110000D01*
X155461367Y-140289294D01*
X155409069Y-140461694D01*
X155409068Y-140461696D01*
X155324141Y-140620583D01*
X155209849Y-140759849D01*
X155070583Y-140874141D01*
X154911696Y-140959068D01*
X154911694Y-140959069D01*
X154739294Y-141011367D01*
X154604931Y-141024600D01*
X154515069Y-141024600D01*
X154380706Y-141011367D01*
X154208306Y-140959069D01*
X154208304Y-140959068D01*
X154049417Y-140874141D01*
X153910151Y-140759849D01*
X153795859Y-140620583D01*
X153710932Y-140461696D01*
X153710931Y-140461694D01*
X153658633Y-140289294D01*
X153640975Y-140110000D01*
X153658633Y-139930706D01*
X153710931Y-139758306D01*
X153767952Y-139651627D01*
X153795859Y-139599417D01*
X153910151Y-139460151D01*
X154049417Y-139345859D01*
X154208304Y-139260932D01*
X154208306Y-139260931D01*
X154380706Y-139208633D01*
X154515069Y-139195400D01*
X154604931Y-139195400D01*
X154739294Y-139208633D01*
X154739294Y-139208633D01*
G37*
G36*
X157279294Y-139208633D02*
X157451694Y-139260931D01*
X157451696Y-139260932D01*
X157610583Y-139345859D01*
X157749849Y-139460151D01*
X157864141Y-139599417D01*
X157892048Y-139651627D01*
X157949069Y-139758306D01*
X158001367Y-139930706D01*
X158019025Y-140110000D01*
X158001367Y-140289294D01*
X157949069Y-140461694D01*
X157949068Y-140461696D01*
X157864141Y-140620583D01*
X157749849Y-140759849D01*
X157610583Y-140874141D01*
X157451696Y-140959068D01*
X157451694Y-140959069D01*
X157279294Y-141011367D01*
X157144931Y-141024600D01*
X157055069Y-141024600D01*
X156920706Y-141011367D01*
X156748306Y-140959069D01*
X156748304Y-140959068D01*
X156589417Y-140874141D01*
X156450151Y-140759849D01*
X156335859Y-140620583D01*
X156250932Y-140461696D01*
X156250931Y-140461694D01*
X156198633Y-140289294D01*
X156180975Y-140110000D01*
X156198633Y-139930706D01*
X156250931Y-139758306D01*
X156307952Y-139651627D01*
X156335859Y-139599417D01*
X156450151Y-139460151D01*
X156589417Y-139345859D01*
X156748304Y-139260932D01*
X156748306Y-139260931D01*
X156920706Y-139208633D01*
X157055069Y-139195400D01*
X157144931Y-139195400D01*
X157279294Y-139208633D01*
X157279294Y-139208633D01*
G37*
G36*
X87995443Y-138580519D02*
X88061627Y-138587037D01*
X88174853Y-138621384D01*
X88231467Y-138638557D01*
X88370087Y-138712652D01*
X88387991Y-138722222D01*
X88423729Y-138751552D01*
X88525186Y-138834814D01*
X88608448Y-138936271D01*
X88637778Y-138972009D01*
X88637779Y-138972011D01*
X88721443Y-139128533D01*
X88721443Y-139128534D01*
X88772963Y-139298373D01*
X88790359Y-139475000D01*
X88772963Y-139651627D01*
X88740603Y-139758304D01*
X88721443Y-139821467D01*
X88663053Y-139930706D01*
X88637778Y-139977991D01*
X88608448Y-140013729D01*
X88525186Y-140115186D01*
X88423729Y-140198448D01*
X88387991Y-140227778D01*
X88387989Y-140227779D01*
X88231467Y-140311443D01*
X88174853Y-140328616D01*
X88061627Y-140362963D01*
X87995442Y-140369482D01*
X87929260Y-140376000D01*
X87840740Y-140376000D01*
X87774558Y-140369482D01*
X87708373Y-140362963D01*
X87595147Y-140328616D01*
X87538533Y-140311443D01*
X87382011Y-140227779D01*
X87382009Y-140227778D01*
X87346271Y-140198448D01*
X87244814Y-140115186D01*
X87161552Y-140013729D01*
X87132222Y-139977991D01*
X87106947Y-139930706D01*
X87048557Y-139821467D01*
X87029397Y-139758304D01*
X86997037Y-139651627D01*
X86979641Y-139475000D01*
X86997037Y-139298373D01*
X87048557Y-139128534D01*
X87048557Y-139128533D01*
X87132221Y-138972011D01*
X87132222Y-138972009D01*
X87161552Y-138936271D01*
X87244814Y-138834814D01*
X87346271Y-138751552D01*
X87382009Y-138722222D01*
X87399913Y-138712652D01*
X87538533Y-138638557D01*
X87595147Y-138621384D01*
X87708373Y-138587037D01*
X87774557Y-138580519D01*
X87840740Y-138574000D01*
X87929260Y-138574000D01*
X87995443Y-138580519D01*
X87995443Y-138580519D01*
G37*
G36*
X90535443Y-138580519D02*
X90601627Y-138587037D01*
X90714853Y-138621384D01*
X90771467Y-138638557D01*
X90910087Y-138712652D01*
X90927991Y-138722222D01*
X90963729Y-138751552D01*
X91065186Y-138834814D01*
X91148448Y-138936271D01*
X91177778Y-138972009D01*
X91177779Y-138972011D01*
X91261443Y-139128533D01*
X91261443Y-139128534D01*
X91312963Y-139298373D01*
X91330359Y-139475000D01*
X91312963Y-139651627D01*
X91280603Y-139758304D01*
X91261443Y-139821467D01*
X91203053Y-139930706D01*
X91177778Y-139977991D01*
X91148448Y-140013729D01*
X91065186Y-140115186D01*
X90963729Y-140198448D01*
X90927991Y-140227778D01*
X90927989Y-140227779D01*
X90771467Y-140311443D01*
X90714853Y-140328616D01*
X90601627Y-140362963D01*
X90535442Y-140369482D01*
X90469260Y-140376000D01*
X90380740Y-140376000D01*
X90314558Y-140369482D01*
X90248373Y-140362963D01*
X90135147Y-140328616D01*
X90078533Y-140311443D01*
X89922011Y-140227779D01*
X89922009Y-140227778D01*
X89886271Y-140198448D01*
X89784814Y-140115186D01*
X89701552Y-140013729D01*
X89672222Y-139977991D01*
X89646947Y-139930706D01*
X89588557Y-139821467D01*
X89569397Y-139758304D01*
X89537037Y-139651627D01*
X89519641Y-139475000D01*
X89537037Y-139298373D01*
X89588557Y-139128534D01*
X89588557Y-139128533D01*
X89672221Y-138972011D01*
X89672222Y-138972009D01*
X89701552Y-138936271D01*
X89784814Y-138834814D01*
X89886271Y-138751552D01*
X89922009Y-138722222D01*
X89939913Y-138712652D01*
X90078533Y-138638557D01*
X90135147Y-138621384D01*
X90248373Y-138587037D01*
X90314557Y-138580519D01*
X90380740Y-138574000D01*
X90469260Y-138574000D01*
X90535443Y-138580519D01*
X90535443Y-138580519D01*
G37*
G36*
X72755443Y-138580519D02*
X72821627Y-138587037D01*
X72934853Y-138621384D01*
X72991467Y-138638557D01*
X73130087Y-138712652D01*
X73147991Y-138722222D01*
X73183729Y-138751552D01*
X73285186Y-138834814D01*
X73368448Y-138936271D01*
X73397778Y-138972009D01*
X73397779Y-138972011D01*
X73481443Y-139128533D01*
X73481443Y-139128534D01*
X73532963Y-139298373D01*
X73550359Y-139475000D01*
X73532963Y-139651627D01*
X73500603Y-139758304D01*
X73481443Y-139821467D01*
X73423053Y-139930706D01*
X73397778Y-139977991D01*
X73368448Y-140013729D01*
X73285186Y-140115186D01*
X73183729Y-140198448D01*
X73147991Y-140227778D01*
X73147989Y-140227779D01*
X72991467Y-140311443D01*
X72934853Y-140328616D01*
X72821627Y-140362963D01*
X72755442Y-140369482D01*
X72689260Y-140376000D01*
X72600740Y-140376000D01*
X72534558Y-140369482D01*
X72468373Y-140362963D01*
X72355147Y-140328616D01*
X72298533Y-140311443D01*
X72142011Y-140227779D01*
X72142009Y-140227778D01*
X72106271Y-140198448D01*
X72004814Y-140115186D01*
X71921552Y-140013729D01*
X71892222Y-139977991D01*
X71866947Y-139930706D01*
X71808557Y-139821467D01*
X71789397Y-139758304D01*
X71757037Y-139651627D01*
X71739641Y-139475000D01*
X71757037Y-139298373D01*
X71808557Y-139128534D01*
X71808557Y-139128533D01*
X71892221Y-138972011D01*
X71892222Y-138972009D01*
X71921552Y-138936271D01*
X72004814Y-138834814D01*
X72106271Y-138751552D01*
X72142009Y-138722222D01*
X72159913Y-138712652D01*
X72298533Y-138638557D01*
X72355147Y-138621384D01*
X72468373Y-138587037D01*
X72534557Y-138580519D01*
X72600740Y-138574000D01*
X72689260Y-138574000D01*
X72755443Y-138580519D01*
X72755443Y-138580519D01*
G37*
G36*
X75295443Y-138580519D02*
X75361627Y-138587037D01*
X75474853Y-138621384D01*
X75531467Y-138638557D01*
X75670087Y-138712652D01*
X75687991Y-138722222D01*
X75723729Y-138751552D01*
X75825186Y-138834814D01*
X75908448Y-138936271D01*
X75937778Y-138972009D01*
X75937779Y-138972011D01*
X76021443Y-139128533D01*
X76021443Y-139128534D01*
X76072963Y-139298373D01*
X76090359Y-139475000D01*
X76072963Y-139651627D01*
X76040603Y-139758304D01*
X76021443Y-139821467D01*
X75963053Y-139930706D01*
X75937778Y-139977991D01*
X75908448Y-140013729D01*
X75825186Y-140115186D01*
X75723729Y-140198448D01*
X75687991Y-140227778D01*
X75687989Y-140227779D01*
X75531467Y-140311443D01*
X75474853Y-140328616D01*
X75361627Y-140362963D01*
X75295442Y-140369482D01*
X75229260Y-140376000D01*
X75140740Y-140376000D01*
X75074558Y-140369482D01*
X75008373Y-140362963D01*
X74895147Y-140328616D01*
X74838533Y-140311443D01*
X74682011Y-140227779D01*
X74682009Y-140227778D01*
X74646271Y-140198448D01*
X74544814Y-140115186D01*
X74461552Y-140013729D01*
X74432222Y-139977991D01*
X74406947Y-139930706D01*
X74348557Y-139821467D01*
X74329397Y-139758304D01*
X74297037Y-139651627D01*
X74279641Y-139475000D01*
X74297037Y-139298373D01*
X74348557Y-139128534D01*
X74348557Y-139128533D01*
X74432221Y-138972011D01*
X74432222Y-138972009D01*
X74461552Y-138936271D01*
X74544814Y-138834814D01*
X74646271Y-138751552D01*
X74682009Y-138722222D01*
X74699913Y-138712652D01*
X74838533Y-138638557D01*
X74895147Y-138621384D01*
X75008373Y-138587037D01*
X75074557Y-138580519D01*
X75140740Y-138574000D01*
X75229260Y-138574000D01*
X75295443Y-138580519D01*
X75295443Y-138580519D01*
G37*
G36*
X85455443Y-138580519D02*
X85521627Y-138587037D01*
X85634853Y-138621384D01*
X85691467Y-138638557D01*
X85830087Y-138712652D01*
X85847991Y-138722222D01*
X85883729Y-138751552D01*
X85985186Y-138834814D01*
X86068448Y-138936271D01*
X86097778Y-138972009D01*
X86097779Y-138972011D01*
X86181443Y-139128533D01*
X86181443Y-139128534D01*
X86232963Y-139298373D01*
X86250359Y-139475000D01*
X86232963Y-139651627D01*
X86200603Y-139758304D01*
X86181443Y-139821467D01*
X86123053Y-139930706D01*
X86097778Y-139977991D01*
X86068448Y-140013729D01*
X85985186Y-140115186D01*
X85883729Y-140198448D01*
X85847991Y-140227778D01*
X85847989Y-140227779D01*
X85691467Y-140311443D01*
X85634853Y-140328616D01*
X85521627Y-140362963D01*
X85455442Y-140369482D01*
X85389260Y-140376000D01*
X85300740Y-140376000D01*
X85234558Y-140369482D01*
X85168373Y-140362963D01*
X85055147Y-140328616D01*
X84998533Y-140311443D01*
X84842011Y-140227779D01*
X84842009Y-140227778D01*
X84806271Y-140198448D01*
X84704814Y-140115186D01*
X84621552Y-140013729D01*
X84592222Y-139977991D01*
X84566947Y-139930706D01*
X84508557Y-139821467D01*
X84489397Y-139758304D01*
X84457037Y-139651627D01*
X84439641Y-139475000D01*
X84457037Y-139298373D01*
X84508557Y-139128534D01*
X84508557Y-139128533D01*
X84592221Y-138972011D01*
X84592222Y-138972009D01*
X84621552Y-138936271D01*
X84704814Y-138834814D01*
X84806271Y-138751552D01*
X84842009Y-138722222D01*
X84859913Y-138712652D01*
X84998533Y-138638557D01*
X85055147Y-138621384D01*
X85168373Y-138587037D01*
X85234557Y-138580519D01*
X85300740Y-138574000D01*
X85389260Y-138574000D01*
X85455443Y-138580519D01*
X85455443Y-138580519D01*
G37*
G36*
X77835443Y-138580519D02*
X77901627Y-138587037D01*
X78014853Y-138621384D01*
X78071467Y-138638557D01*
X78210087Y-138712652D01*
X78227991Y-138722222D01*
X78263729Y-138751552D01*
X78365186Y-138834814D01*
X78448448Y-138936271D01*
X78477778Y-138972009D01*
X78477779Y-138972011D01*
X78561443Y-139128533D01*
X78561443Y-139128534D01*
X78612963Y-139298373D01*
X78630359Y-139475000D01*
X78612963Y-139651627D01*
X78580603Y-139758304D01*
X78561443Y-139821467D01*
X78503053Y-139930706D01*
X78477778Y-139977991D01*
X78448448Y-140013729D01*
X78365186Y-140115186D01*
X78263729Y-140198448D01*
X78227991Y-140227778D01*
X78227989Y-140227779D01*
X78071467Y-140311443D01*
X78014853Y-140328616D01*
X77901627Y-140362963D01*
X77835442Y-140369482D01*
X77769260Y-140376000D01*
X77680740Y-140376000D01*
X77614558Y-140369482D01*
X77548373Y-140362963D01*
X77435147Y-140328616D01*
X77378533Y-140311443D01*
X77222011Y-140227779D01*
X77222009Y-140227778D01*
X77186271Y-140198448D01*
X77084814Y-140115186D01*
X77001552Y-140013729D01*
X76972222Y-139977991D01*
X76946947Y-139930706D01*
X76888557Y-139821467D01*
X76869397Y-139758304D01*
X76837037Y-139651627D01*
X76819641Y-139475000D01*
X76837037Y-139298373D01*
X76888557Y-139128534D01*
X76888557Y-139128533D01*
X76972221Y-138972011D01*
X76972222Y-138972009D01*
X77001552Y-138936271D01*
X77084814Y-138834814D01*
X77186271Y-138751552D01*
X77222009Y-138722222D01*
X77239913Y-138712652D01*
X77378533Y-138638557D01*
X77435147Y-138621384D01*
X77548373Y-138587037D01*
X77614557Y-138580519D01*
X77680740Y-138574000D01*
X77769260Y-138574000D01*
X77835443Y-138580519D01*
X77835443Y-138580519D01*
G37*
G36*
X82915443Y-138580519D02*
X82981627Y-138587037D01*
X83094853Y-138621384D01*
X83151467Y-138638557D01*
X83290087Y-138712652D01*
X83307991Y-138722222D01*
X83343729Y-138751552D01*
X83445186Y-138834814D01*
X83528448Y-138936271D01*
X83557778Y-138972009D01*
X83557779Y-138972011D01*
X83641443Y-139128533D01*
X83641443Y-139128534D01*
X83692963Y-139298373D01*
X83710359Y-139475000D01*
X83692963Y-139651627D01*
X83660603Y-139758304D01*
X83641443Y-139821467D01*
X83583053Y-139930706D01*
X83557778Y-139977991D01*
X83528448Y-140013729D01*
X83445186Y-140115186D01*
X83343729Y-140198448D01*
X83307991Y-140227778D01*
X83307989Y-140227779D01*
X83151467Y-140311443D01*
X83094853Y-140328616D01*
X82981627Y-140362963D01*
X82915442Y-140369482D01*
X82849260Y-140376000D01*
X82760740Y-140376000D01*
X82694558Y-140369482D01*
X82628373Y-140362963D01*
X82515147Y-140328616D01*
X82458533Y-140311443D01*
X82302011Y-140227779D01*
X82302009Y-140227778D01*
X82266271Y-140198448D01*
X82164814Y-140115186D01*
X82081552Y-140013729D01*
X82052222Y-139977991D01*
X82026947Y-139930706D01*
X81968557Y-139821467D01*
X81949397Y-139758304D01*
X81917037Y-139651627D01*
X81899641Y-139475000D01*
X81917037Y-139298373D01*
X81968557Y-139128534D01*
X81968557Y-139128533D01*
X82052221Y-138972011D01*
X82052222Y-138972009D01*
X82081552Y-138936271D01*
X82164814Y-138834814D01*
X82266271Y-138751552D01*
X82302009Y-138722222D01*
X82319913Y-138712652D01*
X82458533Y-138638557D01*
X82515147Y-138621384D01*
X82628373Y-138587037D01*
X82694557Y-138580519D01*
X82760740Y-138574000D01*
X82849260Y-138574000D01*
X82915443Y-138580519D01*
X82915443Y-138580519D01*
G37*
G36*
X80375443Y-138580519D02*
X80441627Y-138587037D01*
X80554853Y-138621384D01*
X80611467Y-138638557D01*
X80750087Y-138712652D01*
X80767991Y-138722222D01*
X80803729Y-138751552D01*
X80905186Y-138834814D01*
X80988448Y-138936271D01*
X81017778Y-138972009D01*
X81017779Y-138972011D01*
X81101443Y-139128533D01*
X81101443Y-139128534D01*
X81152963Y-139298373D01*
X81170359Y-139475000D01*
X81152963Y-139651627D01*
X81120603Y-139758304D01*
X81101443Y-139821467D01*
X81043053Y-139930706D01*
X81017778Y-139977991D01*
X80988448Y-140013729D01*
X80905186Y-140115186D01*
X80803729Y-140198448D01*
X80767991Y-140227778D01*
X80767989Y-140227779D01*
X80611467Y-140311443D01*
X80554853Y-140328616D01*
X80441627Y-140362963D01*
X80375442Y-140369482D01*
X80309260Y-140376000D01*
X80220740Y-140376000D01*
X80154558Y-140369482D01*
X80088373Y-140362963D01*
X79975147Y-140328616D01*
X79918533Y-140311443D01*
X79762011Y-140227779D01*
X79762009Y-140227778D01*
X79726271Y-140198448D01*
X79624814Y-140115186D01*
X79541552Y-140013729D01*
X79512222Y-139977991D01*
X79486947Y-139930706D01*
X79428557Y-139821467D01*
X79409397Y-139758304D01*
X79377037Y-139651627D01*
X79359641Y-139475000D01*
X79377037Y-139298373D01*
X79428557Y-139128534D01*
X79428557Y-139128533D01*
X79512221Y-138972011D01*
X79512222Y-138972009D01*
X79541552Y-138936271D01*
X79624814Y-138834814D01*
X79726271Y-138751552D01*
X79762009Y-138722222D01*
X79779913Y-138712652D01*
X79918533Y-138638557D01*
X79975147Y-138621384D01*
X80088373Y-138587037D01*
X80154557Y-138580519D01*
X80220740Y-138574000D01*
X80309260Y-138574000D01*
X80375443Y-138580519D01*
X80375443Y-138580519D01*
G37*
G36*
X73546000Y-137836000D02*
X71744000Y-137836000D01*
X71744000Y-136034000D01*
X73546000Y-136034000D01*
X73546000Y-137836000D01*
X73546000Y-137836000D01*
G37*
G36*
X87995442Y-136040518D02*
X88061627Y-136047037D01*
X88174853Y-136081384D01*
X88231467Y-136098557D01*
X88370087Y-136172652D01*
X88387991Y-136182222D01*
X88423729Y-136211552D01*
X88525186Y-136294814D01*
X88608448Y-136396271D01*
X88637778Y-136432009D01*
X88637779Y-136432011D01*
X88721443Y-136588533D01*
X88721443Y-136588534D01*
X88772963Y-136758373D01*
X88790359Y-136935000D01*
X88772963Y-137111627D01*
X88738616Y-137224853D01*
X88721443Y-137281467D01*
X88647348Y-137420087D01*
X88637778Y-137437991D01*
X88608448Y-137473729D01*
X88525186Y-137575186D01*
X88423729Y-137658448D01*
X88387991Y-137687778D01*
X88387989Y-137687779D01*
X88231467Y-137771443D01*
X88174853Y-137788616D01*
X88061627Y-137822963D01*
X87995443Y-137829481D01*
X87929260Y-137836000D01*
X87840740Y-137836000D01*
X87774557Y-137829481D01*
X87708373Y-137822963D01*
X87595147Y-137788616D01*
X87538533Y-137771443D01*
X87382011Y-137687779D01*
X87382009Y-137687778D01*
X87346271Y-137658448D01*
X87244814Y-137575186D01*
X87161552Y-137473729D01*
X87132222Y-137437991D01*
X87122652Y-137420087D01*
X87048557Y-137281467D01*
X87031384Y-137224853D01*
X86997037Y-137111627D01*
X86979641Y-136935000D01*
X86997037Y-136758373D01*
X87048557Y-136588534D01*
X87048557Y-136588533D01*
X87132221Y-136432011D01*
X87132222Y-136432009D01*
X87161552Y-136396271D01*
X87244814Y-136294814D01*
X87346271Y-136211552D01*
X87382009Y-136182222D01*
X87399913Y-136172652D01*
X87538533Y-136098557D01*
X87595147Y-136081384D01*
X87708373Y-136047037D01*
X87774558Y-136040518D01*
X87840740Y-136034000D01*
X87929260Y-136034000D01*
X87995442Y-136040518D01*
X87995442Y-136040518D01*
G37*
G36*
X90535442Y-136040518D02*
X90601627Y-136047037D01*
X90714853Y-136081384D01*
X90771467Y-136098557D01*
X90910087Y-136172652D01*
X90927991Y-136182222D01*
X90963729Y-136211552D01*
X91065186Y-136294814D01*
X91148448Y-136396271D01*
X91177778Y-136432009D01*
X91177779Y-136432011D01*
X91261443Y-136588533D01*
X91261443Y-136588534D01*
X91312963Y-136758373D01*
X91330359Y-136935000D01*
X91312963Y-137111627D01*
X91278616Y-137224853D01*
X91261443Y-137281467D01*
X91187348Y-137420087D01*
X91177778Y-137437991D01*
X91148448Y-137473729D01*
X91065186Y-137575186D01*
X90963729Y-137658448D01*
X90927991Y-137687778D01*
X90927989Y-137687779D01*
X90771467Y-137771443D01*
X90714853Y-137788616D01*
X90601627Y-137822963D01*
X90535443Y-137829481D01*
X90469260Y-137836000D01*
X90380740Y-137836000D01*
X90314557Y-137829481D01*
X90248373Y-137822963D01*
X90135147Y-137788616D01*
X90078533Y-137771443D01*
X89922011Y-137687779D01*
X89922009Y-137687778D01*
X89886271Y-137658448D01*
X89784814Y-137575186D01*
X89701552Y-137473729D01*
X89672222Y-137437991D01*
X89662652Y-137420087D01*
X89588557Y-137281467D01*
X89571384Y-137224853D01*
X89537037Y-137111627D01*
X89519641Y-136935000D01*
X89537037Y-136758373D01*
X89588557Y-136588534D01*
X89588557Y-136588533D01*
X89672221Y-136432011D01*
X89672222Y-136432009D01*
X89701552Y-136396271D01*
X89784814Y-136294814D01*
X89886271Y-136211552D01*
X89922009Y-136182222D01*
X89939913Y-136172652D01*
X90078533Y-136098557D01*
X90135147Y-136081384D01*
X90248373Y-136047037D01*
X90314558Y-136040518D01*
X90380740Y-136034000D01*
X90469260Y-136034000D01*
X90535442Y-136040518D01*
X90535442Y-136040518D01*
G37*
G36*
X85455442Y-136040518D02*
X85521627Y-136047037D01*
X85634853Y-136081384D01*
X85691467Y-136098557D01*
X85830087Y-136172652D01*
X85847991Y-136182222D01*
X85883729Y-136211552D01*
X85985186Y-136294814D01*
X86068448Y-136396271D01*
X86097778Y-136432009D01*
X86097779Y-136432011D01*
X86181443Y-136588533D01*
X86181443Y-136588534D01*
X86232963Y-136758373D01*
X86250359Y-136935000D01*
X86232963Y-137111627D01*
X86198616Y-137224853D01*
X86181443Y-137281467D01*
X86107348Y-137420087D01*
X86097778Y-137437991D01*
X86068448Y-137473729D01*
X85985186Y-137575186D01*
X85883729Y-137658448D01*
X85847991Y-137687778D01*
X85847989Y-137687779D01*
X85691467Y-137771443D01*
X85634853Y-137788616D01*
X85521627Y-137822963D01*
X85455443Y-137829481D01*
X85389260Y-137836000D01*
X85300740Y-137836000D01*
X85234557Y-137829481D01*
X85168373Y-137822963D01*
X85055147Y-137788616D01*
X84998533Y-137771443D01*
X84842011Y-137687779D01*
X84842009Y-137687778D01*
X84806271Y-137658448D01*
X84704814Y-137575186D01*
X84621552Y-137473729D01*
X84592222Y-137437991D01*
X84582652Y-137420087D01*
X84508557Y-137281467D01*
X84491384Y-137224853D01*
X84457037Y-137111627D01*
X84439641Y-136935000D01*
X84457037Y-136758373D01*
X84508557Y-136588534D01*
X84508557Y-136588533D01*
X84592221Y-136432011D01*
X84592222Y-136432009D01*
X84621552Y-136396271D01*
X84704814Y-136294814D01*
X84806271Y-136211552D01*
X84842009Y-136182222D01*
X84859913Y-136172652D01*
X84998533Y-136098557D01*
X85055147Y-136081384D01*
X85168373Y-136047037D01*
X85234558Y-136040518D01*
X85300740Y-136034000D01*
X85389260Y-136034000D01*
X85455442Y-136040518D01*
X85455442Y-136040518D01*
G37*
G36*
X82915442Y-136040518D02*
X82981627Y-136047037D01*
X83094853Y-136081384D01*
X83151467Y-136098557D01*
X83290087Y-136172652D01*
X83307991Y-136182222D01*
X83343729Y-136211552D01*
X83445186Y-136294814D01*
X83528448Y-136396271D01*
X83557778Y-136432009D01*
X83557779Y-136432011D01*
X83641443Y-136588533D01*
X83641443Y-136588534D01*
X83692963Y-136758373D01*
X83710359Y-136935000D01*
X83692963Y-137111627D01*
X83658616Y-137224853D01*
X83641443Y-137281467D01*
X83567348Y-137420087D01*
X83557778Y-137437991D01*
X83528448Y-137473729D01*
X83445186Y-137575186D01*
X83343729Y-137658448D01*
X83307991Y-137687778D01*
X83307989Y-137687779D01*
X83151467Y-137771443D01*
X83094853Y-137788616D01*
X82981627Y-137822963D01*
X82915443Y-137829481D01*
X82849260Y-137836000D01*
X82760740Y-137836000D01*
X82694557Y-137829481D01*
X82628373Y-137822963D01*
X82515147Y-137788616D01*
X82458533Y-137771443D01*
X82302011Y-137687779D01*
X82302009Y-137687778D01*
X82266271Y-137658448D01*
X82164814Y-137575186D01*
X82081552Y-137473729D01*
X82052222Y-137437991D01*
X82042652Y-137420087D01*
X81968557Y-137281467D01*
X81951384Y-137224853D01*
X81917037Y-137111627D01*
X81899641Y-136935000D01*
X81917037Y-136758373D01*
X81968557Y-136588534D01*
X81968557Y-136588533D01*
X82052221Y-136432011D01*
X82052222Y-136432009D01*
X82081552Y-136396271D01*
X82164814Y-136294814D01*
X82266271Y-136211552D01*
X82302009Y-136182222D01*
X82319913Y-136172652D01*
X82458533Y-136098557D01*
X82515147Y-136081384D01*
X82628373Y-136047037D01*
X82694558Y-136040518D01*
X82760740Y-136034000D01*
X82849260Y-136034000D01*
X82915442Y-136040518D01*
X82915442Y-136040518D01*
G37*
G36*
X80375442Y-136040518D02*
X80441627Y-136047037D01*
X80554853Y-136081384D01*
X80611467Y-136098557D01*
X80750087Y-136172652D01*
X80767991Y-136182222D01*
X80803729Y-136211552D01*
X80905186Y-136294814D01*
X80988448Y-136396271D01*
X81017778Y-136432009D01*
X81017779Y-136432011D01*
X81101443Y-136588533D01*
X81101443Y-136588534D01*
X81152963Y-136758373D01*
X81170359Y-136935000D01*
X81152963Y-137111627D01*
X81118616Y-137224853D01*
X81101443Y-137281467D01*
X81027348Y-137420087D01*
X81017778Y-137437991D01*
X80988448Y-137473729D01*
X80905186Y-137575186D01*
X80803729Y-137658448D01*
X80767991Y-137687778D01*
X80767989Y-137687779D01*
X80611467Y-137771443D01*
X80554853Y-137788616D01*
X80441627Y-137822963D01*
X80375443Y-137829481D01*
X80309260Y-137836000D01*
X80220740Y-137836000D01*
X80154557Y-137829481D01*
X80088373Y-137822963D01*
X79975147Y-137788616D01*
X79918533Y-137771443D01*
X79762011Y-137687779D01*
X79762009Y-137687778D01*
X79726271Y-137658448D01*
X79624814Y-137575186D01*
X79541552Y-137473729D01*
X79512222Y-137437991D01*
X79502652Y-137420087D01*
X79428557Y-137281467D01*
X79411384Y-137224853D01*
X79377037Y-137111627D01*
X79359641Y-136935000D01*
X79377037Y-136758373D01*
X79428557Y-136588534D01*
X79428557Y-136588533D01*
X79512221Y-136432011D01*
X79512222Y-136432009D01*
X79541552Y-136396271D01*
X79624814Y-136294814D01*
X79726271Y-136211552D01*
X79762009Y-136182222D01*
X79779913Y-136172652D01*
X79918533Y-136098557D01*
X79975147Y-136081384D01*
X80088373Y-136047037D01*
X80154558Y-136040518D01*
X80220740Y-136034000D01*
X80309260Y-136034000D01*
X80375442Y-136040518D01*
X80375442Y-136040518D01*
G37*
G36*
X77835442Y-136040518D02*
X77901627Y-136047037D01*
X78014853Y-136081384D01*
X78071467Y-136098557D01*
X78210087Y-136172652D01*
X78227991Y-136182222D01*
X78263729Y-136211552D01*
X78365186Y-136294814D01*
X78448448Y-136396271D01*
X78477778Y-136432009D01*
X78477779Y-136432011D01*
X78561443Y-136588533D01*
X78561443Y-136588534D01*
X78612963Y-136758373D01*
X78630359Y-136935000D01*
X78612963Y-137111627D01*
X78578616Y-137224853D01*
X78561443Y-137281467D01*
X78487348Y-137420087D01*
X78477778Y-137437991D01*
X78448448Y-137473729D01*
X78365186Y-137575186D01*
X78263729Y-137658448D01*
X78227991Y-137687778D01*
X78227989Y-137687779D01*
X78071467Y-137771443D01*
X78014853Y-137788616D01*
X77901627Y-137822963D01*
X77835443Y-137829481D01*
X77769260Y-137836000D01*
X77680740Y-137836000D01*
X77614557Y-137829481D01*
X77548373Y-137822963D01*
X77435147Y-137788616D01*
X77378533Y-137771443D01*
X77222011Y-137687779D01*
X77222009Y-137687778D01*
X77186271Y-137658448D01*
X77084814Y-137575186D01*
X77001552Y-137473729D01*
X76972222Y-137437991D01*
X76962652Y-137420087D01*
X76888557Y-137281467D01*
X76871384Y-137224853D01*
X76837037Y-137111627D01*
X76819641Y-136935000D01*
X76837037Y-136758373D01*
X76888557Y-136588534D01*
X76888557Y-136588533D01*
X76972221Y-136432011D01*
X76972222Y-136432009D01*
X77001552Y-136396271D01*
X77084814Y-136294814D01*
X77186271Y-136211552D01*
X77222009Y-136182222D01*
X77239913Y-136172652D01*
X77378533Y-136098557D01*
X77435147Y-136081384D01*
X77548373Y-136047037D01*
X77614558Y-136040518D01*
X77680740Y-136034000D01*
X77769260Y-136034000D01*
X77835442Y-136040518D01*
X77835442Y-136040518D01*
G37*
G36*
X75295442Y-136040518D02*
X75361627Y-136047037D01*
X75474853Y-136081384D01*
X75531467Y-136098557D01*
X75670087Y-136172652D01*
X75687991Y-136182222D01*
X75723729Y-136211552D01*
X75825186Y-136294814D01*
X75908448Y-136396271D01*
X75937778Y-136432009D01*
X75937779Y-136432011D01*
X76021443Y-136588533D01*
X76021443Y-136588534D01*
X76072963Y-136758373D01*
X76090359Y-136935000D01*
X76072963Y-137111627D01*
X76038616Y-137224853D01*
X76021443Y-137281467D01*
X75947348Y-137420087D01*
X75937778Y-137437991D01*
X75908448Y-137473729D01*
X75825186Y-137575186D01*
X75723729Y-137658448D01*
X75687991Y-137687778D01*
X75687989Y-137687779D01*
X75531467Y-137771443D01*
X75474853Y-137788616D01*
X75361627Y-137822963D01*
X75295443Y-137829481D01*
X75229260Y-137836000D01*
X75140740Y-137836000D01*
X75074557Y-137829481D01*
X75008373Y-137822963D01*
X74895147Y-137788616D01*
X74838533Y-137771443D01*
X74682011Y-137687779D01*
X74682009Y-137687778D01*
X74646271Y-137658448D01*
X74544814Y-137575186D01*
X74461552Y-137473729D01*
X74432222Y-137437991D01*
X74422652Y-137420087D01*
X74348557Y-137281467D01*
X74331384Y-137224853D01*
X74297037Y-137111627D01*
X74279641Y-136935000D01*
X74297037Y-136758373D01*
X74348557Y-136588534D01*
X74348557Y-136588533D01*
X74432221Y-136432011D01*
X74432222Y-136432009D01*
X74461552Y-136396271D01*
X74544814Y-136294814D01*
X74646271Y-136211552D01*
X74682009Y-136182222D01*
X74699913Y-136172652D01*
X74838533Y-136098557D01*
X74895147Y-136081384D01*
X75008373Y-136047037D01*
X75074558Y-136040518D01*
X75140740Y-136034000D01*
X75229260Y-136034000D01*
X75295442Y-136040518D01*
X75295442Y-136040518D01*
G37*
G36*
X128906000Y-116946000D02*
X126874000Y-116946000D01*
X126874000Y-115014000D01*
X128906000Y-115014000D01*
X128906000Y-116946000D01*
X128906000Y-116946000D01*
G37*
G36*
X111126000Y-116946000D02*
X109094000Y-116946000D01*
X109094000Y-115014000D01*
X111126000Y-115014000D01*
X111126000Y-116946000D01*
X111126000Y-116946000D01*
G37*
G36*
X146686000Y-116946000D02*
X144654000Y-116946000D01*
X144654000Y-115014000D01*
X146686000Y-115014000D01*
X146686000Y-116946000D01*
X146686000Y-116946000D01*
G37*
G36*
X93346000Y-116946000D02*
X91314000Y-116946000D01*
X91314000Y-115014000D01*
X93346000Y-115014000D01*
X93346000Y-116946000D01*
X93346000Y-116946000D01*
G37*
G36*
X164466000Y-116946000D02*
X162434000Y-116946000D01*
X162434000Y-115014000D01*
X164466000Y-115014000D01*
X164466000Y-116946000D01*
X164466000Y-116946000D01*
G37*
G36*
X200026000Y-116946000D02*
X197994000Y-116946000D01*
X197994000Y-115014000D01*
X200026000Y-115014000D01*
X200026000Y-116946000D01*
X200026000Y-116946000D01*
G37*
G36*
X75566000Y-116946000D02*
X73534000Y-116946000D01*
X73534000Y-115014000D01*
X75566000Y-115014000D01*
X75566000Y-116946000D01*
X75566000Y-116946000D01*
G37*
G36*
X182246000Y-116946000D02*
X180214000Y-116946000D01*
X180214000Y-115014000D01*
X182246000Y-115014000D01*
X182246000Y-116946000D01*
X182246000Y-116946000D01*
G37*
G36*
X74803655Y-111792591D02*
X74875525Y-111806887D01*
X75078624Y-111891013D01*
X75261412Y-112013148D01*
X75416852Y-112168588D01*
X75538987Y-112351376D01*
X75623113Y-112554476D01*
X75666000Y-112770082D01*
X75666000Y-112989918D01*
X75623113Y-113205524D01*
X75538987Y-113408624D01*
X75416852Y-113591412D01*
X75261412Y-113746852D01*
X75261409Y-113746854D01*
X75078624Y-113868987D01*
X74875525Y-113953113D01*
X74803655Y-113967409D01*
X74659918Y-113996000D01*
X74440082Y-113996000D01*
X74296345Y-113967409D01*
X74224475Y-113953113D01*
X74021376Y-113868987D01*
X73838591Y-113746854D01*
X73838588Y-113746852D01*
X73683148Y-113591412D01*
X73561013Y-113408624D01*
X73476887Y-113205524D01*
X73434000Y-112989918D01*
X73434000Y-112770082D01*
X73476887Y-112554476D01*
X73561013Y-112351376D01*
X73683148Y-112168588D01*
X73838588Y-112013148D01*
X74021376Y-111891013D01*
X74224475Y-111806887D01*
X74296345Y-111792591D01*
X74440082Y-111764000D01*
X74659918Y-111764000D01*
X74803655Y-111792591D01*
X74803655Y-111792591D01*
G37*
G36*
X92583655Y-111792591D02*
X92655525Y-111806887D01*
X92858624Y-111891013D01*
X93041412Y-112013148D01*
X93196852Y-112168588D01*
X93318987Y-112351376D01*
X93403113Y-112554476D01*
X93446000Y-112770082D01*
X93446000Y-112989918D01*
X93403113Y-113205524D01*
X93318987Y-113408624D01*
X93196852Y-113591412D01*
X93041412Y-113746852D01*
X93041409Y-113746854D01*
X92858624Y-113868987D01*
X92655525Y-113953113D01*
X92583655Y-113967409D01*
X92439918Y-113996000D01*
X92220082Y-113996000D01*
X92076345Y-113967409D01*
X92004475Y-113953113D01*
X91801376Y-113868987D01*
X91618591Y-113746854D01*
X91618588Y-113746852D01*
X91463148Y-113591412D01*
X91341013Y-113408624D01*
X91256887Y-113205524D01*
X91214000Y-112989918D01*
X91214000Y-112770082D01*
X91256887Y-112554476D01*
X91341013Y-112351376D01*
X91463148Y-112168588D01*
X91618588Y-112013148D01*
X91801376Y-111891013D01*
X92004475Y-111806887D01*
X92076345Y-111792591D01*
X92220082Y-111764000D01*
X92439918Y-111764000D01*
X92583655Y-111792591D01*
X92583655Y-111792591D01*
G37*
G36*
X110363655Y-111792591D02*
X110435525Y-111806887D01*
X110638624Y-111891013D01*
X110821412Y-112013148D01*
X110976852Y-112168588D01*
X111098987Y-112351376D01*
X111183113Y-112554476D01*
X111226000Y-112770082D01*
X111226000Y-112989918D01*
X111183113Y-113205524D01*
X111098987Y-113408624D01*
X110976852Y-113591412D01*
X110821412Y-113746852D01*
X110821409Y-113746854D01*
X110638624Y-113868987D01*
X110435525Y-113953113D01*
X110363655Y-113967409D01*
X110219918Y-113996000D01*
X110000082Y-113996000D01*
X109856345Y-113967409D01*
X109784475Y-113953113D01*
X109581376Y-113868987D01*
X109398591Y-113746854D01*
X109398588Y-113746852D01*
X109243148Y-113591412D01*
X109121013Y-113408624D01*
X109036887Y-113205524D01*
X108994000Y-112989918D01*
X108994000Y-112770082D01*
X109036887Y-112554476D01*
X109121013Y-112351376D01*
X109243148Y-112168588D01*
X109398588Y-112013148D01*
X109581376Y-111891013D01*
X109784475Y-111806887D01*
X109856345Y-111792591D01*
X110000082Y-111764000D01*
X110219918Y-111764000D01*
X110363655Y-111792591D01*
X110363655Y-111792591D01*
G37*
G36*
X128143655Y-111792591D02*
X128215525Y-111806887D01*
X128418624Y-111891013D01*
X128601412Y-112013148D01*
X128756852Y-112168588D01*
X128878987Y-112351376D01*
X128963113Y-112554476D01*
X129006000Y-112770082D01*
X129006000Y-112989918D01*
X128963113Y-113205524D01*
X128878987Y-113408624D01*
X128756852Y-113591412D01*
X128601412Y-113746852D01*
X128601409Y-113746854D01*
X128418624Y-113868987D01*
X128215525Y-113953113D01*
X128143655Y-113967409D01*
X127999918Y-113996000D01*
X127780082Y-113996000D01*
X127636345Y-113967409D01*
X127564475Y-113953113D01*
X127361376Y-113868987D01*
X127178591Y-113746854D01*
X127178588Y-113746852D01*
X127023148Y-113591412D01*
X126901013Y-113408624D01*
X126816887Y-113205524D01*
X126774000Y-112989918D01*
X126774000Y-112770082D01*
X126816887Y-112554476D01*
X126901013Y-112351376D01*
X127023148Y-112168588D01*
X127178588Y-112013148D01*
X127361376Y-111891013D01*
X127564475Y-111806887D01*
X127636345Y-111792591D01*
X127780082Y-111764000D01*
X127999918Y-111764000D01*
X128143655Y-111792591D01*
X128143655Y-111792591D01*
G37*
G36*
X145923655Y-111792591D02*
X145995525Y-111806887D01*
X146198624Y-111891013D01*
X146381412Y-112013148D01*
X146536852Y-112168588D01*
X146658987Y-112351376D01*
X146743113Y-112554476D01*
X146786000Y-112770082D01*
X146786000Y-112989918D01*
X146743113Y-113205524D01*
X146658987Y-113408624D01*
X146536852Y-113591412D01*
X146381412Y-113746852D01*
X146381409Y-113746854D01*
X146198624Y-113868987D01*
X145995525Y-113953113D01*
X145923655Y-113967409D01*
X145779918Y-113996000D01*
X145560082Y-113996000D01*
X145416345Y-113967409D01*
X145344475Y-113953113D01*
X145141376Y-113868987D01*
X144958591Y-113746854D01*
X144958588Y-113746852D01*
X144803148Y-113591412D01*
X144681013Y-113408624D01*
X144596887Y-113205524D01*
X144554000Y-112989918D01*
X144554000Y-112770082D01*
X144596887Y-112554476D01*
X144681013Y-112351376D01*
X144803148Y-112168588D01*
X144958588Y-112013148D01*
X145141376Y-111891013D01*
X145344475Y-111806887D01*
X145416345Y-111792591D01*
X145560082Y-111764000D01*
X145779918Y-111764000D01*
X145923655Y-111792591D01*
X145923655Y-111792591D01*
G37*
G36*
X163703655Y-111792591D02*
X163775525Y-111806887D01*
X163978624Y-111891013D01*
X164161412Y-112013148D01*
X164316852Y-112168588D01*
X164438987Y-112351376D01*
X164523113Y-112554476D01*
X164566000Y-112770082D01*
X164566000Y-112989918D01*
X164523113Y-113205524D01*
X164438987Y-113408624D01*
X164316852Y-113591412D01*
X164161412Y-113746852D01*
X164161409Y-113746854D01*
X163978624Y-113868987D01*
X163775525Y-113953113D01*
X163703655Y-113967409D01*
X163559918Y-113996000D01*
X163340082Y-113996000D01*
X163196345Y-113967409D01*
X163124475Y-113953113D01*
X162921376Y-113868987D01*
X162738591Y-113746854D01*
X162738588Y-113746852D01*
X162583148Y-113591412D01*
X162461013Y-113408624D01*
X162376887Y-113205524D01*
X162334000Y-112989918D01*
X162334000Y-112770082D01*
X162376887Y-112554476D01*
X162461013Y-112351376D01*
X162583148Y-112168588D01*
X162738588Y-112013148D01*
X162921376Y-111891013D01*
X163124475Y-111806887D01*
X163196345Y-111792591D01*
X163340082Y-111764000D01*
X163559918Y-111764000D01*
X163703655Y-111792591D01*
X163703655Y-111792591D01*
G37*
G36*
X181483655Y-111792591D02*
X181555525Y-111806887D01*
X181758624Y-111891013D01*
X181941412Y-112013148D01*
X182096852Y-112168588D01*
X182218987Y-112351376D01*
X182303113Y-112554476D01*
X182346000Y-112770082D01*
X182346000Y-112989918D01*
X182303113Y-113205524D01*
X182218987Y-113408624D01*
X182096852Y-113591412D01*
X181941412Y-113746852D01*
X181941409Y-113746854D01*
X181758624Y-113868987D01*
X181555525Y-113953113D01*
X181483655Y-113967409D01*
X181339918Y-113996000D01*
X181120082Y-113996000D01*
X180976345Y-113967409D01*
X180904475Y-113953113D01*
X180701376Y-113868987D01*
X180518591Y-113746854D01*
X180518588Y-113746852D01*
X180363148Y-113591412D01*
X180241013Y-113408624D01*
X180156887Y-113205524D01*
X180114000Y-112989918D01*
X180114000Y-112770082D01*
X180156887Y-112554476D01*
X180241013Y-112351376D01*
X180363148Y-112168588D01*
X180518588Y-112013148D01*
X180701376Y-111891013D01*
X180904475Y-111806887D01*
X180976345Y-111792591D01*
X181120082Y-111764000D01*
X181339918Y-111764000D01*
X181483655Y-111792591D01*
X181483655Y-111792591D01*
G37*
G36*
X199263655Y-111792591D02*
X199335525Y-111806887D01*
X199538624Y-111891013D01*
X199721412Y-112013148D01*
X199876852Y-112168588D01*
X199998987Y-112351376D01*
X200083113Y-112554476D01*
X200126000Y-112770082D01*
X200126000Y-112989918D01*
X200083113Y-113205524D01*
X199998987Y-113408624D01*
X199876852Y-113591412D01*
X199721412Y-113746852D01*
X199721409Y-113746854D01*
X199538624Y-113868987D01*
X199335525Y-113953113D01*
X199263655Y-113967409D01*
X199119918Y-113996000D01*
X198900082Y-113996000D01*
X198756345Y-113967409D01*
X198684475Y-113953113D01*
X198481376Y-113868987D01*
X198298591Y-113746854D01*
X198298588Y-113746852D01*
X198143148Y-113591412D01*
X198021013Y-113408624D01*
X197936887Y-113205524D01*
X197894000Y-112989918D01*
X197894000Y-112770082D01*
X197936887Y-112554476D01*
X198021013Y-112351376D01*
X198143148Y-112168588D01*
X198298588Y-112013148D01*
X198481376Y-111891013D01*
X198684475Y-111806887D01*
X198756345Y-111792591D01*
X198900082Y-111764000D01*
X199119918Y-111764000D01*
X199263655Y-111792591D01*
X199263655Y-111792591D01*
G37*
G36*
X199263655Y-103492591D02*
X199335525Y-103506887D01*
X199538624Y-103591013D01*
X199721412Y-103713148D01*
X199876852Y-103868588D01*
X199998987Y-104051376D01*
X200083113Y-104254476D01*
X200126000Y-104470082D01*
X200126000Y-104689918D01*
X200083113Y-104905524D01*
X199998987Y-105108624D01*
X199876852Y-105291412D01*
X199721412Y-105446852D01*
X199721409Y-105446854D01*
X199538624Y-105568987D01*
X199335525Y-105653113D01*
X199263655Y-105667409D01*
X199119918Y-105696000D01*
X198900082Y-105696000D01*
X198756345Y-105667409D01*
X198684475Y-105653113D01*
X198481376Y-105568987D01*
X198298591Y-105446854D01*
X198298588Y-105446852D01*
X198143148Y-105291412D01*
X198021013Y-105108624D01*
X197936887Y-104905524D01*
X197894000Y-104689918D01*
X197894000Y-104470082D01*
X197936887Y-104254476D01*
X198021013Y-104051376D01*
X198143148Y-103868588D01*
X198298588Y-103713148D01*
X198481376Y-103591013D01*
X198684475Y-103506887D01*
X198756345Y-103492591D01*
X198900082Y-103464000D01*
X199119918Y-103464000D01*
X199263655Y-103492591D01*
X199263655Y-103492591D01*
G37*
G36*
X181483655Y-103492591D02*
X181555525Y-103506887D01*
X181758624Y-103591013D01*
X181941412Y-103713148D01*
X182096852Y-103868588D01*
X182218987Y-104051376D01*
X182303113Y-104254476D01*
X182346000Y-104470082D01*
X182346000Y-104689918D01*
X182303113Y-104905524D01*
X182218987Y-105108624D01*
X182096852Y-105291412D01*
X181941412Y-105446852D01*
X181941409Y-105446854D01*
X181758624Y-105568987D01*
X181555525Y-105653113D01*
X181483655Y-105667409D01*
X181339918Y-105696000D01*
X181120082Y-105696000D01*
X180976345Y-105667409D01*
X180904475Y-105653113D01*
X180701376Y-105568987D01*
X180518591Y-105446854D01*
X180518588Y-105446852D01*
X180363148Y-105291412D01*
X180241013Y-105108624D01*
X180156887Y-104905524D01*
X180114000Y-104689918D01*
X180114000Y-104470082D01*
X180156887Y-104254476D01*
X180241013Y-104051376D01*
X180363148Y-103868588D01*
X180518588Y-103713148D01*
X180701376Y-103591013D01*
X180904475Y-103506887D01*
X180976345Y-103492591D01*
X181120082Y-103464000D01*
X181339918Y-103464000D01*
X181483655Y-103492591D01*
X181483655Y-103492591D01*
G37*
G36*
X163703655Y-103492591D02*
X163775525Y-103506887D01*
X163978624Y-103591013D01*
X164161412Y-103713148D01*
X164316852Y-103868588D01*
X164438987Y-104051376D01*
X164523113Y-104254476D01*
X164566000Y-104470082D01*
X164566000Y-104689918D01*
X164523113Y-104905524D01*
X164438987Y-105108624D01*
X164316852Y-105291412D01*
X164161412Y-105446852D01*
X164161409Y-105446854D01*
X163978624Y-105568987D01*
X163775525Y-105653113D01*
X163703655Y-105667409D01*
X163559918Y-105696000D01*
X163340082Y-105696000D01*
X163196345Y-105667409D01*
X163124475Y-105653113D01*
X162921376Y-105568987D01*
X162738591Y-105446854D01*
X162738588Y-105446852D01*
X162583148Y-105291412D01*
X162461013Y-105108624D01*
X162376887Y-104905524D01*
X162334000Y-104689918D01*
X162334000Y-104470082D01*
X162376887Y-104254476D01*
X162461013Y-104051376D01*
X162583148Y-103868588D01*
X162738588Y-103713148D01*
X162921376Y-103591013D01*
X163124475Y-103506887D01*
X163196345Y-103492591D01*
X163340082Y-103464000D01*
X163559918Y-103464000D01*
X163703655Y-103492591D01*
X163703655Y-103492591D01*
G37*
G36*
X145923655Y-103492591D02*
X145995525Y-103506887D01*
X146198624Y-103591013D01*
X146381412Y-103713148D01*
X146536852Y-103868588D01*
X146658987Y-104051376D01*
X146743113Y-104254476D01*
X146786000Y-104470082D01*
X146786000Y-104689918D01*
X146743113Y-104905524D01*
X146658987Y-105108624D01*
X146536852Y-105291412D01*
X146381412Y-105446852D01*
X146381409Y-105446854D01*
X146198624Y-105568987D01*
X145995525Y-105653113D01*
X145923655Y-105667409D01*
X145779918Y-105696000D01*
X145560082Y-105696000D01*
X145416345Y-105667409D01*
X145344475Y-105653113D01*
X145141376Y-105568987D01*
X144958591Y-105446854D01*
X144958588Y-105446852D01*
X144803148Y-105291412D01*
X144681013Y-105108624D01*
X144596887Y-104905524D01*
X144554000Y-104689918D01*
X144554000Y-104470082D01*
X144596887Y-104254476D01*
X144681013Y-104051376D01*
X144803148Y-103868588D01*
X144958588Y-103713148D01*
X145141376Y-103591013D01*
X145344475Y-103506887D01*
X145416345Y-103492591D01*
X145560082Y-103464000D01*
X145779918Y-103464000D01*
X145923655Y-103492591D01*
X145923655Y-103492591D01*
G37*
G36*
X128143655Y-103492591D02*
X128215525Y-103506887D01*
X128418624Y-103591013D01*
X128601412Y-103713148D01*
X128756852Y-103868588D01*
X128878987Y-104051376D01*
X128963113Y-104254476D01*
X129006000Y-104470082D01*
X129006000Y-104689918D01*
X128963113Y-104905524D01*
X128878987Y-105108624D01*
X128756852Y-105291412D01*
X128601412Y-105446852D01*
X128601409Y-105446854D01*
X128418624Y-105568987D01*
X128215525Y-105653113D01*
X128143655Y-105667409D01*
X127999918Y-105696000D01*
X127780082Y-105696000D01*
X127636345Y-105667409D01*
X127564475Y-105653113D01*
X127361376Y-105568987D01*
X127178591Y-105446854D01*
X127178588Y-105446852D01*
X127023148Y-105291412D01*
X126901013Y-105108624D01*
X126816887Y-104905524D01*
X126774000Y-104689918D01*
X126774000Y-104470082D01*
X126816887Y-104254476D01*
X126901013Y-104051376D01*
X127023148Y-103868588D01*
X127178588Y-103713148D01*
X127361376Y-103591013D01*
X127564475Y-103506887D01*
X127636345Y-103492591D01*
X127780082Y-103464000D01*
X127999918Y-103464000D01*
X128143655Y-103492591D01*
X128143655Y-103492591D01*
G37*
G36*
X110363655Y-103492591D02*
X110435525Y-103506887D01*
X110638624Y-103591013D01*
X110821412Y-103713148D01*
X110976852Y-103868588D01*
X111098987Y-104051376D01*
X111183113Y-104254476D01*
X111226000Y-104470082D01*
X111226000Y-104689918D01*
X111183113Y-104905524D01*
X111098987Y-105108624D01*
X110976852Y-105291412D01*
X110821412Y-105446852D01*
X110821409Y-105446854D01*
X110638624Y-105568987D01*
X110435525Y-105653113D01*
X110363655Y-105667409D01*
X110219918Y-105696000D01*
X110000082Y-105696000D01*
X109856345Y-105667409D01*
X109784475Y-105653113D01*
X109581376Y-105568987D01*
X109398591Y-105446854D01*
X109398588Y-105446852D01*
X109243148Y-105291412D01*
X109121013Y-105108624D01*
X109036887Y-104905524D01*
X108994000Y-104689918D01*
X108994000Y-104470082D01*
X109036887Y-104254476D01*
X109121013Y-104051376D01*
X109243148Y-103868588D01*
X109398588Y-103713148D01*
X109581376Y-103591013D01*
X109784475Y-103506887D01*
X109856345Y-103492591D01*
X110000082Y-103464000D01*
X110219918Y-103464000D01*
X110363655Y-103492591D01*
X110363655Y-103492591D01*
G37*
G36*
X92583655Y-103492591D02*
X92655525Y-103506887D01*
X92858624Y-103591013D01*
X93041412Y-103713148D01*
X93196852Y-103868588D01*
X93318987Y-104051376D01*
X93403113Y-104254476D01*
X93446000Y-104470082D01*
X93446000Y-104689918D01*
X93403113Y-104905524D01*
X93318987Y-105108624D01*
X93196852Y-105291412D01*
X93041412Y-105446852D01*
X93041409Y-105446854D01*
X92858624Y-105568987D01*
X92655525Y-105653113D01*
X92583655Y-105667409D01*
X92439918Y-105696000D01*
X92220082Y-105696000D01*
X92076345Y-105667409D01*
X92004475Y-105653113D01*
X91801376Y-105568987D01*
X91618591Y-105446854D01*
X91618588Y-105446852D01*
X91463148Y-105291412D01*
X91341013Y-105108624D01*
X91256887Y-104905524D01*
X91214000Y-104689918D01*
X91214000Y-104470082D01*
X91256887Y-104254476D01*
X91341013Y-104051376D01*
X91463148Y-103868588D01*
X91618588Y-103713148D01*
X91801376Y-103591013D01*
X92004475Y-103506887D01*
X92076345Y-103492591D01*
X92220082Y-103464000D01*
X92439918Y-103464000D01*
X92583655Y-103492591D01*
X92583655Y-103492591D01*
G37*
G36*
X74803655Y-103492591D02*
X74875525Y-103506887D01*
X75078624Y-103591013D01*
X75261412Y-103713148D01*
X75416852Y-103868588D01*
X75538987Y-104051376D01*
X75623113Y-104254476D01*
X75666000Y-104470082D01*
X75666000Y-104689918D01*
X75623113Y-104905524D01*
X75538987Y-105108624D01*
X75416852Y-105291412D01*
X75261412Y-105446852D01*
X75261409Y-105446854D01*
X75078624Y-105568987D01*
X74875525Y-105653113D01*
X74803655Y-105667409D01*
X74659918Y-105696000D01*
X74440082Y-105696000D01*
X74296345Y-105667409D01*
X74224475Y-105653113D01*
X74021376Y-105568987D01*
X73838591Y-105446854D01*
X73838588Y-105446852D01*
X73683148Y-105291412D01*
X73561013Y-105108624D01*
X73476887Y-104905524D01*
X73434000Y-104689918D01*
X73434000Y-104470082D01*
X73476887Y-104254476D01*
X73561013Y-104051376D01*
X73683148Y-103868588D01*
X73838588Y-103713148D01*
X74021376Y-103591013D01*
X74224475Y-103506887D01*
X74296345Y-103492591D01*
X74440082Y-103464000D01*
X74659918Y-103464000D01*
X74803655Y-103492591D01*
X74803655Y-103492591D01*
G37*
G36*
X201787396Y-99825546D02*
X201960466Y-99897234D01*
X202116230Y-100001312D01*
X202248688Y-100133770D01*
X202352766Y-100289534D01*
X202424454Y-100462604D01*
X202461000Y-100646333D01*
X202461000Y-100833667D01*
X202424454Y-101017396D01*
X202352766Y-101190466D01*
X202248688Y-101346230D01*
X202116230Y-101478688D01*
X201960466Y-101582766D01*
X201787396Y-101654454D01*
X201603667Y-101691000D01*
X201416333Y-101691000D01*
X201232604Y-101654454D01*
X201059534Y-101582766D01*
X200903770Y-101478688D01*
X200771312Y-101346230D01*
X200667234Y-101190466D01*
X200595546Y-101017396D01*
X200559000Y-100833667D01*
X200559000Y-100646333D01*
X200595546Y-100462604D01*
X200667234Y-100289534D01*
X200771312Y-100133770D01*
X200903770Y-100001312D01*
X201059534Y-99897234D01*
X201232604Y-99825546D01*
X201416333Y-99789000D01*
X201603667Y-99789000D01*
X201787396Y-99825546D01*
X201787396Y-99825546D01*
G37*
G36*
X74827396Y-99825546D02*
X75000466Y-99897234D01*
X75156230Y-100001312D01*
X75288688Y-100133770D01*
X75392766Y-100289534D01*
X75464454Y-100462604D01*
X75501000Y-100646333D01*
X75501000Y-100833667D01*
X75464454Y-101017396D01*
X75392766Y-101190466D01*
X75288688Y-101346230D01*
X75156230Y-101478688D01*
X75000466Y-101582766D01*
X74827396Y-101654454D01*
X74643667Y-101691000D01*
X74456333Y-101691000D01*
X74272604Y-101654454D01*
X74099534Y-101582766D01*
X73943770Y-101478688D01*
X73811312Y-101346230D01*
X73707234Y-101190466D01*
X73635546Y-101017396D01*
X73599000Y-100833667D01*
X73599000Y-100646333D01*
X73635546Y-100462604D01*
X73707234Y-100289534D01*
X73811312Y-100133770D01*
X73943770Y-100001312D01*
X74099534Y-99897234D01*
X74272604Y-99825546D01*
X74456333Y-99789000D01*
X74643667Y-99789000D01*
X74827396Y-99825546D01*
X74827396Y-99825546D01*
G37*
G36*
X77327396Y-99825546D02*
X77500466Y-99897234D01*
X77656230Y-100001312D01*
X77788688Y-100133770D01*
X77892766Y-100289534D01*
X77964454Y-100462604D01*
X78001000Y-100646333D01*
X78001000Y-100833667D01*
X77964454Y-101017396D01*
X77892766Y-101190466D01*
X77788688Y-101346230D01*
X77656230Y-101478688D01*
X77500466Y-101582766D01*
X77327396Y-101654454D01*
X77143667Y-101691000D01*
X76956333Y-101691000D01*
X76772604Y-101654454D01*
X76599534Y-101582766D01*
X76443770Y-101478688D01*
X76311312Y-101346230D01*
X76207234Y-101190466D01*
X76135546Y-101017396D01*
X76099000Y-100833667D01*
X76099000Y-100646333D01*
X76135546Y-100462604D01*
X76207234Y-100289534D01*
X76311312Y-100133770D01*
X76443770Y-100001312D01*
X76599534Y-99897234D01*
X76772604Y-99825546D01*
X76956333Y-99789000D01*
X77143667Y-99789000D01*
X77327396Y-99825546D01*
X77327396Y-99825546D01*
G37*
G36*
X95107396Y-99825546D02*
X95280466Y-99897234D01*
X95436230Y-100001312D01*
X95568688Y-100133770D01*
X95672766Y-100289534D01*
X95744454Y-100462604D01*
X95781000Y-100646333D01*
X95781000Y-100833667D01*
X95744454Y-101017396D01*
X95672766Y-101190466D01*
X95568688Y-101346230D01*
X95436230Y-101478688D01*
X95280466Y-101582766D01*
X95107396Y-101654454D01*
X94923667Y-101691000D01*
X94736333Y-101691000D01*
X94552604Y-101654454D01*
X94379534Y-101582766D01*
X94223770Y-101478688D01*
X94091312Y-101346230D01*
X93987234Y-101190466D01*
X93915546Y-101017396D01*
X93879000Y-100833667D01*
X93879000Y-100646333D01*
X93915546Y-100462604D01*
X93987234Y-100289534D01*
X94091312Y-100133770D01*
X94223770Y-100001312D01*
X94379534Y-99897234D01*
X94552604Y-99825546D01*
X94736333Y-99789000D01*
X94923667Y-99789000D01*
X95107396Y-99825546D01*
X95107396Y-99825546D01*
G37*
G36*
X199287396Y-99825546D02*
X199460466Y-99897234D01*
X199616230Y-100001312D01*
X199748688Y-100133770D01*
X199852766Y-100289534D01*
X199924454Y-100462604D01*
X199961000Y-100646333D01*
X199961000Y-100833667D01*
X199924454Y-101017396D01*
X199852766Y-101190466D01*
X199748688Y-101346230D01*
X199616230Y-101478688D01*
X199460466Y-101582766D01*
X199287396Y-101654454D01*
X199103667Y-101691000D01*
X198916333Y-101691000D01*
X198732604Y-101654454D01*
X198559534Y-101582766D01*
X198403770Y-101478688D01*
X198271312Y-101346230D01*
X198167234Y-101190466D01*
X198095546Y-101017396D01*
X198059000Y-100833667D01*
X198059000Y-100646333D01*
X198095546Y-100462604D01*
X198167234Y-100289534D01*
X198271312Y-100133770D01*
X198403770Y-100001312D01*
X198559534Y-99897234D01*
X198732604Y-99825546D01*
X198916333Y-99789000D01*
X199103667Y-99789000D01*
X199287396Y-99825546D01*
X199287396Y-99825546D01*
G37*
G36*
X197461000Y-101691000D02*
X195559000Y-101691000D01*
X195559000Y-99789000D01*
X197461000Y-99789000D01*
X197461000Y-101691000D01*
X197461000Y-101691000D01*
G37*
G36*
X184007396Y-99825546D02*
X184180466Y-99897234D01*
X184336230Y-100001312D01*
X184468688Y-100133770D01*
X184572766Y-100289534D01*
X184644454Y-100462604D01*
X184681000Y-100646333D01*
X184681000Y-100833667D01*
X184644454Y-101017396D01*
X184572766Y-101190466D01*
X184468688Y-101346230D01*
X184336230Y-101478688D01*
X184180466Y-101582766D01*
X184007396Y-101654454D01*
X183823667Y-101691000D01*
X183636333Y-101691000D01*
X183452604Y-101654454D01*
X183279534Y-101582766D01*
X183123770Y-101478688D01*
X182991312Y-101346230D01*
X182887234Y-101190466D01*
X182815546Y-101017396D01*
X182779000Y-100833667D01*
X182779000Y-100646333D01*
X182815546Y-100462604D01*
X182887234Y-100289534D01*
X182991312Y-100133770D01*
X183123770Y-100001312D01*
X183279534Y-99897234D01*
X183452604Y-99825546D01*
X183636333Y-99789000D01*
X183823667Y-99789000D01*
X184007396Y-99825546D01*
X184007396Y-99825546D01*
G37*
G36*
X181507396Y-99825546D02*
X181680466Y-99897234D01*
X181836230Y-100001312D01*
X181968688Y-100133770D01*
X182072766Y-100289534D01*
X182144454Y-100462604D01*
X182181000Y-100646333D01*
X182181000Y-100833667D01*
X182144454Y-101017396D01*
X182072766Y-101190466D01*
X181968688Y-101346230D01*
X181836230Y-101478688D01*
X181680466Y-101582766D01*
X181507396Y-101654454D01*
X181323667Y-101691000D01*
X181136333Y-101691000D01*
X180952604Y-101654454D01*
X180779534Y-101582766D01*
X180623770Y-101478688D01*
X180491312Y-101346230D01*
X180387234Y-101190466D01*
X180315546Y-101017396D01*
X180279000Y-100833667D01*
X180279000Y-100646333D01*
X180315546Y-100462604D01*
X180387234Y-100289534D01*
X180491312Y-100133770D01*
X180623770Y-100001312D01*
X180779534Y-99897234D01*
X180952604Y-99825546D01*
X181136333Y-99789000D01*
X181323667Y-99789000D01*
X181507396Y-99825546D01*
X181507396Y-99825546D01*
G37*
G36*
X73001000Y-101691000D02*
X71099000Y-101691000D01*
X71099000Y-99789000D01*
X73001000Y-99789000D01*
X73001000Y-101691000D01*
X73001000Y-101691000D01*
G37*
G36*
X179681000Y-101691000D02*
X177779000Y-101691000D01*
X177779000Y-99789000D01*
X179681000Y-99789000D01*
X179681000Y-101691000D01*
X179681000Y-101691000D01*
G37*
G36*
X166227396Y-99825546D02*
X166400466Y-99897234D01*
X166556230Y-100001312D01*
X166688688Y-100133770D01*
X166792766Y-100289534D01*
X166864454Y-100462604D01*
X166901000Y-100646333D01*
X166901000Y-100833667D01*
X166864454Y-101017396D01*
X166792766Y-101190466D01*
X166688688Y-101346230D01*
X166556230Y-101478688D01*
X166400466Y-101582766D01*
X166227396Y-101654454D01*
X166043667Y-101691000D01*
X165856333Y-101691000D01*
X165672604Y-101654454D01*
X165499534Y-101582766D01*
X165343770Y-101478688D01*
X165211312Y-101346230D01*
X165107234Y-101190466D01*
X165035546Y-101017396D01*
X164999000Y-100833667D01*
X164999000Y-100646333D01*
X165035546Y-100462604D01*
X165107234Y-100289534D01*
X165211312Y-100133770D01*
X165343770Y-100001312D01*
X165499534Y-99897234D01*
X165672604Y-99825546D01*
X165856333Y-99789000D01*
X166043667Y-99789000D01*
X166227396Y-99825546D01*
X166227396Y-99825546D01*
G37*
G36*
X163727396Y-99825546D02*
X163900466Y-99897234D01*
X164056230Y-100001312D01*
X164188688Y-100133770D01*
X164292766Y-100289534D01*
X164364454Y-100462604D01*
X164401000Y-100646333D01*
X164401000Y-100833667D01*
X164364454Y-101017396D01*
X164292766Y-101190466D01*
X164188688Y-101346230D01*
X164056230Y-101478688D01*
X163900466Y-101582766D01*
X163727396Y-101654454D01*
X163543667Y-101691000D01*
X163356333Y-101691000D01*
X163172604Y-101654454D01*
X162999534Y-101582766D01*
X162843770Y-101478688D01*
X162711312Y-101346230D01*
X162607234Y-101190466D01*
X162535546Y-101017396D01*
X162499000Y-100833667D01*
X162499000Y-100646333D01*
X162535546Y-100462604D01*
X162607234Y-100289534D01*
X162711312Y-100133770D01*
X162843770Y-100001312D01*
X162999534Y-99897234D01*
X163172604Y-99825546D01*
X163356333Y-99789000D01*
X163543667Y-99789000D01*
X163727396Y-99825546D01*
X163727396Y-99825546D01*
G37*
G36*
X161901000Y-101691000D02*
X159999000Y-101691000D01*
X159999000Y-99789000D01*
X161901000Y-99789000D01*
X161901000Y-101691000D01*
X161901000Y-101691000D01*
G37*
G36*
X144121000Y-101691000D02*
X142219000Y-101691000D01*
X142219000Y-99789000D01*
X144121000Y-99789000D01*
X144121000Y-101691000D01*
X144121000Y-101691000D01*
G37*
G36*
X145947396Y-99825546D02*
X146120466Y-99897234D01*
X146276230Y-100001312D01*
X146408688Y-100133770D01*
X146512766Y-100289534D01*
X146584454Y-100462604D01*
X146621000Y-100646333D01*
X146621000Y-100833667D01*
X146584454Y-101017396D01*
X146512766Y-101190466D01*
X146408688Y-101346230D01*
X146276230Y-101478688D01*
X146120466Y-101582766D01*
X145947396Y-101654454D01*
X145763667Y-101691000D01*
X145576333Y-101691000D01*
X145392604Y-101654454D01*
X145219534Y-101582766D01*
X145063770Y-101478688D01*
X144931312Y-101346230D01*
X144827234Y-101190466D01*
X144755546Y-101017396D01*
X144719000Y-100833667D01*
X144719000Y-100646333D01*
X144755546Y-100462604D01*
X144827234Y-100289534D01*
X144931312Y-100133770D01*
X145063770Y-100001312D01*
X145219534Y-99897234D01*
X145392604Y-99825546D01*
X145576333Y-99789000D01*
X145763667Y-99789000D01*
X145947396Y-99825546D01*
X145947396Y-99825546D01*
G37*
G36*
X148447396Y-99825546D02*
X148620466Y-99897234D01*
X148776230Y-100001312D01*
X148908688Y-100133770D01*
X149012766Y-100289534D01*
X149084454Y-100462604D01*
X149121000Y-100646333D01*
X149121000Y-100833667D01*
X149084454Y-101017396D01*
X149012766Y-101190466D01*
X148908688Y-101346230D01*
X148776230Y-101478688D01*
X148620466Y-101582766D01*
X148447396Y-101654454D01*
X148263667Y-101691000D01*
X148076333Y-101691000D01*
X147892604Y-101654454D01*
X147719534Y-101582766D01*
X147563770Y-101478688D01*
X147431312Y-101346230D01*
X147327234Y-101190466D01*
X147255546Y-101017396D01*
X147219000Y-100833667D01*
X147219000Y-100646333D01*
X147255546Y-100462604D01*
X147327234Y-100289534D01*
X147431312Y-100133770D01*
X147563770Y-100001312D01*
X147719534Y-99897234D01*
X147892604Y-99825546D01*
X148076333Y-99789000D01*
X148263667Y-99789000D01*
X148447396Y-99825546D01*
X148447396Y-99825546D01*
G37*
G36*
X130667396Y-99825546D02*
X130840466Y-99897234D01*
X130996230Y-100001312D01*
X131128688Y-100133770D01*
X131232766Y-100289534D01*
X131304454Y-100462604D01*
X131341000Y-100646333D01*
X131341000Y-100833667D01*
X131304454Y-101017396D01*
X131232766Y-101190466D01*
X131128688Y-101346230D01*
X130996230Y-101478688D01*
X130840466Y-101582766D01*
X130667396Y-101654454D01*
X130483667Y-101691000D01*
X130296333Y-101691000D01*
X130112604Y-101654454D01*
X129939534Y-101582766D01*
X129783770Y-101478688D01*
X129651312Y-101346230D01*
X129547234Y-101190466D01*
X129475546Y-101017396D01*
X129439000Y-100833667D01*
X129439000Y-100646333D01*
X129475546Y-100462604D01*
X129547234Y-100289534D01*
X129651312Y-100133770D01*
X129783770Y-100001312D01*
X129939534Y-99897234D01*
X130112604Y-99825546D01*
X130296333Y-99789000D01*
X130483667Y-99789000D01*
X130667396Y-99825546D01*
X130667396Y-99825546D01*
G37*
G36*
X128167396Y-99825546D02*
X128340466Y-99897234D01*
X128496230Y-100001312D01*
X128628688Y-100133770D01*
X128732766Y-100289534D01*
X128804454Y-100462604D01*
X128841000Y-100646333D01*
X128841000Y-100833667D01*
X128804454Y-101017396D01*
X128732766Y-101190466D01*
X128628688Y-101346230D01*
X128496230Y-101478688D01*
X128340466Y-101582766D01*
X128167396Y-101654454D01*
X127983667Y-101691000D01*
X127796333Y-101691000D01*
X127612604Y-101654454D01*
X127439534Y-101582766D01*
X127283770Y-101478688D01*
X127151312Y-101346230D01*
X127047234Y-101190466D01*
X126975546Y-101017396D01*
X126939000Y-100833667D01*
X126939000Y-100646333D01*
X126975546Y-100462604D01*
X127047234Y-100289534D01*
X127151312Y-100133770D01*
X127283770Y-100001312D01*
X127439534Y-99897234D01*
X127612604Y-99825546D01*
X127796333Y-99789000D01*
X127983667Y-99789000D01*
X128167396Y-99825546D01*
X128167396Y-99825546D01*
G37*
G36*
X126341000Y-101691000D02*
X124439000Y-101691000D01*
X124439000Y-99789000D01*
X126341000Y-99789000D01*
X126341000Y-101691000D01*
X126341000Y-101691000D01*
G37*
G36*
X112887396Y-99825546D02*
X113060466Y-99897234D01*
X113216230Y-100001312D01*
X113348688Y-100133770D01*
X113452766Y-100289534D01*
X113524454Y-100462604D01*
X113561000Y-100646333D01*
X113561000Y-100833667D01*
X113524454Y-101017396D01*
X113452766Y-101190466D01*
X113348688Y-101346230D01*
X113216230Y-101478688D01*
X113060466Y-101582766D01*
X112887396Y-101654454D01*
X112703667Y-101691000D01*
X112516333Y-101691000D01*
X112332604Y-101654454D01*
X112159534Y-101582766D01*
X112003770Y-101478688D01*
X111871312Y-101346230D01*
X111767234Y-101190466D01*
X111695546Y-101017396D01*
X111659000Y-100833667D01*
X111659000Y-100646333D01*
X111695546Y-100462604D01*
X111767234Y-100289534D01*
X111871312Y-100133770D01*
X112003770Y-100001312D01*
X112159534Y-99897234D01*
X112332604Y-99825546D01*
X112516333Y-99789000D01*
X112703667Y-99789000D01*
X112887396Y-99825546D01*
X112887396Y-99825546D01*
G37*
G36*
X110387396Y-99825546D02*
X110560466Y-99897234D01*
X110716230Y-100001312D01*
X110848688Y-100133770D01*
X110952766Y-100289534D01*
X111024454Y-100462604D01*
X111061000Y-100646333D01*
X111061000Y-100833667D01*
X111024454Y-101017396D01*
X110952766Y-101190466D01*
X110848688Y-101346230D01*
X110716230Y-101478688D01*
X110560466Y-101582766D01*
X110387396Y-101654454D01*
X110203667Y-101691000D01*
X110016333Y-101691000D01*
X109832604Y-101654454D01*
X109659534Y-101582766D01*
X109503770Y-101478688D01*
X109371312Y-101346230D01*
X109267234Y-101190466D01*
X109195546Y-101017396D01*
X109159000Y-100833667D01*
X109159000Y-100646333D01*
X109195546Y-100462604D01*
X109267234Y-100289534D01*
X109371312Y-100133770D01*
X109503770Y-100001312D01*
X109659534Y-99897234D01*
X109832604Y-99825546D01*
X110016333Y-99789000D01*
X110203667Y-99789000D01*
X110387396Y-99825546D01*
X110387396Y-99825546D01*
G37*
G36*
X108561000Y-101691000D02*
X106659000Y-101691000D01*
X106659000Y-99789000D01*
X108561000Y-99789000D01*
X108561000Y-101691000D01*
X108561000Y-101691000D01*
G37*
G36*
X92607396Y-99825546D02*
X92780466Y-99897234D01*
X92936230Y-100001312D01*
X93068688Y-100133770D01*
X93172766Y-100289534D01*
X93244454Y-100462604D01*
X93281000Y-100646333D01*
X93281000Y-100833667D01*
X93244454Y-101017396D01*
X93172766Y-101190466D01*
X93068688Y-101346230D01*
X92936230Y-101478688D01*
X92780466Y-101582766D01*
X92607396Y-101654454D01*
X92423667Y-101691000D01*
X92236333Y-101691000D01*
X92052604Y-101654454D01*
X91879534Y-101582766D01*
X91723770Y-101478688D01*
X91591312Y-101346230D01*
X91487234Y-101190466D01*
X91415546Y-101017396D01*
X91379000Y-100833667D01*
X91379000Y-100646333D01*
X91415546Y-100462604D01*
X91487234Y-100289534D01*
X91591312Y-100133770D01*
X91723770Y-100001312D01*
X91879534Y-99897234D01*
X92052604Y-99825546D01*
X92236333Y-99789000D01*
X92423667Y-99789000D01*
X92607396Y-99825546D01*
X92607396Y-99825546D01*
G37*
G36*
X90781000Y-101691000D02*
X88879000Y-101691000D01*
X88879000Y-99789000D01*
X90781000Y-99789000D01*
X90781000Y-101691000D01*
X90781000Y-101691000D01*
G37*
G36*
X204086604Y-91589416D02*
X204352579Y-91670099D01*
X204352581Y-91670100D01*
X204352584Y-91670101D01*
X204597703Y-91801119D01*
X204812555Y-91977445D01*
X204988881Y-92192297D01*
X205119900Y-92437417D01*
X205119901Y-92437421D01*
X205200584Y-92703397D01*
X205221000Y-92910685D01*
X205221000Y-93569316D01*
X205200584Y-93776604D01*
X205119901Y-94042578D01*
X205119899Y-94042584D01*
X204988881Y-94287703D01*
X204812555Y-94502555D01*
X204597702Y-94678881D01*
X204352583Y-94809899D01*
X204352580Y-94809900D01*
X204352578Y-94809901D01*
X204086603Y-94890584D01*
X203810000Y-94917827D01*
X203533396Y-94890584D01*
X203267421Y-94809901D01*
X203267419Y-94809900D01*
X203267416Y-94809899D01*
X203022297Y-94678881D01*
X202807445Y-94502555D01*
X202631119Y-94287702D01*
X202500101Y-94042583D01*
X202500099Y-94042578D01*
X202419416Y-93776603D01*
X202399000Y-93569315D01*
X202399000Y-92910684D01*
X202419416Y-92703396D01*
X202500099Y-92437421D01*
X202500101Y-92437417D01*
X202500101Y-92437416D01*
X202631119Y-92192297D01*
X202807445Y-91977445D01*
X203022298Y-91801119D01*
X203267417Y-91670101D01*
X203267420Y-91670100D01*
X203267422Y-91670099D01*
X203533397Y-91589416D01*
X203810000Y-91562173D01*
X204086604Y-91589416D01*
X204086604Y-91589416D01*
G37*
G36*
X176706604Y-91589416D02*
X176972579Y-91670099D01*
X176972581Y-91670100D01*
X176972584Y-91670101D01*
X177217703Y-91801119D01*
X177432555Y-91977445D01*
X177608881Y-92192297D01*
X177739900Y-92437417D01*
X177739901Y-92437421D01*
X177820584Y-92703397D01*
X177841000Y-92910685D01*
X177841000Y-93569316D01*
X177820584Y-93776604D01*
X177739901Y-94042578D01*
X177739899Y-94042584D01*
X177608881Y-94287703D01*
X177432555Y-94502555D01*
X177217702Y-94678881D01*
X176972583Y-94809899D01*
X176972580Y-94809900D01*
X176972578Y-94809901D01*
X176706603Y-94890584D01*
X176430000Y-94917827D01*
X176153396Y-94890584D01*
X175887421Y-94809901D01*
X175887419Y-94809900D01*
X175887416Y-94809899D01*
X175642297Y-94678881D01*
X175427445Y-94502555D01*
X175251119Y-94287702D01*
X175120101Y-94042583D01*
X175120099Y-94042578D01*
X175039416Y-93776603D01*
X175019000Y-93569315D01*
X175019000Y-92910684D01*
X175039416Y-92703396D01*
X175120099Y-92437421D01*
X175120101Y-92437417D01*
X175120101Y-92437416D01*
X175251119Y-92192297D01*
X175427445Y-91977445D01*
X175642298Y-91801119D01*
X175887417Y-91670101D01*
X175887420Y-91670100D01*
X175887422Y-91670099D01*
X176153397Y-91589416D01*
X176430000Y-91562173D01*
X176706604Y-91589416D01*
X176706604Y-91589416D01*
G37*
G36*
X168526604Y-91589416D02*
X168792579Y-91670099D01*
X168792581Y-91670100D01*
X168792584Y-91670101D01*
X169037703Y-91801119D01*
X169252555Y-91977445D01*
X169428881Y-92192297D01*
X169559900Y-92437417D01*
X169559901Y-92437421D01*
X169640584Y-92703397D01*
X169661000Y-92910685D01*
X169661000Y-93569316D01*
X169640584Y-93776604D01*
X169559901Y-94042578D01*
X169559899Y-94042584D01*
X169428881Y-94287703D01*
X169252555Y-94502555D01*
X169037702Y-94678881D01*
X168792583Y-94809899D01*
X168792580Y-94809900D01*
X168792578Y-94809901D01*
X168526603Y-94890584D01*
X168250000Y-94917827D01*
X167973396Y-94890584D01*
X167707421Y-94809901D01*
X167707419Y-94809900D01*
X167707416Y-94809899D01*
X167462297Y-94678881D01*
X167247445Y-94502555D01*
X167071119Y-94287702D01*
X166940101Y-94042583D01*
X166940099Y-94042578D01*
X166859416Y-93776603D01*
X166839000Y-93569315D01*
X166839000Y-92910684D01*
X166859416Y-92703396D01*
X166940099Y-92437421D01*
X166940101Y-92437417D01*
X166940101Y-92437416D01*
X167071119Y-92192297D01*
X167247445Y-91977445D01*
X167462298Y-91801119D01*
X167707417Y-91670101D01*
X167707420Y-91670100D01*
X167707422Y-91670099D01*
X167973397Y-91589416D01*
X168250000Y-91562173D01*
X168526604Y-91589416D01*
X168526604Y-91589416D01*
G37*
G36*
X158926604Y-91589416D02*
X159192579Y-91670099D01*
X159192581Y-91670100D01*
X159192584Y-91670101D01*
X159437703Y-91801119D01*
X159652555Y-91977445D01*
X159828881Y-92192297D01*
X159959900Y-92437417D01*
X159959901Y-92437421D01*
X160040584Y-92703397D01*
X160061000Y-92910685D01*
X160061000Y-93569316D01*
X160040584Y-93776604D01*
X159959901Y-94042578D01*
X159959899Y-94042584D01*
X159828881Y-94287703D01*
X159652555Y-94502555D01*
X159437702Y-94678881D01*
X159192583Y-94809899D01*
X159192580Y-94809900D01*
X159192578Y-94809901D01*
X158926603Y-94890584D01*
X158650000Y-94917827D01*
X158373396Y-94890584D01*
X158107421Y-94809901D01*
X158107419Y-94809900D01*
X158107416Y-94809899D01*
X157862297Y-94678881D01*
X157647445Y-94502555D01*
X157471119Y-94287702D01*
X157340101Y-94042583D01*
X157340099Y-94042578D01*
X157259416Y-93776603D01*
X157239000Y-93569315D01*
X157239000Y-92910684D01*
X157259416Y-92703396D01*
X157340099Y-92437421D01*
X157340101Y-92437417D01*
X157340101Y-92437416D01*
X157471119Y-92192297D01*
X157647445Y-91977445D01*
X157862298Y-91801119D01*
X158107417Y-91670101D01*
X158107420Y-91670100D01*
X158107422Y-91670099D01*
X158373397Y-91589416D01*
X158650000Y-91562173D01*
X158926604Y-91589416D01*
X158926604Y-91589416D01*
G37*
G36*
X150746604Y-91589416D02*
X151012579Y-91670099D01*
X151012581Y-91670100D01*
X151012584Y-91670101D01*
X151257703Y-91801119D01*
X151472555Y-91977445D01*
X151648881Y-92192297D01*
X151779900Y-92437417D01*
X151779901Y-92437421D01*
X151860584Y-92703397D01*
X151881000Y-92910685D01*
X151881000Y-93569316D01*
X151860584Y-93776604D01*
X151779901Y-94042578D01*
X151779899Y-94042584D01*
X151648881Y-94287703D01*
X151472555Y-94502555D01*
X151257702Y-94678881D01*
X151012583Y-94809899D01*
X151012580Y-94809900D01*
X151012578Y-94809901D01*
X150746603Y-94890584D01*
X150470000Y-94917827D01*
X150193396Y-94890584D01*
X149927421Y-94809901D01*
X149927419Y-94809900D01*
X149927416Y-94809899D01*
X149682297Y-94678881D01*
X149467445Y-94502555D01*
X149291119Y-94287702D01*
X149160101Y-94042583D01*
X149160099Y-94042578D01*
X149079416Y-93776603D01*
X149059000Y-93569315D01*
X149059000Y-92910684D01*
X149079416Y-92703396D01*
X149160099Y-92437421D01*
X149160101Y-92437417D01*
X149160101Y-92437416D01*
X149291119Y-92192297D01*
X149467445Y-91977445D01*
X149682298Y-91801119D01*
X149927417Y-91670101D01*
X149927420Y-91670100D01*
X149927422Y-91670099D01*
X150193397Y-91589416D01*
X150470000Y-91562173D01*
X150746604Y-91589416D01*
X150746604Y-91589416D01*
G37*
G36*
X141146604Y-91589416D02*
X141412579Y-91670099D01*
X141412581Y-91670100D01*
X141412584Y-91670101D01*
X141657703Y-91801119D01*
X141872555Y-91977445D01*
X142048881Y-92192297D01*
X142179900Y-92437417D01*
X142179901Y-92437421D01*
X142260584Y-92703397D01*
X142281000Y-92910685D01*
X142281000Y-93569316D01*
X142260584Y-93776604D01*
X142179901Y-94042578D01*
X142179899Y-94042584D01*
X142048881Y-94287703D01*
X141872555Y-94502555D01*
X141657702Y-94678881D01*
X141412583Y-94809899D01*
X141412580Y-94809900D01*
X141412578Y-94809901D01*
X141146603Y-94890584D01*
X140870000Y-94917827D01*
X140593396Y-94890584D01*
X140327421Y-94809901D01*
X140327419Y-94809900D01*
X140327416Y-94809899D01*
X140082297Y-94678881D01*
X139867445Y-94502555D01*
X139691119Y-94287702D01*
X139560101Y-94042583D01*
X139560099Y-94042578D01*
X139479416Y-93776603D01*
X139459000Y-93569315D01*
X139459000Y-92910684D01*
X139479416Y-92703396D01*
X139560099Y-92437421D01*
X139560101Y-92437417D01*
X139560101Y-92437416D01*
X139691119Y-92192297D01*
X139867445Y-91977445D01*
X140082298Y-91801119D01*
X140327417Y-91670101D01*
X140327420Y-91670100D01*
X140327422Y-91670099D01*
X140593397Y-91589416D01*
X140870000Y-91562173D01*
X141146604Y-91589416D01*
X141146604Y-91589416D01*
G37*
G36*
X132966604Y-91589416D02*
X133232579Y-91670099D01*
X133232581Y-91670100D01*
X133232584Y-91670101D01*
X133477703Y-91801119D01*
X133692555Y-91977445D01*
X133868881Y-92192297D01*
X133999900Y-92437417D01*
X133999901Y-92437421D01*
X134080584Y-92703397D01*
X134101000Y-92910685D01*
X134101000Y-93569316D01*
X134080584Y-93776604D01*
X133999901Y-94042578D01*
X133999899Y-94042584D01*
X133868881Y-94287703D01*
X133692555Y-94502555D01*
X133477702Y-94678881D01*
X133232583Y-94809899D01*
X133232580Y-94809900D01*
X133232578Y-94809901D01*
X132966603Y-94890584D01*
X132690000Y-94917827D01*
X132413396Y-94890584D01*
X132147421Y-94809901D01*
X132147419Y-94809900D01*
X132147416Y-94809899D01*
X131902297Y-94678881D01*
X131687445Y-94502555D01*
X131511119Y-94287702D01*
X131380101Y-94042583D01*
X131380099Y-94042578D01*
X131299416Y-93776603D01*
X131279000Y-93569315D01*
X131279000Y-92910684D01*
X131299416Y-92703396D01*
X131380099Y-92437421D01*
X131380101Y-92437417D01*
X131380101Y-92437416D01*
X131511119Y-92192297D01*
X131687445Y-91977445D01*
X131902298Y-91801119D01*
X132147417Y-91670101D01*
X132147420Y-91670100D01*
X132147422Y-91670099D01*
X132413397Y-91589416D01*
X132690000Y-91562173D01*
X132966604Y-91589416D01*
X132966604Y-91589416D01*
G37*
G36*
X123366604Y-91589416D02*
X123632579Y-91670099D01*
X123632581Y-91670100D01*
X123632584Y-91670101D01*
X123877703Y-91801119D01*
X124092555Y-91977445D01*
X124268881Y-92192297D01*
X124399900Y-92437417D01*
X124399901Y-92437421D01*
X124480584Y-92703397D01*
X124501000Y-92910685D01*
X124501000Y-93569316D01*
X124480584Y-93776604D01*
X124399901Y-94042578D01*
X124399899Y-94042584D01*
X124268881Y-94287703D01*
X124092555Y-94502555D01*
X123877702Y-94678881D01*
X123632583Y-94809899D01*
X123632580Y-94809900D01*
X123632578Y-94809901D01*
X123366603Y-94890584D01*
X123090000Y-94917827D01*
X122813396Y-94890584D01*
X122547421Y-94809901D01*
X122547419Y-94809900D01*
X122547416Y-94809899D01*
X122302297Y-94678881D01*
X122087445Y-94502555D01*
X121911119Y-94287702D01*
X121780101Y-94042583D01*
X121780099Y-94042578D01*
X121699416Y-93776603D01*
X121679000Y-93569315D01*
X121679000Y-92910684D01*
X121699416Y-92703396D01*
X121780099Y-92437421D01*
X121780101Y-92437417D01*
X121780101Y-92437416D01*
X121911119Y-92192297D01*
X122087445Y-91977445D01*
X122302298Y-91801119D01*
X122547417Y-91670101D01*
X122547420Y-91670100D01*
X122547422Y-91670099D01*
X122813397Y-91589416D01*
X123090000Y-91562173D01*
X123366604Y-91589416D01*
X123366604Y-91589416D01*
G37*
G36*
X115186604Y-91589416D02*
X115452579Y-91670099D01*
X115452581Y-91670100D01*
X115452584Y-91670101D01*
X115697703Y-91801119D01*
X115912555Y-91977445D01*
X116088881Y-92192297D01*
X116219900Y-92437417D01*
X116219901Y-92437421D01*
X116300584Y-92703397D01*
X116321000Y-92910685D01*
X116321000Y-93569316D01*
X116300584Y-93776604D01*
X116219901Y-94042578D01*
X116219899Y-94042584D01*
X116088881Y-94287703D01*
X115912555Y-94502555D01*
X115697702Y-94678881D01*
X115452583Y-94809899D01*
X115452580Y-94809900D01*
X115452578Y-94809901D01*
X115186603Y-94890584D01*
X114910000Y-94917827D01*
X114633396Y-94890584D01*
X114367421Y-94809901D01*
X114367419Y-94809900D01*
X114367416Y-94809899D01*
X114122297Y-94678881D01*
X113907445Y-94502555D01*
X113731119Y-94287702D01*
X113600101Y-94042583D01*
X113600099Y-94042578D01*
X113519416Y-93776603D01*
X113499000Y-93569315D01*
X113499000Y-92910684D01*
X113519416Y-92703396D01*
X113600099Y-92437421D01*
X113600101Y-92437417D01*
X113600101Y-92437416D01*
X113731119Y-92192297D01*
X113907445Y-91977445D01*
X114122298Y-91801119D01*
X114367417Y-91670101D01*
X114367420Y-91670100D01*
X114367422Y-91670099D01*
X114633397Y-91589416D01*
X114910000Y-91562173D01*
X115186604Y-91589416D01*
X115186604Y-91589416D01*
G37*
G36*
X194486604Y-91589416D02*
X194752579Y-91670099D01*
X194752581Y-91670100D01*
X194752584Y-91670101D01*
X194997703Y-91801119D01*
X195212555Y-91977445D01*
X195388881Y-92192297D01*
X195519900Y-92437417D01*
X195519901Y-92437421D01*
X195600584Y-92703397D01*
X195621000Y-92910685D01*
X195621000Y-93569316D01*
X195600584Y-93776604D01*
X195519901Y-94042578D01*
X195519899Y-94042584D01*
X195388881Y-94287703D01*
X195212555Y-94502555D01*
X194997702Y-94678881D01*
X194752583Y-94809899D01*
X194752580Y-94809900D01*
X194752578Y-94809901D01*
X194486603Y-94890584D01*
X194210000Y-94917827D01*
X193933396Y-94890584D01*
X193667421Y-94809901D01*
X193667419Y-94809900D01*
X193667416Y-94809899D01*
X193422297Y-94678881D01*
X193207445Y-94502555D01*
X193031119Y-94287702D01*
X192900101Y-94042583D01*
X192900099Y-94042578D01*
X192819416Y-93776603D01*
X192799000Y-93569315D01*
X192799000Y-92910684D01*
X192819416Y-92703396D01*
X192900099Y-92437421D01*
X192900101Y-92437417D01*
X192900101Y-92437416D01*
X193031119Y-92192297D01*
X193207445Y-91977445D01*
X193422298Y-91801119D01*
X193667417Y-91670101D01*
X193667420Y-91670100D01*
X193667422Y-91670099D01*
X193933397Y-91589416D01*
X194210000Y-91562173D01*
X194486604Y-91589416D01*
X194486604Y-91589416D01*
G37*
G36*
X186306604Y-91589416D02*
X186572579Y-91670099D01*
X186572581Y-91670100D01*
X186572584Y-91670101D01*
X186817703Y-91801119D01*
X187032555Y-91977445D01*
X187208881Y-92192297D01*
X187339900Y-92437417D01*
X187339901Y-92437421D01*
X187420584Y-92703397D01*
X187441000Y-92910685D01*
X187441000Y-93569316D01*
X187420584Y-93776604D01*
X187339901Y-94042578D01*
X187339899Y-94042584D01*
X187208881Y-94287703D01*
X187032555Y-94502555D01*
X186817702Y-94678881D01*
X186572583Y-94809899D01*
X186572580Y-94809900D01*
X186572578Y-94809901D01*
X186306603Y-94890584D01*
X186030000Y-94917827D01*
X185753396Y-94890584D01*
X185487421Y-94809901D01*
X185487419Y-94809900D01*
X185487416Y-94809899D01*
X185242297Y-94678881D01*
X185027445Y-94502555D01*
X184851119Y-94287702D01*
X184720101Y-94042583D01*
X184720099Y-94042578D01*
X184639416Y-93776603D01*
X184619000Y-93569315D01*
X184619000Y-92910684D01*
X184639416Y-92703396D01*
X184720099Y-92437421D01*
X184720101Y-92437417D01*
X184720101Y-92437416D01*
X184851119Y-92192297D01*
X185027445Y-91977445D01*
X185242298Y-91801119D01*
X185487417Y-91670101D01*
X185487420Y-91670100D01*
X185487422Y-91670099D01*
X185753397Y-91589416D01*
X186030000Y-91562173D01*
X186306604Y-91589416D01*
X186306604Y-91589416D01*
G37*
G36*
X105586604Y-91589416D02*
X105852579Y-91670099D01*
X105852581Y-91670100D01*
X105852584Y-91670101D01*
X106097703Y-91801119D01*
X106312555Y-91977445D01*
X106488881Y-92192297D01*
X106619900Y-92437417D01*
X106619901Y-92437421D01*
X106700584Y-92703397D01*
X106721000Y-92910685D01*
X106721000Y-93569316D01*
X106700584Y-93776604D01*
X106619901Y-94042578D01*
X106619899Y-94042584D01*
X106488881Y-94287703D01*
X106312555Y-94502555D01*
X106097702Y-94678881D01*
X105852583Y-94809899D01*
X105852580Y-94809900D01*
X105852578Y-94809901D01*
X105586603Y-94890584D01*
X105310000Y-94917827D01*
X105033396Y-94890584D01*
X104767421Y-94809901D01*
X104767419Y-94809900D01*
X104767416Y-94809899D01*
X104522297Y-94678881D01*
X104307445Y-94502555D01*
X104131119Y-94287702D01*
X104000101Y-94042583D01*
X104000099Y-94042578D01*
X103919416Y-93776603D01*
X103899000Y-93569315D01*
X103899000Y-92910684D01*
X103919416Y-92703396D01*
X104000099Y-92437421D01*
X104000101Y-92437417D01*
X104000101Y-92437416D01*
X104131119Y-92192297D01*
X104307445Y-91977445D01*
X104522298Y-91801119D01*
X104767417Y-91670101D01*
X104767420Y-91670100D01*
X104767422Y-91670099D01*
X105033397Y-91589416D01*
X105310000Y-91562173D01*
X105586604Y-91589416D01*
X105586604Y-91589416D01*
G37*
G36*
X97406604Y-91589416D02*
X97672579Y-91670099D01*
X97672581Y-91670100D01*
X97672584Y-91670101D01*
X97917703Y-91801119D01*
X98132555Y-91977445D01*
X98308881Y-92192297D01*
X98439900Y-92437417D01*
X98439901Y-92437421D01*
X98520584Y-92703397D01*
X98541000Y-92910685D01*
X98541000Y-93569316D01*
X98520584Y-93776604D01*
X98439901Y-94042578D01*
X98439899Y-94042584D01*
X98308881Y-94287703D01*
X98132555Y-94502555D01*
X97917702Y-94678881D01*
X97672583Y-94809899D01*
X97672580Y-94809900D01*
X97672578Y-94809901D01*
X97406603Y-94890584D01*
X97130000Y-94917827D01*
X96853396Y-94890584D01*
X96587421Y-94809901D01*
X96587419Y-94809900D01*
X96587416Y-94809899D01*
X96342297Y-94678881D01*
X96127445Y-94502555D01*
X95951119Y-94287702D01*
X95820101Y-94042583D01*
X95820099Y-94042578D01*
X95739416Y-93776603D01*
X95719000Y-93569315D01*
X95719000Y-92910684D01*
X95739416Y-92703396D01*
X95820099Y-92437421D01*
X95820101Y-92437417D01*
X95820101Y-92437416D01*
X95951119Y-92192297D01*
X96127445Y-91977445D01*
X96342298Y-91801119D01*
X96587417Y-91670101D01*
X96587420Y-91670100D01*
X96587422Y-91670099D01*
X96853397Y-91589416D01*
X97130000Y-91562173D01*
X97406604Y-91589416D01*
X97406604Y-91589416D01*
G37*
G36*
X87806604Y-91589416D02*
X88072579Y-91670099D01*
X88072581Y-91670100D01*
X88072584Y-91670101D01*
X88317703Y-91801119D01*
X88532555Y-91977445D01*
X88708881Y-92192297D01*
X88839900Y-92437417D01*
X88839901Y-92437421D01*
X88920584Y-92703397D01*
X88941000Y-92910685D01*
X88941000Y-93569316D01*
X88920584Y-93776604D01*
X88839901Y-94042578D01*
X88839899Y-94042584D01*
X88708881Y-94287703D01*
X88532555Y-94502555D01*
X88317702Y-94678881D01*
X88072583Y-94809899D01*
X88072580Y-94809900D01*
X88072578Y-94809901D01*
X87806603Y-94890584D01*
X87530000Y-94917827D01*
X87253396Y-94890584D01*
X86987421Y-94809901D01*
X86987419Y-94809900D01*
X86987416Y-94809899D01*
X86742297Y-94678881D01*
X86527445Y-94502555D01*
X86351119Y-94287702D01*
X86220101Y-94042583D01*
X86220099Y-94042578D01*
X86139416Y-93776603D01*
X86119000Y-93569315D01*
X86119000Y-92910684D01*
X86139416Y-92703396D01*
X86220099Y-92437421D01*
X86220101Y-92437417D01*
X86220101Y-92437416D01*
X86351119Y-92192297D01*
X86527445Y-91977445D01*
X86742298Y-91801119D01*
X86987417Y-91670101D01*
X86987420Y-91670100D01*
X86987422Y-91670099D01*
X87253397Y-91589416D01*
X87530000Y-91562173D01*
X87806604Y-91589416D01*
X87806604Y-91589416D01*
G37*
G36*
X79626604Y-91589416D02*
X79892579Y-91670099D01*
X79892581Y-91670100D01*
X79892584Y-91670101D01*
X80137703Y-91801119D01*
X80352555Y-91977445D01*
X80528881Y-92192297D01*
X80659900Y-92437417D01*
X80659901Y-92437421D01*
X80740584Y-92703397D01*
X80761000Y-92910685D01*
X80761000Y-93569316D01*
X80740584Y-93776604D01*
X80659901Y-94042578D01*
X80659899Y-94042584D01*
X80528881Y-94287703D01*
X80352555Y-94502555D01*
X80137702Y-94678881D01*
X79892583Y-94809899D01*
X79892580Y-94809900D01*
X79892578Y-94809901D01*
X79626603Y-94890584D01*
X79350000Y-94917827D01*
X79073396Y-94890584D01*
X78807421Y-94809901D01*
X78807419Y-94809900D01*
X78807416Y-94809899D01*
X78562297Y-94678881D01*
X78347445Y-94502555D01*
X78171119Y-94287702D01*
X78040101Y-94042583D01*
X78040099Y-94042578D01*
X77959416Y-93776603D01*
X77939000Y-93569315D01*
X77939000Y-92910684D01*
X77959416Y-92703396D01*
X78040099Y-92437421D01*
X78040101Y-92437417D01*
X78040101Y-92437416D01*
X78171119Y-92192297D01*
X78347445Y-91977445D01*
X78562298Y-91801119D01*
X78807417Y-91670101D01*
X78807420Y-91670100D01*
X78807422Y-91670099D01*
X79073397Y-91589416D01*
X79350000Y-91562173D01*
X79626604Y-91589416D01*
X79626604Y-91589416D01*
G37*
G36*
X70026604Y-91589416D02*
X70292579Y-91670099D01*
X70292581Y-91670100D01*
X70292584Y-91670101D01*
X70537703Y-91801119D01*
X70752555Y-91977445D01*
X70928881Y-92192297D01*
X71059900Y-92437417D01*
X71059901Y-92437421D01*
X71140584Y-92703397D01*
X71161000Y-92910685D01*
X71161000Y-93569316D01*
X71140584Y-93776604D01*
X71059901Y-94042578D01*
X71059899Y-94042584D01*
X70928881Y-94287703D01*
X70752555Y-94502555D01*
X70537702Y-94678881D01*
X70292583Y-94809899D01*
X70292580Y-94809900D01*
X70292578Y-94809901D01*
X70026603Y-94890584D01*
X69750000Y-94917827D01*
X69473396Y-94890584D01*
X69207421Y-94809901D01*
X69207419Y-94809900D01*
X69207416Y-94809899D01*
X68962297Y-94678881D01*
X68747445Y-94502555D01*
X68571119Y-94287702D01*
X68440101Y-94042583D01*
X68440099Y-94042578D01*
X68359416Y-93776603D01*
X68339000Y-93569315D01*
X68339000Y-92910684D01*
X68359416Y-92703396D01*
X68440099Y-92437421D01*
X68440101Y-92437417D01*
X68440101Y-92437416D01*
X68571119Y-92192297D01*
X68747445Y-91977445D01*
X68962298Y-91801119D01*
X69207417Y-91670101D01*
X69207420Y-91670100D01*
X69207422Y-91670099D01*
X69473397Y-91589416D01*
X69750000Y-91562173D01*
X70026604Y-91589416D01*
X70026604Y-91589416D01*
G37*
G36*
X182246000Y-71226000D02*
X180214000Y-71226000D01*
X180214000Y-69294000D01*
X182246000Y-69294000D01*
X182246000Y-71226000D01*
X182246000Y-71226000D01*
G37*
G36*
X200026000Y-71226000D02*
X197994000Y-71226000D01*
X197994000Y-69294000D01*
X200026000Y-69294000D01*
X200026000Y-71226000D01*
X200026000Y-71226000D01*
G37*
G36*
X164466000Y-71226000D02*
X162434000Y-71226000D01*
X162434000Y-69294000D01*
X164466000Y-69294000D01*
X164466000Y-71226000D01*
X164466000Y-71226000D01*
G37*
G36*
X75566000Y-71226000D02*
X73534000Y-71226000D01*
X73534000Y-69294000D01*
X75566000Y-69294000D01*
X75566000Y-71226000D01*
X75566000Y-71226000D01*
G37*
G36*
X146686000Y-71226000D02*
X144654000Y-71226000D01*
X144654000Y-69294000D01*
X146686000Y-69294000D01*
X146686000Y-71226000D01*
X146686000Y-71226000D01*
G37*
G36*
X128906000Y-71226000D02*
X126874000Y-71226000D01*
X126874000Y-69294000D01*
X128906000Y-69294000D01*
X128906000Y-71226000D01*
X128906000Y-71226000D01*
G37*
G36*
X111126000Y-71226000D02*
X109094000Y-71226000D01*
X109094000Y-69294000D01*
X111126000Y-69294000D01*
X111126000Y-71226000D01*
X111126000Y-71226000D01*
G37*
G36*
X93346000Y-71226000D02*
X91314000Y-71226000D01*
X91314000Y-69294000D01*
X93346000Y-69294000D01*
X93346000Y-71226000D01*
X93346000Y-71226000D01*
G37*
G36*
X199263655Y-66072591D02*
X199335525Y-66086887D01*
X199538624Y-66171013D01*
X199721412Y-66293148D01*
X199876852Y-66448588D01*
X199998987Y-66631376D01*
X200083113Y-66834476D01*
X200126000Y-67050082D01*
X200126000Y-67269918D01*
X200083113Y-67485524D01*
X199998987Y-67688624D01*
X199876852Y-67871412D01*
X199721412Y-68026852D01*
X199721409Y-68026854D01*
X199538624Y-68148987D01*
X199335525Y-68233113D01*
X199263655Y-68247409D01*
X199119918Y-68276000D01*
X198900082Y-68276000D01*
X198756345Y-68247409D01*
X198684475Y-68233113D01*
X198481376Y-68148987D01*
X198298591Y-68026854D01*
X198298588Y-68026852D01*
X198143148Y-67871412D01*
X198021013Y-67688624D01*
X197936887Y-67485524D01*
X197894000Y-67269918D01*
X197894000Y-67050082D01*
X197936887Y-66834476D01*
X198021013Y-66631376D01*
X198143148Y-66448588D01*
X198298588Y-66293148D01*
X198481376Y-66171013D01*
X198684475Y-66086887D01*
X198756345Y-66072591D01*
X198900082Y-66044000D01*
X199119918Y-66044000D01*
X199263655Y-66072591D01*
X199263655Y-66072591D01*
G37*
G36*
X163703655Y-66072591D02*
X163775525Y-66086887D01*
X163978624Y-66171013D01*
X164161412Y-66293148D01*
X164316852Y-66448588D01*
X164438987Y-66631376D01*
X164523113Y-66834476D01*
X164566000Y-67050082D01*
X164566000Y-67269918D01*
X164523113Y-67485524D01*
X164438987Y-67688624D01*
X164316852Y-67871412D01*
X164161412Y-68026852D01*
X164161409Y-68026854D01*
X163978624Y-68148987D01*
X163775525Y-68233113D01*
X163703655Y-68247409D01*
X163559918Y-68276000D01*
X163340082Y-68276000D01*
X163196345Y-68247409D01*
X163124475Y-68233113D01*
X162921376Y-68148987D01*
X162738591Y-68026854D01*
X162738588Y-68026852D01*
X162583148Y-67871412D01*
X162461013Y-67688624D01*
X162376887Y-67485524D01*
X162334000Y-67269918D01*
X162334000Y-67050082D01*
X162376887Y-66834476D01*
X162461013Y-66631376D01*
X162583148Y-66448588D01*
X162738588Y-66293148D01*
X162921376Y-66171013D01*
X163124475Y-66086887D01*
X163196345Y-66072591D01*
X163340082Y-66044000D01*
X163559918Y-66044000D01*
X163703655Y-66072591D01*
X163703655Y-66072591D01*
G37*
G36*
X181483655Y-66072591D02*
X181555525Y-66086887D01*
X181758624Y-66171013D01*
X181941412Y-66293148D01*
X182096852Y-66448588D01*
X182218987Y-66631376D01*
X182303113Y-66834476D01*
X182346000Y-67050082D01*
X182346000Y-67269918D01*
X182303113Y-67485524D01*
X182218987Y-67688624D01*
X182096852Y-67871412D01*
X181941412Y-68026852D01*
X181941409Y-68026854D01*
X181758624Y-68148987D01*
X181555525Y-68233113D01*
X181483655Y-68247409D01*
X181339918Y-68276000D01*
X181120082Y-68276000D01*
X180976345Y-68247409D01*
X180904475Y-68233113D01*
X180701376Y-68148987D01*
X180518591Y-68026854D01*
X180518588Y-68026852D01*
X180363148Y-67871412D01*
X180241013Y-67688624D01*
X180156887Y-67485524D01*
X180114000Y-67269918D01*
X180114000Y-67050082D01*
X180156887Y-66834476D01*
X180241013Y-66631376D01*
X180363148Y-66448588D01*
X180518588Y-66293148D01*
X180701376Y-66171013D01*
X180904475Y-66086887D01*
X180976345Y-66072591D01*
X181120082Y-66044000D01*
X181339918Y-66044000D01*
X181483655Y-66072591D01*
X181483655Y-66072591D01*
G37*
G36*
X74803655Y-66072591D02*
X74875525Y-66086887D01*
X75078624Y-66171013D01*
X75261412Y-66293148D01*
X75416852Y-66448588D01*
X75538987Y-66631376D01*
X75623113Y-66834476D01*
X75666000Y-67050082D01*
X75666000Y-67269918D01*
X75623113Y-67485524D01*
X75538987Y-67688624D01*
X75416852Y-67871412D01*
X75261412Y-68026852D01*
X75261409Y-68026854D01*
X75078624Y-68148987D01*
X74875525Y-68233113D01*
X74803655Y-68247409D01*
X74659918Y-68276000D01*
X74440082Y-68276000D01*
X74296345Y-68247409D01*
X74224475Y-68233113D01*
X74021376Y-68148987D01*
X73838591Y-68026854D01*
X73838588Y-68026852D01*
X73683148Y-67871412D01*
X73561013Y-67688624D01*
X73476887Y-67485524D01*
X73434000Y-67269918D01*
X73434000Y-67050082D01*
X73476887Y-66834476D01*
X73561013Y-66631376D01*
X73683148Y-66448588D01*
X73838588Y-66293148D01*
X74021376Y-66171013D01*
X74224475Y-66086887D01*
X74296345Y-66072591D01*
X74440082Y-66044000D01*
X74659918Y-66044000D01*
X74803655Y-66072591D01*
X74803655Y-66072591D01*
G37*
G36*
X145923655Y-66072591D02*
X145995525Y-66086887D01*
X146198624Y-66171013D01*
X146381412Y-66293148D01*
X146536852Y-66448588D01*
X146658987Y-66631376D01*
X146743113Y-66834476D01*
X146786000Y-67050082D01*
X146786000Y-67269918D01*
X146743113Y-67485524D01*
X146658987Y-67688624D01*
X146536852Y-67871412D01*
X146381412Y-68026852D01*
X146381409Y-68026854D01*
X146198624Y-68148987D01*
X145995525Y-68233113D01*
X145923655Y-68247409D01*
X145779918Y-68276000D01*
X145560082Y-68276000D01*
X145416345Y-68247409D01*
X145344475Y-68233113D01*
X145141376Y-68148987D01*
X144958591Y-68026854D01*
X144958588Y-68026852D01*
X144803148Y-67871412D01*
X144681013Y-67688624D01*
X144596887Y-67485524D01*
X144554000Y-67269918D01*
X144554000Y-67050082D01*
X144596887Y-66834476D01*
X144681013Y-66631376D01*
X144803148Y-66448588D01*
X144958588Y-66293148D01*
X145141376Y-66171013D01*
X145344475Y-66086887D01*
X145416345Y-66072591D01*
X145560082Y-66044000D01*
X145779918Y-66044000D01*
X145923655Y-66072591D01*
X145923655Y-66072591D01*
G37*
G36*
X92583655Y-66072591D02*
X92655525Y-66086887D01*
X92858624Y-66171013D01*
X93041412Y-66293148D01*
X93196852Y-66448588D01*
X93318987Y-66631376D01*
X93403113Y-66834476D01*
X93446000Y-67050082D01*
X93446000Y-67269918D01*
X93403113Y-67485524D01*
X93318987Y-67688624D01*
X93196852Y-67871412D01*
X93041412Y-68026852D01*
X93041409Y-68026854D01*
X92858624Y-68148987D01*
X92655525Y-68233113D01*
X92583655Y-68247409D01*
X92439918Y-68276000D01*
X92220082Y-68276000D01*
X92076345Y-68247409D01*
X92004475Y-68233113D01*
X91801376Y-68148987D01*
X91618591Y-68026854D01*
X91618588Y-68026852D01*
X91463148Y-67871412D01*
X91341013Y-67688624D01*
X91256887Y-67485524D01*
X91214000Y-67269918D01*
X91214000Y-67050082D01*
X91256887Y-66834476D01*
X91341013Y-66631376D01*
X91463148Y-66448588D01*
X91618588Y-66293148D01*
X91801376Y-66171013D01*
X92004475Y-66086887D01*
X92076345Y-66072591D01*
X92220082Y-66044000D01*
X92439918Y-66044000D01*
X92583655Y-66072591D01*
X92583655Y-66072591D01*
G37*
G36*
X110363655Y-66072591D02*
X110435525Y-66086887D01*
X110638624Y-66171013D01*
X110821412Y-66293148D01*
X110976852Y-66448588D01*
X111098987Y-66631376D01*
X111183113Y-66834476D01*
X111226000Y-67050082D01*
X111226000Y-67269918D01*
X111183113Y-67485524D01*
X111098987Y-67688624D01*
X110976852Y-67871412D01*
X110821412Y-68026852D01*
X110821409Y-68026854D01*
X110638624Y-68148987D01*
X110435525Y-68233113D01*
X110363655Y-68247409D01*
X110219918Y-68276000D01*
X110000082Y-68276000D01*
X109856345Y-68247409D01*
X109784475Y-68233113D01*
X109581376Y-68148987D01*
X109398591Y-68026854D01*
X109398588Y-68026852D01*
X109243148Y-67871412D01*
X109121013Y-67688624D01*
X109036887Y-67485524D01*
X108994000Y-67269918D01*
X108994000Y-67050082D01*
X109036887Y-66834476D01*
X109121013Y-66631376D01*
X109243148Y-66448588D01*
X109398588Y-66293148D01*
X109581376Y-66171013D01*
X109784475Y-66086887D01*
X109856345Y-66072591D01*
X110000082Y-66044000D01*
X110219918Y-66044000D01*
X110363655Y-66072591D01*
X110363655Y-66072591D01*
G37*
G36*
X128143655Y-66072591D02*
X128215525Y-66086887D01*
X128418624Y-66171013D01*
X128601412Y-66293148D01*
X128756852Y-66448588D01*
X128878987Y-66631376D01*
X128963113Y-66834476D01*
X129006000Y-67050082D01*
X129006000Y-67269918D01*
X128963113Y-67485524D01*
X128878987Y-67688624D01*
X128756852Y-67871412D01*
X128601412Y-68026852D01*
X128601409Y-68026854D01*
X128418624Y-68148987D01*
X128215525Y-68233113D01*
X128143655Y-68247409D01*
X127999918Y-68276000D01*
X127780082Y-68276000D01*
X127636345Y-68247409D01*
X127564475Y-68233113D01*
X127361376Y-68148987D01*
X127178591Y-68026854D01*
X127178588Y-68026852D01*
X127023148Y-67871412D01*
X126901013Y-67688624D01*
X126816887Y-67485524D01*
X126774000Y-67269918D01*
X126774000Y-67050082D01*
X126816887Y-66834476D01*
X126901013Y-66631376D01*
X127023148Y-66448588D01*
X127178588Y-66293148D01*
X127361376Y-66171013D01*
X127564475Y-66086887D01*
X127636345Y-66072591D01*
X127780082Y-66044000D01*
X127999918Y-66044000D01*
X128143655Y-66072591D01*
X128143655Y-66072591D01*
G37*
G36*
X181483655Y-57772591D02*
X181555525Y-57786887D01*
X181758624Y-57871013D01*
X181941412Y-57993148D01*
X182096852Y-58148588D01*
X182218987Y-58331376D01*
X182303113Y-58534476D01*
X182346000Y-58750082D01*
X182346000Y-58969918D01*
X182303113Y-59185524D01*
X182218987Y-59388624D01*
X182096852Y-59571412D01*
X181941412Y-59726852D01*
X181941409Y-59726854D01*
X181758624Y-59848987D01*
X181555525Y-59933113D01*
X181483655Y-59947409D01*
X181339918Y-59976000D01*
X181120082Y-59976000D01*
X180976345Y-59947409D01*
X180904475Y-59933113D01*
X180701376Y-59848987D01*
X180518591Y-59726854D01*
X180518588Y-59726852D01*
X180363148Y-59571412D01*
X180241013Y-59388624D01*
X180156887Y-59185524D01*
X180114000Y-58969918D01*
X180114000Y-58750082D01*
X180156887Y-58534476D01*
X180241013Y-58331376D01*
X180363148Y-58148588D01*
X180518588Y-57993148D01*
X180701376Y-57871013D01*
X180904475Y-57786887D01*
X180976345Y-57772591D01*
X181120082Y-57744000D01*
X181339918Y-57744000D01*
X181483655Y-57772591D01*
X181483655Y-57772591D01*
G37*
G36*
X74803655Y-57772591D02*
X74875525Y-57786887D01*
X75078624Y-57871013D01*
X75261412Y-57993148D01*
X75416852Y-58148588D01*
X75538987Y-58331376D01*
X75623113Y-58534476D01*
X75666000Y-58750082D01*
X75666000Y-58969918D01*
X75623113Y-59185524D01*
X75538987Y-59388624D01*
X75416852Y-59571412D01*
X75261412Y-59726852D01*
X75261409Y-59726854D01*
X75078624Y-59848987D01*
X74875525Y-59933113D01*
X74803655Y-59947409D01*
X74659918Y-59976000D01*
X74440082Y-59976000D01*
X74296345Y-59947409D01*
X74224475Y-59933113D01*
X74021376Y-59848987D01*
X73838591Y-59726854D01*
X73838588Y-59726852D01*
X73683148Y-59571412D01*
X73561013Y-59388624D01*
X73476887Y-59185524D01*
X73434000Y-58969918D01*
X73434000Y-58750082D01*
X73476887Y-58534476D01*
X73561013Y-58331376D01*
X73683148Y-58148588D01*
X73838588Y-57993148D01*
X74021376Y-57871013D01*
X74224475Y-57786887D01*
X74296345Y-57772591D01*
X74440082Y-57744000D01*
X74659918Y-57744000D01*
X74803655Y-57772591D01*
X74803655Y-57772591D01*
G37*
G36*
X199263655Y-57772591D02*
X199335525Y-57786887D01*
X199538624Y-57871013D01*
X199721412Y-57993148D01*
X199876852Y-58148588D01*
X199998987Y-58331376D01*
X200083113Y-58534476D01*
X200126000Y-58750082D01*
X200126000Y-58969918D01*
X200083113Y-59185524D01*
X199998987Y-59388624D01*
X199876852Y-59571412D01*
X199721412Y-59726852D01*
X199721409Y-59726854D01*
X199538624Y-59848987D01*
X199335525Y-59933113D01*
X199263655Y-59947409D01*
X199119918Y-59976000D01*
X198900082Y-59976000D01*
X198756345Y-59947409D01*
X198684475Y-59933113D01*
X198481376Y-59848987D01*
X198298591Y-59726854D01*
X198298588Y-59726852D01*
X198143148Y-59571412D01*
X198021013Y-59388624D01*
X197936887Y-59185524D01*
X197894000Y-58969918D01*
X197894000Y-58750082D01*
X197936887Y-58534476D01*
X198021013Y-58331376D01*
X198143148Y-58148588D01*
X198298588Y-57993148D01*
X198481376Y-57871013D01*
X198684475Y-57786887D01*
X198756345Y-57772591D01*
X198900082Y-57744000D01*
X199119918Y-57744000D01*
X199263655Y-57772591D01*
X199263655Y-57772591D01*
G37*
G36*
X128143655Y-57772591D02*
X128215525Y-57786887D01*
X128418624Y-57871013D01*
X128601412Y-57993148D01*
X128756852Y-58148588D01*
X128878987Y-58331376D01*
X128963113Y-58534476D01*
X129006000Y-58750082D01*
X129006000Y-58969918D01*
X128963113Y-59185524D01*
X128878987Y-59388624D01*
X128756852Y-59571412D01*
X128601412Y-59726852D01*
X128601409Y-59726854D01*
X128418624Y-59848987D01*
X128215525Y-59933113D01*
X128143655Y-59947409D01*
X127999918Y-59976000D01*
X127780082Y-59976000D01*
X127636345Y-59947409D01*
X127564475Y-59933113D01*
X127361376Y-59848987D01*
X127178591Y-59726854D01*
X127178588Y-59726852D01*
X127023148Y-59571412D01*
X126901013Y-59388624D01*
X126816887Y-59185524D01*
X126774000Y-58969918D01*
X126774000Y-58750082D01*
X126816887Y-58534476D01*
X126901013Y-58331376D01*
X127023148Y-58148588D01*
X127178588Y-57993148D01*
X127361376Y-57871013D01*
X127564475Y-57786887D01*
X127636345Y-57772591D01*
X127780082Y-57744000D01*
X127999918Y-57744000D01*
X128143655Y-57772591D01*
X128143655Y-57772591D01*
G37*
G36*
X145923655Y-57772591D02*
X145995525Y-57786887D01*
X146198624Y-57871013D01*
X146381412Y-57993148D01*
X146536852Y-58148588D01*
X146658987Y-58331376D01*
X146743113Y-58534476D01*
X146786000Y-58750082D01*
X146786000Y-58969918D01*
X146743113Y-59185524D01*
X146658987Y-59388624D01*
X146536852Y-59571412D01*
X146381412Y-59726852D01*
X146381409Y-59726854D01*
X146198624Y-59848987D01*
X145995525Y-59933113D01*
X145923655Y-59947409D01*
X145779918Y-59976000D01*
X145560082Y-59976000D01*
X145416345Y-59947409D01*
X145344475Y-59933113D01*
X145141376Y-59848987D01*
X144958591Y-59726854D01*
X144958588Y-59726852D01*
X144803148Y-59571412D01*
X144681013Y-59388624D01*
X144596887Y-59185524D01*
X144554000Y-58969918D01*
X144554000Y-58750082D01*
X144596887Y-58534476D01*
X144681013Y-58331376D01*
X144803148Y-58148588D01*
X144958588Y-57993148D01*
X145141376Y-57871013D01*
X145344475Y-57786887D01*
X145416345Y-57772591D01*
X145560082Y-57744000D01*
X145779918Y-57744000D01*
X145923655Y-57772591D01*
X145923655Y-57772591D01*
G37*
G36*
X163703655Y-57772591D02*
X163775525Y-57786887D01*
X163978624Y-57871013D01*
X164161412Y-57993148D01*
X164316852Y-58148588D01*
X164438987Y-58331376D01*
X164523113Y-58534476D01*
X164566000Y-58750082D01*
X164566000Y-58969918D01*
X164523113Y-59185524D01*
X164438987Y-59388624D01*
X164316852Y-59571412D01*
X164161412Y-59726852D01*
X164161409Y-59726854D01*
X163978624Y-59848987D01*
X163775525Y-59933113D01*
X163703655Y-59947409D01*
X163559918Y-59976000D01*
X163340082Y-59976000D01*
X163196345Y-59947409D01*
X163124475Y-59933113D01*
X162921376Y-59848987D01*
X162738591Y-59726854D01*
X162738588Y-59726852D01*
X162583148Y-59571412D01*
X162461013Y-59388624D01*
X162376887Y-59185524D01*
X162334000Y-58969918D01*
X162334000Y-58750082D01*
X162376887Y-58534476D01*
X162461013Y-58331376D01*
X162583148Y-58148588D01*
X162738588Y-57993148D01*
X162921376Y-57871013D01*
X163124475Y-57786887D01*
X163196345Y-57772591D01*
X163340082Y-57744000D01*
X163559918Y-57744000D01*
X163703655Y-57772591D01*
X163703655Y-57772591D01*
G37*
G36*
X92583655Y-57772591D02*
X92655525Y-57786887D01*
X92858624Y-57871013D01*
X93041412Y-57993148D01*
X93196852Y-58148588D01*
X93318987Y-58331376D01*
X93403113Y-58534476D01*
X93446000Y-58750082D01*
X93446000Y-58969918D01*
X93403113Y-59185524D01*
X93318987Y-59388624D01*
X93196852Y-59571412D01*
X93041412Y-59726852D01*
X93041409Y-59726854D01*
X92858624Y-59848987D01*
X92655525Y-59933113D01*
X92583655Y-59947409D01*
X92439918Y-59976000D01*
X92220082Y-59976000D01*
X92076345Y-59947409D01*
X92004475Y-59933113D01*
X91801376Y-59848987D01*
X91618591Y-59726854D01*
X91618588Y-59726852D01*
X91463148Y-59571412D01*
X91341013Y-59388624D01*
X91256887Y-59185524D01*
X91214000Y-58969918D01*
X91214000Y-58750082D01*
X91256887Y-58534476D01*
X91341013Y-58331376D01*
X91463148Y-58148588D01*
X91618588Y-57993148D01*
X91801376Y-57871013D01*
X92004475Y-57786887D01*
X92076345Y-57772591D01*
X92220082Y-57744000D01*
X92439918Y-57744000D01*
X92583655Y-57772591D01*
X92583655Y-57772591D01*
G37*
G36*
X110363655Y-57772591D02*
X110435525Y-57786887D01*
X110638624Y-57871013D01*
X110821412Y-57993148D01*
X110976852Y-58148588D01*
X111098987Y-58331376D01*
X111183113Y-58534476D01*
X111226000Y-58750082D01*
X111226000Y-58969918D01*
X111183113Y-59185524D01*
X111098987Y-59388624D01*
X110976852Y-59571412D01*
X110821412Y-59726852D01*
X110821409Y-59726854D01*
X110638624Y-59848987D01*
X110435525Y-59933113D01*
X110363655Y-59947409D01*
X110219918Y-59976000D01*
X110000082Y-59976000D01*
X109856345Y-59947409D01*
X109784475Y-59933113D01*
X109581376Y-59848987D01*
X109398591Y-59726854D01*
X109398588Y-59726852D01*
X109243148Y-59571412D01*
X109121013Y-59388624D01*
X109036887Y-59185524D01*
X108994000Y-58969918D01*
X108994000Y-58750082D01*
X109036887Y-58534476D01*
X109121013Y-58331376D01*
X109243148Y-58148588D01*
X109398588Y-57993148D01*
X109581376Y-57871013D01*
X109784475Y-57786887D01*
X109856345Y-57772591D01*
X110000082Y-57744000D01*
X110219918Y-57744000D01*
X110363655Y-57772591D01*
X110363655Y-57772591D01*
G37*
G36*
X144121000Y-55971000D02*
X142219000Y-55971000D01*
X142219000Y-54069000D01*
X144121000Y-54069000D01*
X144121000Y-55971000D01*
X144121000Y-55971000D01*
G37*
G36*
X145947396Y-54105546D02*
X146120466Y-54177234D01*
X146276230Y-54281312D01*
X146408688Y-54413770D01*
X146512766Y-54569534D01*
X146584454Y-54742604D01*
X146621000Y-54926333D01*
X146621000Y-55113667D01*
X146584454Y-55297396D01*
X146512766Y-55470466D01*
X146408688Y-55626230D01*
X146276230Y-55758688D01*
X146120466Y-55862766D01*
X145947396Y-55934454D01*
X145763667Y-55971000D01*
X145576333Y-55971000D01*
X145392604Y-55934454D01*
X145219534Y-55862766D01*
X145063770Y-55758688D01*
X144931312Y-55626230D01*
X144827234Y-55470466D01*
X144755546Y-55297396D01*
X144719000Y-55113667D01*
X144719000Y-54926333D01*
X144755546Y-54742604D01*
X144827234Y-54569534D01*
X144931312Y-54413770D01*
X145063770Y-54281312D01*
X145219534Y-54177234D01*
X145392604Y-54105546D01*
X145576333Y-54069000D01*
X145763667Y-54069000D01*
X145947396Y-54105546D01*
X145947396Y-54105546D01*
G37*
G36*
X148447396Y-54105546D02*
X148620466Y-54177234D01*
X148776230Y-54281312D01*
X148908688Y-54413770D01*
X149012766Y-54569534D01*
X149084454Y-54742604D01*
X149121000Y-54926333D01*
X149121000Y-55113667D01*
X149084454Y-55297396D01*
X149012766Y-55470466D01*
X148908688Y-55626230D01*
X148776230Y-55758688D01*
X148620466Y-55862766D01*
X148447396Y-55934454D01*
X148263667Y-55971000D01*
X148076333Y-55971000D01*
X147892604Y-55934454D01*
X147719534Y-55862766D01*
X147563770Y-55758688D01*
X147431312Y-55626230D01*
X147327234Y-55470466D01*
X147255546Y-55297396D01*
X147219000Y-55113667D01*
X147219000Y-54926333D01*
X147255546Y-54742604D01*
X147327234Y-54569534D01*
X147431312Y-54413770D01*
X147563770Y-54281312D01*
X147719534Y-54177234D01*
X147892604Y-54105546D01*
X148076333Y-54069000D01*
X148263667Y-54069000D01*
X148447396Y-54105546D01*
X148447396Y-54105546D01*
G37*
G36*
X112887396Y-54105546D02*
X113060466Y-54177234D01*
X113216230Y-54281312D01*
X113348688Y-54413770D01*
X113452766Y-54569534D01*
X113524454Y-54742604D01*
X113561000Y-54926333D01*
X113561000Y-55113667D01*
X113524454Y-55297396D01*
X113452766Y-55470466D01*
X113348688Y-55626230D01*
X113216230Y-55758688D01*
X113060466Y-55862766D01*
X112887396Y-55934454D01*
X112703667Y-55971000D01*
X112516333Y-55971000D01*
X112332604Y-55934454D01*
X112159534Y-55862766D01*
X112003770Y-55758688D01*
X111871312Y-55626230D01*
X111767234Y-55470466D01*
X111695546Y-55297396D01*
X111659000Y-55113667D01*
X111659000Y-54926333D01*
X111695546Y-54742604D01*
X111767234Y-54569534D01*
X111871312Y-54413770D01*
X112003770Y-54281312D01*
X112159534Y-54177234D01*
X112332604Y-54105546D01*
X112516333Y-54069000D01*
X112703667Y-54069000D01*
X112887396Y-54105546D01*
X112887396Y-54105546D01*
G37*
G36*
X110387396Y-54105546D02*
X110560466Y-54177234D01*
X110716230Y-54281312D01*
X110848688Y-54413770D01*
X110952766Y-54569534D01*
X111024454Y-54742604D01*
X111061000Y-54926333D01*
X111061000Y-55113667D01*
X111024454Y-55297396D01*
X110952766Y-55470466D01*
X110848688Y-55626230D01*
X110716230Y-55758688D01*
X110560466Y-55862766D01*
X110387396Y-55934454D01*
X110203667Y-55971000D01*
X110016333Y-55971000D01*
X109832604Y-55934454D01*
X109659534Y-55862766D01*
X109503770Y-55758688D01*
X109371312Y-55626230D01*
X109267234Y-55470466D01*
X109195546Y-55297396D01*
X109159000Y-55113667D01*
X109159000Y-54926333D01*
X109195546Y-54742604D01*
X109267234Y-54569534D01*
X109371312Y-54413770D01*
X109503770Y-54281312D01*
X109659534Y-54177234D01*
X109832604Y-54105546D01*
X110016333Y-54069000D01*
X110203667Y-54069000D01*
X110387396Y-54105546D01*
X110387396Y-54105546D01*
G37*
G36*
X161901000Y-55971000D02*
X159999000Y-55971000D01*
X159999000Y-54069000D01*
X161901000Y-54069000D01*
X161901000Y-55971000D01*
X161901000Y-55971000D01*
G37*
G36*
X163727396Y-54105546D02*
X163900466Y-54177234D01*
X164056230Y-54281312D01*
X164188688Y-54413770D01*
X164292766Y-54569534D01*
X164364454Y-54742604D01*
X164401000Y-54926333D01*
X164401000Y-55113667D01*
X164364454Y-55297396D01*
X164292766Y-55470466D01*
X164188688Y-55626230D01*
X164056230Y-55758688D01*
X163900466Y-55862766D01*
X163727396Y-55934454D01*
X163543667Y-55971000D01*
X163356333Y-55971000D01*
X163172604Y-55934454D01*
X162999534Y-55862766D01*
X162843770Y-55758688D01*
X162711312Y-55626230D01*
X162607234Y-55470466D01*
X162535546Y-55297396D01*
X162499000Y-55113667D01*
X162499000Y-54926333D01*
X162535546Y-54742604D01*
X162607234Y-54569534D01*
X162711312Y-54413770D01*
X162843770Y-54281312D01*
X162999534Y-54177234D01*
X163172604Y-54105546D01*
X163356333Y-54069000D01*
X163543667Y-54069000D01*
X163727396Y-54105546D01*
X163727396Y-54105546D01*
G37*
G36*
X166227396Y-54105546D02*
X166400466Y-54177234D01*
X166556230Y-54281312D01*
X166688688Y-54413770D01*
X166792766Y-54569534D01*
X166864454Y-54742604D01*
X166901000Y-54926333D01*
X166901000Y-55113667D01*
X166864454Y-55297396D01*
X166792766Y-55470466D01*
X166688688Y-55626230D01*
X166556230Y-55758688D01*
X166400466Y-55862766D01*
X166227396Y-55934454D01*
X166043667Y-55971000D01*
X165856333Y-55971000D01*
X165672604Y-55934454D01*
X165499534Y-55862766D01*
X165343770Y-55758688D01*
X165211312Y-55626230D01*
X165107234Y-55470466D01*
X165035546Y-55297396D01*
X164999000Y-55113667D01*
X164999000Y-54926333D01*
X165035546Y-54742604D01*
X165107234Y-54569534D01*
X165211312Y-54413770D01*
X165343770Y-54281312D01*
X165499534Y-54177234D01*
X165672604Y-54105546D01*
X165856333Y-54069000D01*
X166043667Y-54069000D01*
X166227396Y-54105546D01*
X166227396Y-54105546D01*
G37*
G36*
X74827396Y-54105546D02*
X75000466Y-54177234D01*
X75156230Y-54281312D01*
X75288688Y-54413770D01*
X75392766Y-54569534D01*
X75464454Y-54742604D01*
X75501000Y-54926333D01*
X75501000Y-55113667D01*
X75464454Y-55297396D01*
X75392766Y-55470466D01*
X75288688Y-55626230D01*
X75156230Y-55758688D01*
X75000466Y-55862766D01*
X74827396Y-55934454D01*
X74643667Y-55971000D01*
X74456333Y-55971000D01*
X74272604Y-55934454D01*
X74099534Y-55862766D01*
X73943770Y-55758688D01*
X73811312Y-55626230D01*
X73707234Y-55470466D01*
X73635546Y-55297396D01*
X73599000Y-55113667D01*
X73599000Y-54926333D01*
X73635546Y-54742604D01*
X73707234Y-54569534D01*
X73811312Y-54413770D01*
X73943770Y-54281312D01*
X74099534Y-54177234D01*
X74272604Y-54105546D01*
X74456333Y-54069000D01*
X74643667Y-54069000D01*
X74827396Y-54105546D01*
X74827396Y-54105546D01*
G37*
G36*
X108561000Y-55971000D02*
X106659000Y-55971000D01*
X106659000Y-54069000D01*
X108561000Y-54069000D01*
X108561000Y-55971000D01*
X108561000Y-55971000D01*
G37*
G36*
X130667396Y-54105546D02*
X130840466Y-54177234D01*
X130996230Y-54281312D01*
X131128688Y-54413770D01*
X131232766Y-54569534D01*
X131304454Y-54742604D01*
X131341000Y-54926333D01*
X131341000Y-55113667D01*
X131304454Y-55297396D01*
X131232766Y-55470466D01*
X131128688Y-55626230D01*
X130996230Y-55758688D01*
X130840466Y-55862766D01*
X130667396Y-55934454D01*
X130483667Y-55971000D01*
X130296333Y-55971000D01*
X130112604Y-55934454D01*
X129939534Y-55862766D01*
X129783770Y-55758688D01*
X129651312Y-55626230D01*
X129547234Y-55470466D01*
X129475546Y-55297396D01*
X129439000Y-55113667D01*
X129439000Y-54926333D01*
X129475546Y-54742604D01*
X129547234Y-54569534D01*
X129651312Y-54413770D01*
X129783770Y-54281312D01*
X129939534Y-54177234D01*
X130112604Y-54105546D01*
X130296333Y-54069000D01*
X130483667Y-54069000D01*
X130667396Y-54105546D01*
X130667396Y-54105546D01*
G37*
G36*
X128167396Y-54105546D02*
X128340466Y-54177234D01*
X128496230Y-54281312D01*
X128628688Y-54413770D01*
X128732766Y-54569534D01*
X128804454Y-54742604D01*
X128841000Y-54926333D01*
X128841000Y-55113667D01*
X128804454Y-55297396D01*
X128732766Y-55470466D01*
X128628688Y-55626230D01*
X128496230Y-55758688D01*
X128340466Y-55862766D01*
X128167396Y-55934454D01*
X127983667Y-55971000D01*
X127796333Y-55971000D01*
X127612604Y-55934454D01*
X127439534Y-55862766D01*
X127283770Y-55758688D01*
X127151312Y-55626230D01*
X127047234Y-55470466D01*
X126975546Y-55297396D01*
X126939000Y-55113667D01*
X126939000Y-54926333D01*
X126975546Y-54742604D01*
X127047234Y-54569534D01*
X127151312Y-54413770D01*
X127283770Y-54281312D01*
X127439534Y-54177234D01*
X127612604Y-54105546D01*
X127796333Y-54069000D01*
X127983667Y-54069000D01*
X128167396Y-54105546D01*
X128167396Y-54105546D01*
G37*
G36*
X184007396Y-54105546D02*
X184180466Y-54177234D01*
X184336230Y-54281312D01*
X184468688Y-54413770D01*
X184572766Y-54569534D01*
X184644454Y-54742604D01*
X184681000Y-54926333D01*
X184681000Y-55113667D01*
X184644454Y-55297396D01*
X184572766Y-55470466D01*
X184468688Y-55626230D01*
X184336230Y-55758688D01*
X184180466Y-55862766D01*
X184007396Y-55934454D01*
X183823667Y-55971000D01*
X183636333Y-55971000D01*
X183452604Y-55934454D01*
X183279534Y-55862766D01*
X183123770Y-55758688D01*
X182991312Y-55626230D01*
X182887234Y-55470466D01*
X182815546Y-55297396D01*
X182779000Y-55113667D01*
X182779000Y-54926333D01*
X182815546Y-54742604D01*
X182887234Y-54569534D01*
X182991312Y-54413770D01*
X183123770Y-54281312D01*
X183279534Y-54177234D01*
X183452604Y-54105546D01*
X183636333Y-54069000D01*
X183823667Y-54069000D01*
X184007396Y-54105546D01*
X184007396Y-54105546D01*
G37*
G36*
X181507396Y-54105546D02*
X181680466Y-54177234D01*
X181836230Y-54281312D01*
X181968688Y-54413770D01*
X182072766Y-54569534D01*
X182144454Y-54742604D01*
X182181000Y-54926333D01*
X182181000Y-55113667D01*
X182144454Y-55297396D01*
X182072766Y-55470466D01*
X181968688Y-55626230D01*
X181836230Y-55758688D01*
X181680466Y-55862766D01*
X181507396Y-55934454D01*
X181323667Y-55971000D01*
X181136333Y-55971000D01*
X180952604Y-55934454D01*
X180779534Y-55862766D01*
X180623770Y-55758688D01*
X180491312Y-55626230D01*
X180387234Y-55470466D01*
X180315546Y-55297396D01*
X180279000Y-55113667D01*
X180279000Y-54926333D01*
X180315546Y-54742604D01*
X180387234Y-54569534D01*
X180491312Y-54413770D01*
X180623770Y-54281312D01*
X180779534Y-54177234D01*
X180952604Y-54105546D01*
X181136333Y-54069000D01*
X181323667Y-54069000D01*
X181507396Y-54105546D01*
X181507396Y-54105546D01*
G37*
G36*
X179681000Y-55971000D02*
X177779000Y-55971000D01*
X177779000Y-54069000D01*
X179681000Y-54069000D01*
X179681000Y-55971000D01*
X179681000Y-55971000D01*
G37*
G36*
X197461000Y-55971000D02*
X195559000Y-55971000D01*
X195559000Y-54069000D01*
X197461000Y-54069000D01*
X197461000Y-55971000D01*
X197461000Y-55971000D01*
G37*
G36*
X199287396Y-54105546D02*
X199460466Y-54177234D01*
X199616230Y-54281312D01*
X199748688Y-54413770D01*
X199852766Y-54569534D01*
X199924454Y-54742604D01*
X199961000Y-54926333D01*
X199961000Y-55113667D01*
X199924454Y-55297396D01*
X199852766Y-55470466D01*
X199748688Y-55626230D01*
X199616230Y-55758688D01*
X199460466Y-55862766D01*
X199287396Y-55934454D01*
X199103667Y-55971000D01*
X198916333Y-55971000D01*
X198732604Y-55934454D01*
X198559534Y-55862766D01*
X198403770Y-55758688D01*
X198271312Y-55626230D01*
X198167234Y-55470466D01*
X198095546Y-55297396D01*
X198059000Y-55113667D01*
X198059000Y-54926333D01*
X198095546Y-54742604D01*
X198167234Y-54569534D01*
X198271312Y-54413770D01*
X198403770Y-54281312D01*
X198559534Y-54177234D01*
X198732604Y-54105546D01*
X198916333Y-54069000D01*
X199103667Y-54069000D01*
X199287396Y-54105546D01*
X199287396Y-54105546D01*
G37*
G36*
X201787396Y-54105546D02*
X201960466Y-54177234D01*
X202116230Y-54281312D01*
X202248688Y-54413770D01*
X202352766Y-54569534D01*
X202424454Y-54742604D01*
X202461000Y-54926333D01*
X202461000Y-55113667D01*
X202424454Y-55297396D01*
X202352766Y-55470466D01*
X202248688Y-55626230D01*
X202116230Y-55758688D01*
X201960466Y-55862766D01*
X201787396Y-55934454D01*
X201603667Y-55971000D01*
X201416333Y-55971000D01*
X201232604Y-55934454D01*
X201059534Y-55862766D01*
X200903770Y-55758688D01*
X200771312Y-55626230D01*
X200667234Y-55470466D01*
X200595546Y-55297396D01*
X200559000Y-55113667D01*
X200559000Y-54926333D01*
X200595546Y-54742604D01*
X200667234Y-54569534D01*
X200771312Y-54413770D01*
X200903770Y-54281312D01*
X201059534Y-54177234D01*
X201232604Y-54105546D01*
X201416333Y-54069000D01*
X201603667Y-54069000D01*
X201787396Y-54105546D01*
X201787396Y-54105546D01*
G37*
G36*
X126341000Y-55971000D02*
X124439000Y-55971000D01*
X124439000Y-54069000D01*
X126341000Y-54069000D01*
X126341000Y-55971000D01*
X126341000Y-55971000D01*
G37*
G36*
X95107396Y-54105546D02*
X95280466Y-54177234D01*
X95436230Y-54281312D01*
X95568688Y-54413770D01*
X95672766Y-54569534D01*
X95744454Y-54742604D01*
X95781000Y-54926333D01*
X95781000Y-55113667D01*
X95744454Y-55297396D01*
X95672766Y-55470466D01*
X95568688Y-55626230D01*
X95436230Y-55758688D01*
X95280466Y-55862766D01*
X95107396Y-55934454D01*
X94923667Y-55971000D01*
X94736333Y-55971000D01*
X94552604Y-55934454D01*
X94379534Y-55862766D01*
X94223770Y-55758688D01*
X94091312Y-55626230D01*
X93987234Y-55470466D01*
X93915546Y-55297396D01*
X93879000Y-55113667D01*
X93879000Y-54926333D01*
X93915546Y-54742604D01*
X93987234Y-54569534D01*
X94091312Y-54413770D01*
X94223770Y-54281312D01*
X94379534Y-54177234D01*
X94552604Y-54105546D01*
X94736333Y-54069000D01*
X94923667Y-54069000D01*
X95107396Y-54105546D01*
X95107396Y-54105546D01*
G37*
G36*
X92607396Y-54105546D02*
X92780466Y-54177234D01*
X92936230Y-54281312D01*
X93068688Y-54413770D01*
X93172766Y-54569534D01*
X93244454Y-54742604D01*
X93281000Y-54926333D01*
X93281000Y-55113667D01*
X93244454Y-55297396D01*
X93172766Y-55470466D01*
X93068688Y-55626230D01*
X92936230Y-55758688D01*
X92780466Y-55862766D01*
X92607396Y-55934454D01*
X92423667Y-55971000D01*
X92236333Y-55971000D01*
X92052604Y-55934454D01*
X91879534Y-55862766D01*
X91723770Y-55758688D01*
X91591312Y-55626230D01*
X91487234Y-55470466D01*
X91415546Y-55297396D01*
X91379000Y-55113667D01*
X91379000Y-54926333D01*
X91415546Y-54742604D01*
X91487234Y-54569534D01*
X91591312Y-54413770D01*
X91723770Y-54281312D01*
X91879534Y-54177234D01*
X92052604Y-54105546D01*
X92236333Y-54069000D01*
X92423667Y-54069000D01*
X92607396Y-54105546D01*
X92607396Y-54105546D01*
G37*
G36*
X90781000Y-55971000D02*
X88879000Y-55971000D01*
X88879000Y-54069000D01*
X90781000Y-54069000D01*
X90781000Y-55971000D01*
X90781000Y-55971000D01*
G37*
G36*
X73001000Y-55971000D02*
X71099000Y-55971000D01*
X71099000Y-54069000D01*
X73001000Y-54069000D01*
X73001000Y-55971000D01*
X73001000Y-55971000D01*
G37*
G36*
X77327396Y-54105546D02*
X77500466Y-54177234D01*
X77656230Y-54281312D01*
X77788688Y-54413770D01*
X77892766Y-54569534D01*
X77964454Y-54742604D01*
X78001000Y-54926333D01*
X78001000Y-55113667D01*
X77964454Y-55297396D01*
X77892766Y-55470466D01*
X77788688Y-55626230D01*
X77656230Y-55758688D01*
X77500466Y-55862766D01*
X77327396Y-55934454D01*
X77143667Y-55971000D01*
X76956333Y-55971000D01*
X76772604Y-55934454D01*
X76599534Y-55862766D01*
X76443770Y-55758688D01*
X76311312Y-55626230D01*
X76207234Y-55470466D01*
X76135546Y-55297396D01*
X76099000Y-55113667D01*
X76099000Y-54926333D01*
X76135546Y-54742604D01*
X76207234Y-54569534D01*
X76311312Y-54413770D01*
X76443770Y-54281312D01*
X76599534Y-54177234D01*
X76772604Y-54105546D01*
X76956333Y-54069000D01*
X77143667Y-54069000D01*
X77327396Y-54105546D01*
X77327396Y-54105546D01*
G37*
G36*
X70026604Y-45869416D02*
X70292579Y-45950099D01*
X70292581Y-45950100D01*
X70292584Y-45950101D01*
X70537703Y-46081119D01*
X70752555Y-46257445D01*
X70928881Y-46472297D01*
X71059900Y-46717417D01*
X71059901Y-46717421D01*
X71140584Y-46983397D01*
X71161000Y-47190685D01*
X71161000Y-47849316D01*
X71140584Y-48056604D01*
X71059901Y-48322578D01*
X71059899Y-48322584D01*
X70928881Y-48567703D01*
X70752555Y-48782555D01*
X70537702Y-48958881D01*
X70292583Y-49089899D01*
X70292580Y-49089900D01*
X70292578Y-49089901D01*
X70026603Y-49170584D01*
X69750000Y-49197827D01*
X69473396Y-49170584D01*
X69207421Y-49089901D01*
X69207419Y-49089900D01*
X69207416Y-49089899D01*
X68962297Y-48958881D01*
X68747445Y-48782555D01*
X68571119Y-48567702D01*
X68440101Y-48322583D01*
X68440099Y-48322578D01*
X68359416Y-48056603D01*
X68339000Y-47849315D01*
X68339000Y-47190684D01*
X68359416Y-46983396D01*
X68440099Y-46717421D01*
X68440101Y-46717417D01*
X68440101Y-46717416D01*
X68571119Y-46472297D01*
X68747445Y-46257445D01*
X68962298Y-46081119D01*
X69207417Y-45950101D01*
X69207420Y-45950100D01*
X69207422Y-45950099D01*
X69473397Y-45869416D01*
X69750000Y-45842173D01*
X70026604Y-45869416D01*
X70026604Y-45869416D01*
G37*
G36*
X79626604Y-45869416D02*
X79892579Y-45950099D01*
X79892581Y-45950100D01*
X79892584Y-45950101D01*
X80137703Y-46081119D01*
X80352555Y-46257445D01*
X80528881Y-46472297D01*
X80659900Y-46717417D01*
X80659901Y-46717421D01*
X80740584Y-46983397D01*
X80761000Y-47190685D01*
X80761000Y-47849316D01*
X80740584Y-48056604D01*
X80659901Y-48322578D01*
X80659899Y-48322584D01*
X80528881Y-48567703D01*
X80352555Y-48782555D01*
X80137702Y-48958881D01*
X79892583Y-49089899D01*
X79892580Y-49089900D01*
X79892578Y-49089901D01*
X79626603Y-49170584D01*
X79350000Y-49197827D01*
X79073396Y-49170584D01*
X78807421Y-49089901D01*
X78807419Y-49089900D01*
X78807416Y-49089899D01*
X78562297Y-48958881D01*
X78347445Y-48782555D01*
X78171119Y-48567702D01*
X78040101Y-48322583D01*
X78040099Y-48322578D01*
X77959416Y-48056603D01*
X77939000Y-47849315D01*
X77939000Y-47190684D01*
X77959416Y-46983396D01*
X78040099Y-46717421D01*
X78040101Y-46717417D01*
X78040101Y-46717416D01*
X78171119Y-46472297D01*
X78347445Y-46257445D01*
X78562298Y-46081119D01*
X78807417Y-45950101D01*
X78807420Y-45950100D01*
X78807422Y-45950099D01*
X79073397Y-45869416D01*
X79350000Y-45842173D01*
X79626604Y-45869416D01*
X79626604Y-45869416D01*
G37*
G36*
X87806604Y-45869416D02*
X88072579Y-45950099D01*
X88072581Y-45950100D01*
X88072584Y-45950101D01*
X88317703Y-46081119D01*
X88532555Y-46257445D01*
X88708881Y-46472297D01*
X88839900Y-46717417D01*
X88839901Y-46717421D01*
X88920584Y-46983397D01*
X88941000Y-47190685D01*
X88941000Y-47849316D01*
X88920584Y-48056604D01*
X88839901Y-48322578D01*
X88839899Y-48322584D01*
X88708881Y-48567703D01*
X88532555Y-48782555D01*
X88317702Y-48958881D01*
X88072583Y-49089899D01*
X88072580Y-49089900D01*
X88072578Y-49089901D01*
X87806603Y-49170584D01*
X87530000Y-49197827D01*
X87253396Y-49170584D01*
X86987421Y-49089901D01*
X86987419Y-49089900D01*
X86987416Y-49089899D01*
X86742297Y-48958881D01*
X86527445Y-48782555D01*
X86351119Y-48567702D01*
X86220101Y-48322583D01*
X86220099Y-48322578D01*
X86139416Y-48056603D01*
X86119000Y-47849315D01*
X86119000Y-47190684D01*
X86139416Y-46983396D01*
X86220099Y-46717421D01*
X86220101Y-46717417D01*
X86220101Y-46717416D01*
X86351119Y-46472297D01*
X86527445Y-46257445D01*
X86742298Y-46081119D01*
X86987417Y-45950101D01*
X86987420Y-45950100D01*
X86987422Y-45950099D01*
X87253397Y-45869416D01*
X87530000Y-45842173D01*
X87806604Y-45869416D01*
X87806604Y-45869416D01*
G37*
G36*
X97406604Y-45869416D02*
X97672579Y-45950099D01*
X97672581Y-45950100D01*
X97672584Y-45950101D01*
X97917703Y-46081119D01*
X98132555Y-46257445D01*
X98308881Y-46472297D01*
X98439900Y-46717417D01*
X98439901Y-46717421D01*
X98520584Y-46983397D01*
X98541000Y-47190685D01*
X98541000Y-47849316D01*
X98520584Y-48056604D01*
X98439901Y-48322578D01*
X98439899Y-48322584D01*
X98308881Y-48567703D01*
X98132555Y-48782555D01*
X97917702Y-48958881D01*
X97672583Y-49089899D01*
X97672580Y-49089900D01*
X97672578Y-49089901D01*
X97406603Y-49170584D01*
X97130000Y-49197827D01*
X96853396Y-49170584D01*
X96587421Y-49089901D01*
X96587419Y-49089900D01*
X96587416Y-49089899D01*
X96342297Y-48958881D01*
X96127445Y-48782555D01*
X95951119Y-48567702D01*
X95820101Y-48322583D01*
X95820099Y-48322578D01*
X95739416Y-48056603D01*
X95719000Y-47849315D01*
X95719000Y-47190684D01*
X95739416Y-46983396D01*
X95820099Y-46717421D01*
X95820101Y-46717417D01*
X95820101Y-46717416D01*
X95951119Y-46472297D01*
X96127445Y-46257445D01*
X96342298Y-46081119D01*
X96587417Y-45950101D01*
X96587420Y-45950100D01*
X96587422Y-45950099D01*
X96853397Y-45869416D01*
X97130000Y-45842173D01*
X97406604Y-45869416D01*
X97406604Y-45869416D01*
G37*
G36*
X105586604Y-45869416D02*
X105852579Y-45950099D01*
X105852581Y-45950100D01*
X105852584Y-45950101D01*
X106097703Y-46081119D01*
X106312555Y-46257445D01*
X106488881Y-46472297D01*
X106619900Y-46717417D01*
X106619901Y-46717421D01*
X106700584Y-46983397D01*
X106721000Y-47190685D01*
X106721000Y-47849316D01*
X106700584Y-48056604D01*
X106619901Y-48322578D01*
X106619899Y-48322584D01*
X106488881Y-48567703D01*
X106312555Y-48782555D01*
X106097702Y-48958881D01*
X105852583Y-49089899D01*
X105852580Y-49089900D01*
X105852578Y-49089901D01*
X105586603Y-49170584D01*
X105310000Y-49197827D01*
X105033396Y-49170584D01*
X104767421Y-49089901D01*
X104767419Y-49089900D01*
X104767416Y-49089899D01*
X104522297Y-48958881D01*
X104307445Y-48782555D01*
X104131119Y-48567702D01*
X104000101Y-48322583D01*
X104000099Y-48322578D01*
X103919416Y-48056603D01*
X103899000Y-47849315D01*
X103899000Y-47190684D01*
X103919416Y-46983396D01*
X104000099Y-46717421D01*
X104000101Y-46717417D01*
X104000101Y-46717416D01*
X104131119Y-46472297D01*
X104307445Y-46257445D01*
X104522298Y-46081119D01*
X104767417Y-45950101D01*
X104767420Y-45950100D01*
X104767422Y-45950099D01*
X105033397Y-45869416D01*
X105310000Y-45842173D01*
X105586604Y-45869416D01*
X105586604Y-45869416D01*
G37*
G36*
X115186604Y-45869416D02*
X115452579Y-45950099D01*
X115452581Y-45950100D01*
X115452584Y-45950101D01*
X115697703Y-46081119D01*
X115912555Y-46257445D01*
X116088881Y-46472297D01*
X116219900Y-46717417D01*
X116219901Y-46717421D01*
X116300584Y-46983397D01*
X116321000Y-47190685D01*
X116321000Y-47849316D01*
X116300584Y-48056604D01*
X116219901Y-48322578D01*
X116219899Y-48322584D01*
X116088881Y-48567703D01*
X115912555Y-48782555D01*
X115697702Y-48958881D01*
X115452583Y-49089899D01*
X115452580Y-49089900D01*
X115452578Y-49089901D01*
X115186603Y-49170584D01*
X114910000Y-49197827D01*
X114633396Y-49170584D01*
X114367421Y-49089901D01*
X114367419Y-49089900D01*
X114367416Y-49089899D01*
X114122297Y-48958881D01*
X113907445Y-48782555D01*
X113731119Y-48567702D01*
X113600101Y-48322583D01*
X113600099Y-48322578D01*
X113519416Y-48056603D01*
X113499000Y-47849315D01*
X113499000Y-47190684D01*
X113519416Y-46983396D01*
X113600099Y-46717421D01*
X113600101Y-46717417D01*
X113600101Y-46717416D01*
X113731119Y-46472297D01*
X113907445Y-46257445D01*
X114122298Y-46081119D01*
X114367417Y-45950101D01*
X114367420Y-45950100D01*
X114367422Y-45950099D01*
X114633397Y-45869416D01*
X114910000Y-45842173D01*
X115186604Y-45869416D01*
X115186604Y-45869416D01*
G37*
G36*
X123366604Y-45869416D02*
X123632579Y-45950099D01*
X123632581Y-45950100D01*
X123632584Y-45950101D01*
X123877703Y-46081119D01*
X124092555Y-46257445D01*
X124268881Y-46472297D01*
X124399900Y-46717417D01*
X124399901Y-46717421D01*
X124480584Y-46983397D01*
X124501000Y-47190685D01*
X124501000Y-47849316D01*
X124480584Y-48056604D01*
X124399901Y-48322578D01*
X124399899Y-48322584D01*
X124268881Y-48567703D01*
X124092555Y-48782555D01*
X123877702Y-48958881D01*
X123632583Y-49089899D01*
X123632580Y-49089900D01*
X123632578Y-49089901D01*
X123366603Y-49170584D01*
X123090000Y-49197827D01*
X122813396Y-49170584D01*
X122547421Y-49089901D01*
X122547419Y-49089900D01*
X122547416Y-49089899D01*
X122302297Y-48958881D01*
X122087445Y-48782555D01*
X121911119Y-48567702D01*
X121780101Y-48322583D01*
X121780099Y-48322578D01*
X121699416Y-48056603D01*
X121679000Y-47849315D01*
X121679000Y-47190684D01*
X121699416Y-46983396D01*
X121780099Y-46717421D01*
X121780101Y-46717417D01*
X121780101Y-46717416D01*
X121911119Y-46472297D01*
X122087445Y-46257445D01*
X122302298Y-46081119D01*
X122547417Y-45950101D01*
X122547420Y-45950100D01*
X122547422Y-45950099D01*
X122813397Y-45869416D01*
X123090000Y-45842173D01*
X123366604Y-45869416D01*
X123366604Y-45869416D01*
G37*
G36*
X132966604Y-45869416D02*
X133232579Y-45950099D01*
X133232581Y-45950100D01*
X133232584Y-45950101D01*
X133477703Y-46081119D01*
X133692555Y-46257445D01*
X133868881Y-46472297D01*
X133999900Y-46717417D01*
X133999901Y-46717421D01*
X134080584Y-46983397D01*
X134101000Y-47190685D01*
X134101000Y-47849316D01*
X134080584Y-48056604D01*
X133999901Y-48322578D01*
X133999899Y-48322584D01*
X133868881Y-48567703D01*
X133692555Y-48782555D01*
X133477702Y-48958881D01*
X133232583Y-49089899D01*
X133232580Y-49089900D01*
X133232578Y-49089901D01*
X132966603Y-49170584D01*
X132690000Y-49197827D01*
X132413396Y-49170584D01*
X132147421Y-49089901D01*
X132147419Y-49089900D01*
X132147416Y-49089899D01*
X131902297Y-48958881D01*
X131687445Y-48782555D01*
X131511119Y-48567702D01*
X131380101Y-48322583D01*
X131380099Y-48322578D01*
X131299416Y-48056603D01*
X131279000Y-47849315D01*
X131279000Y-47190684D01*
X131299416Y-46983396D01*
X131380099Y-46717421D01*
X131380101Y-46717417D01*
X131380101Y-46717416D01*
X131511119Y-46472297D01*
X131687445Y-46257445D01*
X131902298Y-46081119D01*
X132147417Y-45950101D01*
X132147420Y-45950100D01*
X132147422Y-45950099D01*
X132413397Y-45869416D01*
X132690000Y-45842173D01*
X132966604Y-45869416D01*
X132966604Y-45869416D01*
G37*
G36*
X141146604Y-45869416D02*
X141412579Y-45950099D01*
X141412581Y-45950100D01*
X141412584Y-45950101D01*
X141657703Y-46081119D01*
X141872555Y-46257445D01*
X142048881Y-46472297D01*
X142179900Y-46717417D01*
X142179901Y-46717421D01*
X142260584Y-46983397D01*
X142281000Y-47190685D01*
X142281000Y-47849316D01*
X142260584Y-48056604D01*
X142179901Y-48322578D01*
X142179899Y-48322584D01*
X142048881Y-48567703D01*
X141872555Y-48782555D01*
X141657702Y-48958881D01*
X141412583Y-49089899D01*
X141412580Y-49089900D01*
X141412578Y-49089901D01*
X141146603Y-49170584D01*
X140870000Y-49197827D01*
X140593396Y-49170584D01*
X140327421Y-49089901D01*
X140327419Y-49089900D01*
X140327416Y-49089899D01*
X140082297Y-48958881D01*
X139867445Y-48782555D01*
X139691119Y-48567702D01*
X139560101Y-48322583D01*
X139560099Y-48322578D01*
X139479416Y-48056603D01*
X139459000Y-47849315D01*
X139459000Y-47190684D01*
X139479416Y-46983396D01*
X139560099Y-46717421D01*
X139560101Y-46717417D01*
X139560101Y-46717416D01*
X139691119Y-46472297D01*
X139867445Y-46257445D01*
X140082298Y-46081119D01*
X140327417Y-45950101D01*
X140327420Y-45950100D01*
X140327422Y-45950099D01*
X140593397Y-45869416D01*
X140870000Y-45842173D01*
X141146604Y-45869416D01*
X141146604Y-45869416D01*
G37*
G36*
X150746604Y-45869416D02*
X151012579Y-45950099D01*
X151012581Y-45950100D01*
X151012584Y-45950101D01*
X151257703Y-46081119D01*
X151472555Y-46257445D01*
X151648881Y-46472297D01*
X151779900Y-46717417D01*
X151779901Y-46717421D01*
X151860584Y-46983397D01*
X151881000Y-47190685D01*
X151881000Y-47849316D01*
X151860584Y-48056604D01*
X151779901Y-48322578D01*
X151779899Y-48322584D01*
X151648881Y-48567703D01*
X151472555Y-48782555D01*
X151257702Y-48958881D01*
X151012583Y-49089899D01*
X151012580Y-49089900D01*
X151012578Y-49089901D01*
X150746603Y-49170584D01*
X150470000Y-49197827D01*
X150193396Y-49170584D01*
X149927421Y-49089901D01*
X149927419Y-49089900D01*
X149927416Y-49089899D01*
X149682297Y-48958881D01*
X149467445Y-48782555D01*
X149291119Y-48567702D01*
X149160101Y-48322583D01*
X149160099Y-48322578D01*
X149079416Y-48056603D01*
X149059000Y-47849315D01*
X149059000Y-47190684D01*
X149079416Y-46983396D01*
X149160099Y-46717421D01*
X149160101Y-46717417D01*
X149160101Y-46717416D01*
X149291119Y-46472297D01*
X149467445Y-46257445D01*
X149682298Y-46081119D01*
X149927417Y-45950101D01*
X149927420Y-45950100D01*
X149927422Y-45950099D01*
X150193397Y-45869416D01*
X150470000Y-45842173D01*
X150746604Y-45869416D01*
X150746604Y-45869416D01*
G37*
G36*
X158926604Y-45869416D02*
X159192579Y-45950099D01*
X159192581Y-45950100D01*
X159192584Y-45950101D01*
X159437703Y-46081119D01*
X159652555Y-46257445D01*
X159828881Y-46472297D01*
X159959900Y-46717417D01*
X159959901Y-46717421D01*
X160040584Y-46983397D01*
X160061000Y-47190685D01*
X160061000Y-47849316D01*
X160040584Y-48056604D01*
X159959901Y-48322578D01*
X159959899Y-48322584D01*
X159828881Y-48567703D01*
X159652555Y-48782555D01*
X159437702Y-48958881D01*
X159192583Y-49089899D01*
X159192580Y-49089900D01*
X159192578Y-49089901D01*
X158926603Y-49170584D01*
X158650000Y-49197827D01*
X158373396Y-49170584D01*
X158107421Y-49089901D01*
X158107419Y-49089900D01*
X158107416Y-49089899D01*
X157862297Y-48958881D01*
X157647445Y-48782555D01*
X157471119Y-48567702D01*
X157340101Y-48322583D01*
X157340099Y-48322578D01*
X157259416Y-48056603D01*
X157239000Y-47849315D01*
X157239000Y-47190684D01*
X157259416Y-46983396D01*
X157340099Y-46717421D01*
X157340101Y-46717417D01*
X157340101Y-46717416D01*
X157471119Y-46472297D01*
X157647445Y-46257445D01*
X157862298Y-46081119D01*
X158107417Y-45950101D01*
X158107420Y-45950100D01*
X158107422Y-45950099D01*
X158373397Y-45869416D01*
X158650000Y-45842173D01*
X158926604Y-45869416D01*
X158926604Y-45869416D01*
G37*
G36*
X168526604Y-45869416D02*
X168792579Y-45950099D01*
X168792581Y-45950100D01*
X168792584Y-45950101D01*
X169037703Y-46081119D01*
X169252555Y-46257445D01*
X169428881Y-46472297D01*
X169559900Y-46717417D01*
X169559901Y-46717421D01*
X169640584Y-46983397D01*
X169661000Y-47190685D01*
X169661000Y-47849316D01*
X169640584Y-48056604D01*
X169559901Y-48322578D01*
X169559899Y-48322584D01*
X169428881Y-48567703D01*
X169252555Y-48782555D01*
X169037702Y-48958881D01*
X168792583Y-49089899D01*
X168792580Y-49089900D01*
X168792578Y-49089901D01*
X168526603Y-49170584D01*
X168250000Y-49197827D01*
X167973396Y-49170584D01*
X167707421Y-49089901D01*
X167707419Y-49089900D01*
X167707416Y-49089899D01*
X167462297Y-48958881D01*
X167247445Y-48782555D01*
X167071119Y-48567702D01*
X166940101Y-48322583D01*
X166940099Y-48322578D01*
X166859416Y-48056603D01*
X166839000Y-47849315D01*
X166839000Y-47190684D01*
X166859416Y-46983396D01*
X166940099Y-46717421D01*
X166940101Y-46717417D01*
X166940101Y-46717416D01*
X167071119Y-46472297D01*
X167247445Y-46257445D01*
X167462298Y-46081119D01*
X167707417Y-45950101D01*
X167707420Y-45950100D01*
X167707422Y-45950099D01*
X167973397Y-45869416D01*
X168250000Y-45842173D01*
X168526604Y-45869416D01*
X168526604Y-45869416D01*
G37*
G36*
X176706604Y-45869416D02*
X176972579Y-45950099D01*
X176972581Y-45950100D01*
X176972584Y-45950101D01*
X177217703Y-46081119D01*
X177432555Y-46257445D01*
X177608881Y-46472297D01*
X177739900Y-46717417D01*
X177739901Y-46717421D01*
X177820584Y-46983397D01*
X177841000Y-47190685D01*
X177841000Y-47849316D01*
X177820584Y-48056604D01*
X177739901Y-48322578D01*
X177739899Y-48322584D01*
X177608881Y-48567703D01*
X177432555Y-48782555D01*
X177217702Y-48958881D01*
X176972583Y-49089899D01*
X176972580Y-49089900D01*
X176972578Y-49089901D01*
X176706603Y-49170584D01*
X176430000Y-49197827D01*
X176153396Y-49170584D01*
X175887421Y-49089901D01*
X175887419Y-49089900D01*
X175887416Y-49089899D01*
X175642297Y-48958881D01*
X175427445Y-48782555D01*
X175251119Y-48567702D01*
X175120101Y-48322583D01*
X175120099Y-48322578D01*
X175039416Y-48056603D01*
X175019000Y-47849315D01*
X175019000Y-47190684D01*
X175039416Y-46983396D01*
X175120099Y-46717421D01*
X175120101Y-46717417D01*
X175120101Y-46717416D01*
X175251119Y-46472297D01*
X175427445Y-46257445D01*
X175642298Y-46081119D01*
X175887417Y-45950101D01*
X175887420Y-45950100D01*
X175887422Y-45950099D01*
X176153397Y-45869416D01*
X176430000Y-45842173D01*
X176706604Y-45869416D01*
X176706604Y-45869416D01*
G37*
G36*
X186306604Y-45869416D02*
X186572579Y-45950099D01*
X186572581Y-45950100D01*
X186572584Y-45950101D01*
X186817703Y-46081119D01*
X187032555Y-46257445D01*
X187208881Y-46472297D01*
X187339900Y-46717417D01*
X187339901Y-46717421D01*
X187420584Y-46983397D01*
X187441000Y-47190685D01*
X187441000Y-47849316D01*
X187420584Y-48056604D01*
X187339901Y-48322578D01*
X187339899Y-48322584D01*
X187208881Y-48567703D01*
X187032555Y-48782555D01*
X186817702Y-48958881D01*
X186572583Y-49089899D01*
X186572580Y-49089900D01*
X186572578Y-49089901D01*
X186306603Y-49170584D01*
X186030000Y-49197827D01*
X185753396Y-49170584D01*
X185487421Y-49089901D01*
X185487419Y-49089900D01*
X185487416Y-49089899D01*
X185242297Y-48958881D01*
X185027445Y-48782555D01*
X184851119Y-48567702D01*
X184720101Y-48322583D01*
X184720099Y-48322578D01*
X184639416Y-48056603D01*
X184619000Y-47849315D01*
X184619000Y-47190684D01*
X184639416Y-46983396D01*
X184720099Y-46717421D01*
X184720101Y-46717417D01*
X184720101Y-46717416D01*
X184851119Y-46472297D01*
X185027445Y-46257445D01*
X185242298Y-46081119D01*
X185487417Y-45950101D01*
X185487420Y-45950100D01*
X185487422Y-45950099D01*
X185753397Y-45869416D01*
X186030000Y-45842173D01*
X186306604Y-45869416D01*
X186306604Y-45869416D01*
G37*
G36*
X204086604Y-45869416D02*
X204352579Y-45950099D01*
X204352581Y-45950100D01*
X204352584Y-45950101D01*
X204597703Y-46081119D01*
X204812555Y-46257445D01*
X204988881Y-46472297D01*
X205119900Y-46717417D01*
X205119901Y-46717421D01*
X205200584Y-46983397D01*
X205221000Y-47190685D01*
X205221000Y-47849316D01*
X205200584Y-48056604D01*
X205119901Y-48322578D01*
X205119899Y-48322584D01*
X204988881Y-48567703D01*
X204812555Y-48782555D01*
X204597702Y-48958881D01*
X204352583Y-49089899D01*
X204352580Y-49089900D01*
X204352578Y-49089901D01*
X204086603Y-49170584D01*
X203810000Y-49197827D01*
X203533396Y-49170584D01*
X203267421Y-49089901D01*
X203267419Y-49089900D01*
X203267416Y-49089899D01*
X203022297Y-48958881D01*
X202807445Y-48782555D01*
X202631119Y-48567702D01*
X202500101Y-48322583D01*
X202500099Y-48322578D01*
X202419416Y-48056603D01*
X202399000Y-47849315D01*
X202399000Y-47190684D01*
X202419416Y-46983396D01*
X202500099Y-46717421D01*
X202500101Y-46717417D01*
X202500101Y-46717416D01*
X202631119Y-46472297D01*
X202807445Y-46257445D01*
X203022298Y-46081119D01*
X203267417Y-45950101D01*
X203267420Y-45950100D01*
X203267422Y-45950099D01*
X203533397Y-45869416D01*
X203810000Y-45842173D01*
X204086604Y-45869416D01*
X204086604Y-45869416D01*
G37*
G36*
X194486604Y-45869416D02*
X194752579Y-45950099D01*
X194752581Y-45950100D01*
X194752584Y-45950101D01*
X194997703Y-46081119D01*
X195212555Y-46257445D01*
X195388881Y-46472297D01*
X195519900Y-46717417D01*
X195519901Y-46717421D01*
X195600584Y-46983397D01*
X195621000Y-47190685D01*
X195621000Y-47849316D01*
X195600584Y-48056604D01*
X195519901Y-48322578D01*
X195519899Y-48322584D01*
X195388881Y-48567703D01*
X195212555Y-48782555D01*
X194997702Y-48958881D01*
X194752583Y-49089899D01*
X194752580Y-49089900D01*
X194752578Y-49089901D01*
X194486603Y-49170584D01*
X194210000Y-49197827D01*
X193933396Y-49170584D01*
X193667421Y-49089901D01*
X193667419Y-49089900D01*
X193667416Y-49089899D01*
X193422297Y-48958881D01*
X193207445Y-48782555D01*
X193031119Y-48567702D01*
X192900101Y-48322583D01*
X192900099Y-48322578D01*
X192819416Y-48056603D01*
X192799000Y-47849315D01*
X192799000Y-47190684D01*
X192819416Y-46983396D01*
X192900099Y-46717421D01*
X192900101Y-46717417D01*
X192900101Y-46717416D01*
X193031119Y-46472297D01*
X193207445Y-46257445D01*
X193422298Y-46081119D01*
X193667417Y-45950101D01*
X193667420Y-45950100D01*
X193667422Y-45950099D01*
X193933397Y-45869416D01*
X194210000Y-45842173D01*
X194486604Y-45869416D01*
X194486604Y-45869416D01*
G37*
M02*
