M48
;DRILL file {KiCad (5.0.1-3-g963ef8bb5)} date Monday, August 17, 2020 at 01:34:23 PM
;FORMAT={-:-/ absolute / inch / decimal}
FMAT,2
INCH,TZ
T1C0.0157
T2C0.0394
T3C0.0400
T4C0.0433
T5C0.0480
T6C0.0559
T7C0.0563
%
G90
G05
M72
T1
X2.645Y-5.7061
X2.645Y-5.7661
X2.645Y-5.8261
X2.685Y-3.8411
X2.705Y-5.7061
X2.705Y-5.7661
X2.705Y-5.8261
X2.735Y-2.8161
X2.735Y-3.4911
X2.735Y-4.6161
X2.785Y-5.8261
X2.835Y-3.4411
X2.835Y-5.2411
X2.865Y-5.8261
X2.885Y-2.9161
X2.885Y-4.7161
X2.945Y-5.7661
X2.945Y-5.8261
X2.985Y-3.3161
X2.985Y-3.3911
X2.985Y-5.1161
X2.985Y-5.1911
X3.015Y-5.7661
X3.015Y-5.8261
X3.085Y-2.8161
X3.085Y-4.6161
X3.135Y-2.7161
X3.135Y-4.5161
X3.375Y-5.7661
X3.375Y-5.8261
X3.385Y-3.8411
X3.435Y-2.8161
X3.435Y-3.4911
X3.435Y-4.6161
X3.445Y-5.7661
X3.445Y-5.8261
X3.515Y-5.8261
X3.535Y-3.4411
X3.535Y-5.2411
X3.585Y-2.9161
X3.585Y-4.7161
X3.585Y-5.8261
X3.675Y-5.8161
X3.685Y-3.3161
X3.685Y-3.3911
X3.685Y-5.1161
X3.685Y-5.1911
X3.685Y-5.7111
X3.785Y-2.8161
X3.785Y-4.6161
X3.835Y-2.7161
X3.835Y-4.5161
X3.86Y-3.2661
X3.86Y-5.0661
X3.86Y-5.5661
X3.935Y-2.7161
X3.935Y-4.5161
X4.005Y-5.4211
X4.01Y-5.2411
X4.01Y-3.4411
X4.085Y-3.8447
X4.135Y-2.8161
X4.135Y-4.6161
X4.235Y-3.4411
X4.235Y-5.2411
X4.285Y-2.9161
X4.285Y-4.7161
X4.385Y-3.3161
X4.385Y-3.3911
X4.385Y-5.1161
X4.385Y-5.1911
X4.46Y-5.4161
X4.485Y-2.8161
X4.485Y-4.6161
X4.485Y-5.3411
X4.535Y-2.7161
X4.535Y-4.5161
X4.785Y-3.8947
X4.835Y-2.8161
X4.835Y-4.6161
X4.935Y-3.4411
X4.935Y-5.2411
X4.985Y-2.9161
X4.985Y-4.7161
X5.085Y-3.3161
X5.085Y-3.3911
X5.085Y-5.1161
X5.085Y-5.1911
X5.185Y-2.8161
X5.185Y-4.6161
X5.235Y-2.7161
X5.235Y-4.5161
X5.26Y-5.0661
X5.335Y-3.5911
X5.335Y-5.3911
X5.385Y-3.5661
X5.385Y-5.3661
X5.435Y-5.3261
X5.4879Y-5.2876
X5.535Y-2.8161
X5.535Y-4.6161
X5.635Y-3.4411
X5.635Y-4.9411
X5.635Y-5.2376
X5.685Y-2.9161
X5.685Y-4.7161
X5.785Y-3.3161
X5.785Y-3.3911
X5.785Y-5.1161
X5.785Y-5.1911
X5.885Y-2.8161
X5.885Y-4.6161
X5.935Y-2.7161
X5.935Y-4.5161
X5.96Y-5.0661
X6.035Y-3.7411
X6.085Y-3.7911
X6.135Y-3.8411
X6.185Y-3.8911
X6.235Y-2.8161
X6.235Y-4.6161
X6.335Y-3.4411
X6.335Y-4.9411
X6.335Y-5.2376
X6.385Y-2.9161
X6.385Y-4.7161
X6.485Y-3.3161
X6.485Y-3.3911
X6.485Y-5.1161
X6.485Y-5.1876
X6.585Y-2.8161
X6.585Y-4.6161
X6.635Y-2.7161
X6.635Y-4.5161
X6.66Y-5.0661
X6.76Y-5.2411
X6.765Y-5.7491
X6.785Y-5.6911
X6.81Y-5.2411
X6.86Y-5.2411
X6.86Y-5.4911
X6.91Y-5.4911
X6.935Y-2.8161
X6.935Y-4.6161
X6.96Y-5.4911
X6.96Y-5.7491
X7.01Y-5.4911
X7.035Y-3.4411
X7.035Y-4.9661
X7.035Y-5.2411
X7.085Y-2.9161
X7.085Y-4.7161
X7.135Y-5.7776
X7.16Y-5.5461
X7.185Y-3.3161
X7.185Y-3.3911
X7.185Y-5.1161
X7.185Y-5.1911
X7.225Y-5.8211
X7.26Y-5.5361
X7.26Y-5.6411
X7.285Y-2.8161
X7.285Y-4.6161
X7.33Y-5.5361
X7.33Y-5.6261
X7.335Y-2.7161
X7.335Y-4.5161
X7.345Y-5.2761
X7.36Y-5.0661
X7.385Y-5.3561
X7.385Y-5.6876
X7.405Y-5.5361
X7.405Y-5.6261
X7.4129Y-5.3133
X7.48Y-5.5361
X7.485Y-4.8661
X7.535Y-4.9161
X7.555Y-5.5361
X7.5573Y-5.7327
X7.585Y-4.9661
X7.635Y-2.8161
X7.635Y-4.6161
X7.655Y-5.7811
X7.71Y-5.8211
X7.735Y-3.4411
X7.735Y-5.2411
X7.76Y-5.5811
X7.785Y-2.9161
X7.785Y-4.7161
X7.885Y-3.3161
X7.885Y-3.3911
X7.885Y-5.1161
X7.885Y-5.1911
X7.985Y-2.8161
X7.985Y-4.6161
X8.035Y-2.7161
X8.035Y-4.5161
T2
X7.7366Y-2.1661
X7.835Y-2.1661
X7.9335Y-2.1661
X3.5366Y-3.9661
X3.635Y-3.9661
X3.7335Y-3.9661
X7.0366Y-2.1661
X7.135Y-2.1661
X7.2335Y-2.1661
X7.0366Y-3.9661
X7.135Y-3.9661
X7.2335Y-3.9661
X5.6366Y-2.1661
X5.735Y-2.1661
X5.8335Y-2.1661
X7.7366Y-3.9661
X7.835Y-3.9661
X7.9335Y-3.9661
X5.6366Y-3.9661
X5.735Y-3.9661
X5.8335Y-3.9661
X6.3366Y-2.1661
X6.435Y-2.1661
X6.5335Y-2.1661
X2.86Y-5.3911
X2.86Y-5.4911
X2.96Y-5.3911
X2.96Y-5.4911
X3.06Y-5.3911
X3.06Y-5.4911
X3.16Y-5.3911
X3.16Y-5.4911
X3.26Y-5.3911
X3.26Y-5.4911
X3.36Y-5.3911
X3.36Y-5.4911
X3.46Y-5.3911
X3.46Y-5.4911
X3.56Y-5.3911
X3.56Y-5.4911
X4.2366Y-3.9661
X4.335Y-3.9661
X4.4335Y-3.9661
X4.9366Y-2.1661
X5.035Y-2.1661
X5.1335Y-2.1661
X3.5366Y-2.1661
X3.635Y-2.1661
X3.7335Y-2.1661
X2.8366Y-3.9661
X2.935Y-3.9661
X3.0335Y-3.9661
X4.2366Y-2.1661
X4.335Y-2.1661
X4.4335Y-2.1661
X2.8366Y-2.1661
X2.935Y-2.1661
X3.0335Y-2.1661
X6.3366Y-3.9661
X6.435Y-3.9661
X6.5335Y-3.9661
X4.9366Y-3.9661
X5.035Y-3.9661
X5.1335Y-3.9661
T3
X4.385Y-5.5161
X4.385Y-5.6161
X4.485Y-5.5161
X4.485Y-5.6161
X4.585Y-5.5161
X4.585Y-5.6161
X4.685Y-5.5161
X4.685Y-5.6161
X4.785Y-5.5161
X4.785Y-5.6161
X4.885Y-5.5161
X4.885Y-5.6161
X4.985Y-5.5161
X4.985Y-5.6161
X5.085Y-5.5161
X5.085Y-5.6161
X5.185Y-5.5161
X5.185Y-5.6161
X5.285Y-5.5161
X5.285Y-5.6161
X5.385Y-5.5161
X5.385Y-5.6161
X5.485Y-5.5161
X5.485Y-5.6161
X5.585Y-5.5161
X5.585Y-5.6161
X5.685Y-5.5161
X5.685Y-5.6161
X5.785Y-5.5161
X5.785Y-5.6161
X5.885Y-5.5161
X5.885Y-5.6161
X5.985Y-5.5161
X5.985Y-5.6161
X6.085Y-5.5161
X6.085Y-5.6161
X6.185Y-5.5161
X6.185Y-5.6161
X6.285Y-5.5161
X6.285Y-5.6161
T5
X5.735Y-4.5661
X7.135Y-4.5661
X7.135Y-2.7661
X3.635Y-2.7661
X3.635Y-4.5661
X5.035Y-4.5661
X6.435Y-2.7661
X5.035Y-2.7661
X2.935Y-2.7661
X4.335Y-2.7661
X5.735Y-2.7661
X7.835Y-2.7661
X6.435Y-4.5661
X7.835Y-4.5661
X2.935Y-4.5661
X4.335Y-4.5661
T6
X6.435Y-4.4441
X7.835Y-4.4441
X2.935Y-4.4441
X4.335Y-4.4441
X5.735Y-4.4441
X7.135Y-4.4441
X7.135Y-2.6441
X3.635Y-2.6441
X3.635Y-4.4441
X5.035Y-4.4441
X6.435Y-2.6441
X5.035Y-2.6441
X2.935Y-2.6441
X4.335Y-2.6441
X5.735Y-2.6441
X7.835Y-2.6441
T7
X5.035Y-2.3173
X4.335Y-2.3173
X6.435Y-4.1173
X7.835Y-4.1173
X2.935Y-4.1173
X7.135Y-4.1173
X3.635Y-2.3173
X2.935Y-2.3173
X5.735Y-4.1173
X7.135Y-2.3173
X5.035Y-4.1173
X6.435Y-2.3173
X5.735Y-2.3173
X7.835Y-2.3173
X4.335Y-4.1173
X3.635Y-4.1173
T4
X3.4461Y-1.8886G85X3.4461Y-1.8531
G05
X3.824Y-1.8886G85X3.824Y-1.8531
G05
X2.7461Y-3.6886G85X2.7461Y-3.6531
G05
X3.124Y-3.6886G85X3.124Y-3.6531
G05
X4.1461Y-1.8886G85X4.1461Y-1.8531
G05
X4.524Y-1.8886G85X4.524Y-1.8531
G05
X2.7461Y-1.8886G85X2.7461Y-1.8531
G05
X3.124Y-1.8886G85X3.124Y-1.8531
G05
X6.2461Y-3.6886G85X6.2461Y-3.6531
G05
X6.624Y-3.6886G85X6.624Y-3.6531
G05
X4.8461Y-3.6886G85X4.8461Y-3.6531
G05
X5.224Y-3.6886G85X5.224Y-3.6531
G05
X7.6461Y-1.8886G85X7.6461Y-1.8531
G05
X8.024Y-1.8886G85X8.024Y-1.8531
G05
X3.4461Y-3.6886G85X3.4461Y-3.6531
G05
X3.824Y-3.6886G85X3.824Y-3.6531
G05
X6.9461Y-1.8886G85X6.9461Y-1.8531
G05
X7.324Y-1.8886G85X7.324Y-1.8531
G05
X6.9461Y-3.6886G85X6.9461Y-3.6531
G05
X7.324Y-3.6886G85X7.324Y-3.6531
G05
X5.5461Y-1.8886G85X5.5461Y-1.8531
G05
X5.924Y-1.8886G85X5.924Y-1.8531
G05
X7.6461Y-3.6886G85X7.6461Y-3.6531
G05
X8.024Y-3.6886G85X8.024Y-3.6531
G05
X5.5461Y-3.6886G85X5.5461Y-3.6531
G05
X5.924Y-3.6886G85X5.924Y-3.6531
G05
X6.2461Y-1.8886G85X6.2461Y-1.8531
G05
X6.624Y-1.8886G85X6.624Y-1.8531
G05
X4.1461Y-3.6886G85X4.1461Y-3.6531
G05
X4.524Y-3.6886G85X4.524Y-3.6531
G05
X4.8461Y-1.8886G85X4.8461Y-1.8531
G05
X5.224Y-1.8886G85X5.224Y-1.8531
G05
T0
M30
