G04 #@! TF.GenerationSoftware,KiCad,Pcbnew,(5.0.1-3-g963ef8bb5)*
G04 #@! TF.CreationDate,2020-08-17T13:32:48-04:00*
G04 #@! TF.ProjectId,Wave_Pool CV Input,576176655F506F6F6C20435620496E70,rev?*
G04 #@! TF.SameCoordinates,Original*
G04 #@! TF.FileFunction,Legend,Top*
G04 #@! TF.FilePolarity,Positive*
%FSLAX46Y46*%
G04 Gerber Fmt 4.6, Leading zero omitted, Abs format (unit mm)*
G04 Created by KiCad (PCBNEW (5.0.1-3-g963ef8bb5)) date Monday, August 17, 2020 at 01:32:48 PM*
%MOMM*%
%LPD*%
G01*
G04 APERTURE LIST*
%ADD10C,1.000000*%
%ADD11C,2.000000*%
%ADD12C,0.200000*%
%ADD13C,0.192000*%
%ADD14C,0.300000*%
%ADD15C,0.120000*%
%ADD16C,0.150000*%
G04 APERTURE END LIST*
D10*
X96660952Y-128957857D02*
X98327619Y-128957857D01*
X99041904Y-131576904D02*
X96660952Y-131576904D01*
X96660952Y-126576904D01*
X99041904Y-126576904D01*
X103327619Y-128243571D02*
X103327619Y-131576904D01*
X101184761Y-128243571D02*
X101184761Y-130862619D01*
X101422857Y-131338809D01*
X101899047Y-131576904D01*
X102613333Y-131576904D01*
X103089523Y-131338809D01*
X103327619Y-131100714D01*
X105708571Y-131576904D02*
X105708571Y-128243571D01*
X105708571Y-129195952D02*
X105946666Y-128719761D01*
X106184761Y-128481666D01*
X106660952Y-128243571D01*
X107137142Y-128243571D01*
X109518095Y-131576904D02*
X109041904Y-131338809D01*
X108803809Y-131100714D01*
X108565714Y-130624523D01*
X108565714Y-129195952D01*
X108803809Y-128719761D01*
X109041904Y-128481666D01*
X109518095Y-128243571D01*
X110232380Y-128243571D01*
X110708571Y-128481666D01*
X110946666Y-128719761D01*
X111184761Y-129195952D01*
X111184761Y-130624523D01*
X110946666Y-131100714D01*
X110708571Y-131338809D01*
X110232380Y-131576904D01*
X109518095Y-131576904D01*
X113327619Y-131576904D02*
X113327619Y-128243571D01*
X113327619Y-129195952D02*
X113565714Y-128719761D01*
X113803809Y-128481666D01*
X114279999Y-128243571D01*
X114756190Y-128243571D01*
X118565714Y-131576904D02*
X118565714Y-128957857D01*
X118327619Y-128481666D01*
X117851428Y-128243571D01*
X116899047Y-128243571D01*
X116422857Y-128481666D01*
X118565714Y-131338809D02*
X118089523Y-131576904D01*
X116899047Y-131576904D01*
X116422857Y-131338809D01*
X116184761Y-130862619D01*
X116184761Y-130386428D01*
X116422857Y-129910238D01*
X116899047Y-129672142D01*
X118089523Y-129672142D01*
X118565714Y-129434047D01*
X123089523Y-131338809D02*
X122613333Y-131576904D01*
X121660952Y-131576904D01*
X121184761Y-131338809D01*
X120946666Y-131100714D01*
X120708571Y-130624523D01*
X120708571Y-129195952D01*
X120946666Y-128719761D01*
X121184761Y-128481666D01*
X121660952Y-128243571D01*
X122613333Y-128243571D01*
X123089523Y-128481666D01*
X125232380Y-131576904D02*
X125232380Y-126576904D01*
X125708571Y-129672142D02*
X127137142Y-131576904D01*
X127137142Y-128243571D02*
X125232380Y-130148333D01*
X135946666Y-131100714D02*
X135708571Y-131338809D01*
X134994285Y-131576904D01*
X134518095Y-131576904D01*
X133803809Y-131338809D01*
X133327619Y-130862619D01*
X133089523Y-130386428D01*
X132851428Y-129434047D01*
X132851428Y-128719761D01*
X133089523Y-127767380D01*
X133327619Y-127291190D01*
X133803809Y-126815000D01*
X134518095Y-126576904D01*
X134994285Y-126576904D01*
X135708571Y-126815000D01*
X135946666Y-127053095D01*
X137375238Y-126576904D02*
X139041904Y-131576904D01*
X140708571Y-126576904D01*
X146184761Y-131576904D02*
X146184761Y-126576904D01*
X148565714Y-128243571D02*
X148565714Y-131576904D01*
X148565714Y-128719761D02*
X148803809Y-128481666D01*
X149279999Y-128243571D01*
X149994285Y-128243571D01*
X150470476Y-128481666D01*
X150708571Y-128957857D01*
X150708571Y-131576904D01*
X152375238Y-128243571D02*
X154279999Y-128243571D01*
X153089523Y-126576904D02*
X153089523Y-130862619D01*
X153327619Y-131338809D01*
X153803809Y-131576904D01*
X154279999Y-131576904D01*
X157851428Y-131338809D02*
X157375238Y-131576904D01*
X156422857Y-131576904D01*
X155946666Y-131338809D01*
X155708571Y-130862619D01*
X155708571Y-128957857D01*
X155946666Y-128481666D01*
X156422857Y-128243571D01*
X157375238Y-128243571D01*
X157851428Y-128481666D01*
X158089523Y-128957857D01*
X158089523Y-129434047D01*
X155708571Y-129910238D01*
X160232380Y-131576904D02*
X160232380Y-128243571D01*
X160232380Y-129195952D02*
X160470476Y-128719761D01*
X160708571Y-128481666D01*
X161184761Y-128243571D01*
X161660952Y-128243571D01*
X162613333Y-128243571D02*
X164518095Y-128243571D01*
X163327619Y-131576904D02*
X163327619Y-127291190D01*
X163565714Y-126815000D01*
X164041904Y-126576904D01*
X164518095Y-126576904D01*
X168327619Y-131576904D02*
X168327619Y-128957857D01*
X168089523Y-128481666D01*
X167613333Y-128243571D01*
X166660952Y-128243571D01*
X166184761Y-128481666D01*
X168327619Y-131338809D02*
X167851428Y-131576904D01*
X166660952Y-131576904D01*
X166184761Y-131338809D01*
X165946666Y-130862619D01*
X165946666Y-130386428D01*
X166184761Y-129910238D01*
X166660952Y-129672142D01*
X167851428Y-129672142D01*
X168327619Y-129434047D01*
X172851428Y-131338809D02*
X172375238Y-131576904D01*
X171422857Y-131576904D01*
X170946666Y-131338809D01*
X170708571Y-131100714D01*
X170470476Y-130624523D01*
X170470476Y-129195952D01*
X170708571Y-128719761D01*
X170946666Y-128481666D01*
X171422857Y-128243571D01*
X172375238Y-128243571D01*
X172851428Y-128481666D01*
X176899047Y-131338809D02*
X176422857Y-131576904D01*
X175470476Y-131576904D01*
X174994285Y-131338809D01*
X174756190Y-130862619D01*
X174756190Y-128957857D01*
X174994285Y-128481666D01*
X175470476Y-128243571D01*
X176422857Y-128243571D01*
X176899047Y-128481666D01*
X177137142Y-128957857D01*
X177137142Y-129434047D01*
X174756190Y-129910238D01*
D11*
X86072857Y-76761428D02*
X88215714Y-85761428D01*
X89930000Y-79332857D01*
X91644285Y-85761428D01*
X93787142Y-76761428D01*
X96787142Y-83190000D02*
X101072857Y-83190000D01*
X95930000Y-85761428D02*
X98930000Y-76761428D01*
X101930000Y-85761428D01*
X104501428Y-83190000D02*
X108787142Y-83190000D01*
X103644285Y-85761428D02*
X106644285Y-76761428D01*
X109644285Y-85761428D01*
X112215714Y-83190000D02*
X116501428Y-83190000D01*
X111358571Y-85761428D02*
X114358571Y-76761428D01*
X117358571Y-85761428D01*
X119072857Y-76761428D02*
X122072857Y-85761428D01*
X125072857Y-76761428D01*
X128072857Y-81047142D02*
X131072857Y-81047142D01*
X132358571Y-85761428D02*
X128072857Y-85761428D01*
X128072857Y-76761428D01*
X132358571Y-76761428D01*
X134072857Y-86618571D02*
X140930000Y-86618571D01*
X143072857Y-85761428D02*
X143072857Y-76761428D01*
X146501428Y-76761428D01*
X147358571Y-77190000D01*
X147787142Y-77618571D01*
X148215714Y-78475714D01*
X148215714Y-79761428D01*
X147787142Y-80618571D01*
X147358571Y-81047142D01*
X146501428Y-81475714D01*
X143072857Y-81475714D01*
X153787142Y-76761428D02*
X155501428Y-76761428D01*
X156358571Y-77190000D01*
X157215714Y-78047142D01*
X157644285Y-79761428D01*
X157644285Y-82761428D01*
X157215714Y-84475714D01*
X156358571Y-85332857D01*
X155501428Y-85761428D01*
X153787142Y-85761428D01*
X152930000Y-85332857D01*
X152072857Y-84475714D01*
X151644285Y-82761428D01*
X151644285Y-79761428D01*
X152072857Y-78047142D01*
X152930000Y-77190000D01*
X153787142Y-76761428D01*
X163215714Y-76761428D02*
X164930000Y-76761428D01*
X165787142Y-77190000D01*
X166644285Y-78047142D01*
X167072857Y-79761428D01*
X167072857Y-82761428D01*
X166644285Y-84475714D01*
X165787142Y-85332857D01*
X164930000Y-85761428D01*
X163215714Y-85761428D01*
X162358571Y-85332857D01*
X161501428Y-84475714D01*
X161072857Y-82761428D01*
X161072857Y-79761428D01*
X161501428Y-78047142D01*
X162358571Y-77190000D01*
X163215714Y-76761428D01*
X175215714Y-85761428D02*
X170930000Y-85761428D01*
X170930000Y-76761428D01*
D12*
X120143000Y-148873000D02*
X120143000Y-144555000D01*
X109608000Y-144536000D02*
X109602000Y-148873000D01*
X120108000Y-144536000D02*
X109608000Y-144536000D01*
X103125000Y-143285000D02*
X103125000Y-149000000D01*
X103317108Y-139569688D02*
G75*
G02X106008000Y-137896000I2690890J-1326310D01*
G01*
X185008000Y-137896000D02*
X106008000Y-137896000D01*
X185008000Y-137896000D02*
G75*
G02X188008000Y-140896000I2J-2999998D01*
G01*
X187986400Y-148898400D02*
X188008000Y-140896000D01*
X120107000Y-144537000D02*
X109613000Y-144537000D01*
X124314000Y-144938000D02*
X128114000Y-144938000D01*
X128114000Y-146938000D02*
X124314000Y-146938000D01*
X128114000Y-144938000D02*
X128114000Y-146938000D01*
X124314000Y-146938000D02*
X124314000Y-144038000D01*
X172213000Y-149000000D02*
X172208000Y-141496000D01*
X189508000Y-139546000D02*
X189508000Y-140326000D01*
X190008000Y-139546000D02*
X189508000Y-139546000D01*
X190008000Y-140326000D02*
X190008000Y-139546000D01*
X190008000Y-140326000D02*
X189993000Y-148873000D01*
X172308000Y-140326000D02*
X190008000Y-140326000D01*
X172340000Y-149000000D02*
X172308000Y-140326000D01*
X161008000Y-138796000D02*
X110008000Y-138796000D01*
X161008000Y-143996000D02*
X161008000Y-138796000D01*
X110508000Y-143996000D02*
X161008000Y-143996000D01*
X110008000Y-143496000D02*
X110508000Y-143996000D01*
X110008000Y-138796000D02*
X110008000Y-143496000D01*
X110108000Y-138896000D02*
X110108000Y-143896000D01*
X160908000Y-138896000D02*
X110108000Y-138896000D01*
X160908000Y-143896000D02*
X160908000Y-138896000D01*
X110108000Y-143896000D02*
X160908000Y-143896000D01*
X145198000Y-140126000D02*
G75*
G03X145198000Y-140126000I-800000J0D01*
G01*
X145198000Y-140126000D02*
G75*
G03X145198000Y-140126000I-800000J0D01*
G01*
X145198000Y-142666000D02*
G75*
G03X145198000Y-142666000I-800000J0D01*
G01*
X145198000Y-142666000D02*
G75*
G03X145198000Y-142666000I-800000J0D01*
G01*
X112178000Y-143466000D02*
X110578000Y-143466000D01*
X112178000Y-141866000D02*
X112178000Y-143466000D01*
X110578000Y-141866000D02*
X112178000Y-141866000D01*
X110578000Y-143466000D02*
X110578000Y-141866000D01*
X112178000Y-143466000D02*
X110578000Y-143466000D01*
X112178000Y-141866000D02*
X112178000Y-143466000D01*
X110578000Y-141866000D02*
X112178000Y-141866000D01*
X110578000Y-143466000D02*
X110578000Y-141866000D01*
X160438000Y-142666000D02*
G75*
G03X160438000Y-142666000I-800000J0D01*
G01*
X160438000Y-142666000D02*
G75*
G03X160438000Y-142666000I-800000J0D01*
G01*
X157898000Y-142666000D02*
G75*
G03X157898000Y-142666000I-800000J0D01*
G01*
X157898000Y-142666000D02*
G75*
G03X157898000Y-142666000I-800000J0D01*
G01*
X155358000Y-142666000D02*
G75*
G03X155358000Y-142666000I-800000J0D01*
G01*
X155358000Y-142666000D02*
G75*
G03X155358000Y-142666000I-800000J0D01*
G01*
X152818000Y-142666000D02*
G75*
G03X152818000Y-142666000I-800000J0D01*
G01*
X152818000Y-142666000D02*
G75*
G03X152818000Y-142666000I-800000J0D01*
G01*
X150278000Y-142666000D02*
G75*
G03X150278000Y-142666000I-800000J0D01*
G01*
X150278000Y-142666000D02*
G75*
G03X150278000Y-142666000I-800000J0D01*
G01*
X147738000Y-142666000D02*
G75*
G03X147738000Y-142666000I-800000J0D01*
G01*
X147738000Y-142666000D02*
G75*
G03X147738000Y-142666000I-800000J0D01*
G01*
X142658000Y-142666000D02*
G75*
G03X142658000Y-142666000I-800000J0D01*
G01*
X142658000Y-142666000D02*
G75*
G03X142658000Y-142666000I-800000J0D01*
G01*
X140118000Y-142666000D02*
G75*
G03X140118000Y-142666000I-800000J0D01*
G01*
X140118000Y-142666000D02*
G75*
G03X140118000Y-142666000I-800000J0D01*
G01*
X137578000Y-142666000D02*
G75*
G03X137578000Y-142666000I-800000J0D01*
G01*
X137578000Y-142666000D02*
G75*
G03X137578000Y-142666000I-800000J0D01*
G01*
X135038000Y-142666000D02*
G75*
G03X135038000Y-142666000I-800000J0D01*
G01*
X135038000Y-142666000D02*
G75*
G03X135038000Y-142666000I-800000J0D01*
G01*
X132498000Y-142666000D02*
G75*
G03X132498000Y-142666000I-800000J0D01*
G01*
X132498000Y-142666000D02*
G75*
G03X132498000Y-142666000I-800000J0D01*
G01*
X129958000Y-142666000D02*
G75*
G03X129958000Y-142666000I-800000J0D01*
G01*
X129958000Y-142666000D02*
G75*
G03X129958000Y-142666000I-800000J0D01*
G01*
X127418000Y-142666000D02*
G75*
G03X127418000Y-142666000I-800000J0D01*
G01*
X127418000Y-142666000D02*
G75*
G03X127418000Y-142666000I-800000J0D01*
G01*
X124878000Y-142666000D02*
G75*
G03X124878000Y-142666000I-800000J0D01*
G01*
X124878000Y-142666000D02*
G75*
G03X124878000Y-142666000I-800000J0D01*
G01*
X122338000Y-142666000D02*
G75*
G03X122338000Y-142666000I-800000J0D01*
G01*
X122338000Y-142666000D02*
G75*
G03X122338000Y-142666000I-800000J0D01*
G01*
X119798000Y-142666000D02*
G75*
G03X119798000Y-142666000I-800000J0D01*
G01*
X119798000Y-142666000D02*
G75*
G03X119798000Y-142666000I-800000J0D01*
G01*
X117258000Y-142666000D02*
G75*
G03X117258000Y-142666000I-800000J0D01*
G01*
X117258000Y-142666000D02*
G75*
G03X117258000Y-142666000I-800000J0D01*
G01*
X114718000Y-142666000D02*
G75*
G03X114718000Y-142666000I-800000J0D01*
G01*
X114718000Y-142666000D02*
G75*
G03X114718000Y-142666000I-800000J0D01*
G01*
X160438000Y-140126000D02*
G75*
G03X160438000Y-140126000I-800000J0D01*
G01*
X160438000Y-140126000D02*
G75*
G03X160438000Y-140126000I-800000J0D01*
G01*
X157898000Y-140126000D02*
G75*
G03X157898000Y-140126000I-800000J0D01*
G01*
X157898000Y-140126000D02*
G75*
G03X157898000Y-140126000I-800000J0D01*
G01*
X155358000Y-140126000D02*
G75*
G03X155358000Y-140126000I-800000J0D01*
G01*
X155358000Y-140126000D02*
G75*
G03X155358000Y-140126000I-800000J0D01*
G01*
X152818000Y-140126000D02*
G75*
G03X152818000Y-140126000I-800000J0D01*
G01*
X152818000Y-140126000D02*
G75*
G03X152818000Y-140126000I-800000J0D01*
G01*
X150278000Y-140126000D02*
G75*
G03X150278000Y-140126000I-800000J0D01*
G01*
X150278000Y-140126000D02*
G75*
G03X150278000Y-140126000I-800000J0D01*
G01*
X147738000Y-140126000D02*
G75*
G03X147738000Y-140126000I-800000J0D01*
G01*
X147738000Y-140126000D02*
G75*
G03X147738000Y-140126000I-800000J0D01*
G01*
X142658000Y-140126000D02*
G75*
G03X142658000Y-140126000I-800000J0D01*
G01*
X142658000Y-140126000D02*
G75*
G03X142658000Y-140126000I-800000J0D01*
G01*
X140118000Y-140126000D02*
G75*
G03X140118000Y-140126000I-800000J0D01*
G01*
X140118000Y-140126000D02*
G75*
G03X140118000Y-140126000I-800000J0D01*
G01*
X137578000Y-140126000D02*
G75*
G03X137578000Y-140126000I-800000J0D01*
G01*
X137578000Y-140126000D02*
G75*
G03X137578000Y-140126000I-800000J0D01*
G01*
X135038000Y-140126000D02*
G75*
G03X135038000Y-140126000I-800000J0D01*
G01*
X135038000Y-140126000D02*
G75*
G03X135038000Y-140126000I-800000J0D01*
G01*
X132498000Y-140126000D02*
G75*
G03X132498000Y-140126000I-800000J0D01*
G01*
X132498000Y-140126000D02*
G75*
G03X132498000Y-140126000I-800000J0D01*
G01*
X129958000Y-140126000D02*
G75*
G03X129958000Y-140126000I-800000J0D01*
G01*
X129958000Y-140126000D02*
G75*
G03X129958000Y-140126000I-800000J0D01*
G01*
X127418000Y-140126000D02*
G75*
G03X127418000Y-140126000I-800000J0D01*
G01*
X127418000Y-140126000D02*
G75*
G03X127418000Y-140126000I-800000J0D01*
G01*
X124878000Y-140126000D02*
G75*
G03X124878000Y-140126000I-800000J0D01*
G01*
X124878000Y-140126000D02*
G75*
G03X124878000Y-140126000I-800000J0D01*
G01*
X122338000Y-140126000D02*
G75*
G03X122338000Y-140126000I-800000J0D01*
G01*
X122338000Y-140126000D02*
G75*
G03X122338000Y-140126000I-800000J0D01*
G01*
X119798000Y-140126000D02*
G75*
G03X119798000Y-140126000I-800000J0D01*
G01*
X119798000Y-140126000D02*
G75*
G03X119798000Y-140126000I-800000J0D01*
G01*
X117258000Y-140126000D02*
G75*
G03X117258000Y-140126000I-800000J0D01*
G01*
X117258000Y-140126000D02*
G75*
G03X117258000Y-140126000I-800000J0D01*
G01*
X114718000Y-140126000D02*
G75*
G03X114718000Y-140126000I-800000J0D01*
G01*
X114718000Y-140126000D02*
G75*
G03X114718000Y-140126000I-800000J0D01*
G01*
X112178000Y-140126000D02*
G75*
G03X112178000Y-140126000I-800000J0D01*
G01*
X112178000Y-140126000D02*
G75*
G03X112178000Y-140126000I-800000J0D01*
G01*
D13*
X130044514Y-148580285D02*
X129788514Y-148123142D01*
X129605657Y-148580285D02*
X129605657Y-147620285D01*
X129898228Y-147620285D01*
X129971371Y-147666000D01*
X130007942Y-147711714D01*
X130044514Y-147803142D01*
X130044514Y-147940285D01*
X130007942Y-148031714D01*
X129971371Y-148077428D01*
X129898228Y-148123142D01*
X129605657Y-148123142D01*
X130702800Y-148580285D02*
X130702800Y-148077428D01*
X130666228Y-147986000D01*
X130593085Y-147940285D01*
X130446800Y-147940285D01*
X130373657Y-147986000D01*
X130702800Y-148534571D02*
X130629657Y-148580285D01*
X130446800Y-148580285D01*
X130373657Y-148534571D01*
X130337085Y-148443142D01*
X130337085Y-148351714D01*
X130373657Y-148260285D01*
X130446800Y-148214571D01*
X130629657Y-148214571D01*
X130702800Y-148168857D01*
X131031942Y-148534571D02*
X131105085Y-148580285D01*
X131251371Y-148580285D01*
X131324514Y-148534571D01*
X131361085Y-148443142D01*
X131361085Y-148397428D01*
X131324514Y-148306000D01*
X131251371Y-148260285D01*
X131141657Y-148260285D01*
X131068514Y-148214571D01*
X131031942Y-148123142D01*
X131031942Y-148077428D01*
X131068514Y-147986000D01*
X131141657Y-147940285D01*
X131251371Y-147940285D01*
X131324514Y-147986000D01*
X131690228Y-147940285D02*
X131690228Y-148900285D01*
X131690228Y-147986000D02*
X131763371Y-147940285D01*
X131909657Y-147940285D01*
X131982800Y-147986000D01*
X132019371Y-148031714D01*
X132055942Y-148123142D01*
X132055942Y-148397428D01*
X132019371Y-148488857D01*
X131982800Y-148534571D01*
X131909657Y-148580285D01*
X131763371Y-148580285D01*
X131690228Y-148534571D01*
X132385085Y-148580285D02*
X132385085Y-147620285D01*
X132385085Y-147986000D02*
X132458228Y-147940285D01*
X132604514Y-147940285D01*
X132677657Y-147986000D01*
X132714228Y-148031714D01*
X132750800Y-148123142D01*
X132750800Y-148397428D01*
X132714228Y-148488857D01*
X132677657Y-148534571D01*
X132604514Y-148580285D01*
X132458228Y-148580285D01*
X132385085Y-148534571D01*
X133372514Y-148534571D02*
X133299371Y-148580285D01*
X133153085Y-148580285D01*
X133079942Y-148534571D01*
X133043371Y-148443142D01*
X133043371Y-148077428D01*
X133079942Y-147986000D01*
X133153085Y-147940285D01*
X133299371Y-147940285D01*
X133372514Y-147986000D01*
X133409085Y-148077428D01*
X133409085Y-148168857D01*
X133043371Y-148260285D01*
X133738228Y-148580285D02*
X133738228Y-147940285D01*
X133738228Y-148123142D02*
X133774800Y-148031714D01*
X133811371Y-147986000D01*
X133884514Y-147940285D01*
X133957657Y-147940285D01*
X134213657Y-148580285D02*
X134213657Y-147940285D01*
X134213657Y-148123142D02*
X134250228Y-148031714D01*
X134286800Y-147986000D01*
X134359942Y-147940285D01*
X134433085Y-147940285D01*
X134615942Y-147940285D02*
X134798800Y-148580285D01*
X134981657Y-147940285D02*
X134798800Y-148580285D01*
X134725657Y-148808857D01*
X134689085Y-148854571D01*
X134615942Y-148900285D01*
X135859371Y-148580285D02*
X135859371Y-147620285D01*
X136151942Y-147620285D01*
X136225085Y-147666000D01*
X136261657Y-147711714D01*
X136298228Y-147803142D01*
X136298228Y-147940285D01*
X136261657Y-148031714D01*
X136225085Y-148077428D01*
X136151942Y-148123142D01*
X135859371Y-148123142D01*
X136627371Y-148580285D02*
X136627371Y-147940285D01*
X136627371Y-147620285D02*
X136590800Y-147666000D01*
X136627371Y-147711714D01*
X136663942Y-147666000D01*
X136627371Y-147620285D01*
X136627371Y-147711714D01*
X137505085Y-147620285D02*
X137980514Y-147620285D01*
X137724514Y-147986000D01*
X137834228Y-147986000D01*
X137907371Y-148031714D01*
X137943942Y-148077428D01*
X137980514Y-148168857D01*
X137980514Y-148397428D01*
X137943942Y-148488857D01*
X137907371Y-148534571D01*
X137834228Y-148580285D01*
X137614800Y-148580285D01*
X137541657Y-148534571D01*
X137505085Y-148488857D01*
X138894800Y-148580285D02*
X138894800Y-147620285D01*
X139150800Y-148306000D01*
X139406800Y-147620285D01*
X139406800Y-148580285D01*
X139882228Y-148580285D02*
X139809085Y-148534571D01*
X139772514Y-148488857D01*
X139735942Y-148397428D01*
X139735942Y-148123142D01*
X139772514Y-148031714D01*
X139809085Y-147986000D01*
X139882228Y-147940285D01*
X139991942Y-147940285D01*
X140065085Y-147986000D01*
X140101657Y-148031714D01*
X140138228Y-148123142D01*
X140138228Y-148397428D01*
X140101657Y-148488857D01*
X140065085Y-148534571D01*
X139991942Y-148580285D01*
X139882228Y-148580285D01*
X140796514Y-148580285D02*
X140796514Y-147620285D01*
X140796514Y-148534571D02*
X140723371Y-148580285D01*
X140577085Y-148580285D01*
X140503942Y-148534571D01*
X140467371Y-148488857D01*
X140430800Y-148397428D01*
X140430800Y-148123142D01*
X140467371Y-148031714D01*
X140503942Y-147986000D01*
X140577085Y-147940285D01*
X140723371Y-147940285D01*
X140796514Y-147986000D01*
X141454800Y-148534571D02*
X141381657Y-148580285D01*
X141235371Y-148580285D01*
X141162228Y-148534571D01*
X141125657Y-148443142D01*
X141125657Y-148077428D01*
X141162228Y-147986000D01*
X141235371Y-147940285D01*
X141381657Y-147940285D01*
X141454800Y-147986000D01*
X141491371Y-148077428D01*
X141491371Y-148168857D01*
X141125657Y-148260285D01*
X141930228Y-148580285D02*
X141857085Y-148534571D01*
X141820514Y-148443142D01*
X141820514Y-147620285D01*
X143063942Y-148077428D02*
X143173657Y-148123142D01*
X143210228Y-148168857D01*
X143246800Y-148260285D01*
X143246800Y-148397428D01*
X143210228Y-148488857D01*
X143173657Y-148534571D01*
X143100514Y-148580285D01*
X142807942Y-148580285D01*
X142807942Y-147620285D01*
X143063942Y-147620285D01*
X143137085Y-147666000D01*
X143173657Y-147711714D01*
X143210228Y-147803142D01*
X143210228Y-147894571D01*
X143173657Y-147986000D01*
X143137085Y-148031714D01*
X143063942Y-148077428D01*
X142807942Y-148077428D01*
D12*
D13*
X172767857Y-140755285D02*
X172767857Y-141532428D01*
X172804428Y-141623857D01*
X172841000Y-141669571D01*
X172914142Y-141715285D01*
X173060428Y-141715285D01*
X173133571Y-141669571D01*
X173170142Y-141623857D01*
X173206714Y-141532428D01*
X173206714Y-140755285D01*
X173535857Y-141669571D02*
X173645571Y-141715285D01*
X173828428Y-141715285D01*
X173901571Y-141669571D01*
X173938142Y-141623857D01*
X173974714Y-141532428D01*
X173974714Y-141441000D01*
X173938142Y-141349571D01*
X173901571Y-141303857D01*
X173828428Y-141258142D01*
X173682142Y-141212428D01*
X173609000Y-141166714D01*
X173572428Y-141121000D01*
X173535857Y-141029571D01*
X173535857Y-140938142D01*
X173572428Y-140846714D01*
X173609000Y-140801000D01*
X173682142Y-140755285D01*
X173865000Y-140755285D01*
X173974714Y-140801000D01*
X174559857Y-141212428D02*
X174669571Y-141258142D01*
X174706142Y-141303857D01*
X174742714Y-141395285D01*
X174742714Y-141532428D01*
X174706142Y-141623857D01*
X174669571Y-141669571D01*
X174596428Y-141715285D01*
X174303857Y-141715285D01*
X174303857Y-140755285D01*
X174559857Y-140755285D01*
X174633000Y-140801000D01*
X174669571Y-140846714D01*
X174706142Y-140938142D01*
X174706142Y-141029571D01*
X174669571Y-141121000D01*
X174633000Y-141166714D01*
X174559857Y-141212428D01*
X174303857Y-141212428D01*
D12*
D13*
X125416000Y-145388000D02*
X125342857Y-145342285D01*
X125233142Y-145342285D01*
X125123428Y-145388000D01*
X125050285Y-145479428D01*
X125013714Y-145570857D01*
X124977142Y-145753714D01*
X124977142Y-145890857D01*
X125013714Y-146073714D01*
X125050285Y-146165142D01*
X125123428Y-146256571D01*
X125233142Y-146302285D01*
X125306285Y-146302285D01*
X125416000Y-146256571D01*
X125452571Y-146210857D01*
X125452571Y-145890857D01*
X125306285Y-145890857D01*
X125781714Y-146302285D02*
X125781714Y-145342285D01*
X126074285Y-145342285D01*
X126147428Y-145388000D01*
X126184000Y-145433714D01*
X126220571Y-145525142D01*
X126220571Y-145662285D01*
X126184000Y-145753714D01*
X126147428Y-145799428D01*
X126074285Y-145845142D01*
X125781714Y-145845142D01*
X126549714Y-146302285D02*
X126549714Y-145342285D01*
X127061714Y-145342285D02*
X127208000Y-145342285D01*
X127281142Y-145388000D01*
X127354285Y-145479428D01*
X127390857Y-145662285D01*
X127390857Y-145982285D01*
X127354285Y-146165142D01*
X127281142Y-146256571D01*
X127208000Y-146302285D01*
X127061714Y-146302285D01*
X126988571Y-146256571D01*
X126915428Y-146165142D01*
X126878857Y-145982285D01*
X126878857Y-145662285D01*
X126915428Y-145479428D01*
X126988571Y-145388000D01*
X127061714Y-145342285D01*
D12*
D14*
X138585714Y-116273571D02*
X138657142Y-116345000D01*
X138728571Y-116559285D01*
X138728571Y-116702142D01*
X138657142Y-116916428D01*
X138514285Y-117059285D01*
X138371428Y-117130714D01*
X138085714Y-117202142D01*
X137871428Y-117202142D01*
X137585714Y-117130714D01*
X137442857Y-117059285D01*
X137300000Y-116916428D01*
X137228571Y-116702142D01*
X137228571Y-116559285D01*
X137300000Y-116345000D01*
X137371428Y-116273571D01*
X137942857Y-115630714D02*
X137942857Y-115130714D01*
X138728571Y-114916428D02*
X138728571Y-115630714D01*
X137228571Y-115630714D01*
X137228571Y-114916428D01*
X138728571Y-113487857D02*
X138728571Y-114345000D01*
X138728571Y-113916428D02*
X137228571Y-113916428D01*
X137442857Y-114059285D01*
X137585714Y-114202142D01*
X137657142Y-114345000D01*
X136045714Y-116273571D02*
X136117142Y-116345000D01*
X136188571Y-116559285D01*
X136188571Y-116702142D01*
X136117142Y-116916428D01*
X135974285Y-117059285D01*
X135831428Y-117130714D01*
X135545714Y-117202142D01*
X135331428Y-117202142D01*
X135045714Y-117130714D01*
X134902857Y-117059285D01*
X134760000Y-116916428D01*
X134688571Y-116702142D01*
X134688571Y-116559285D01*
X134760000Y-116345000D01*
X134831428Y-116273571D01*
X135402857Y-115630714D02*
X135402857Y-115130714D01*
X136188571Y-114916428D02*
X136188571Y-115630714D01*
X134688571Y-115630714D01*
X134688571Y-114916428D01*
X134688571Y-113987857D02*
X134688571Y-113845000D01*
X134760000Y-113702142D01*
X134831428Y-113630714D01*
X134974285Y-113559285D01*
X135260000Y-113487857D01*
X135617142Y-113487857D01*
X135902857Y-113559285D01*
X136045714Y-113630714D01*
X136117142Y-113702142D01*
X136188571Y-113845000D01*
X136188571Y-113987857D01*
X136117142Y-114130714D01*
X136045714Y-114202142D01*
X135902857Y-114273571D01*
X135617142Y-114345000D01*
X135260000Y-114345000D01*
X134974285Y-114273571D01*
X134831428Y-114202142D01*
X134760000Y-114130714D01*
X134688571Y-113987857D01*
D12*
X136780000Y-42320000D02*
X136780000Y-117250000D01*
D14*
X197402857Y-120325714D02*
X197331428Y-120397142D01*
X197117142Y-120468571D01*
X196974285Y-120468571D01*
X196760000Y-120397142D01*
X196617142Y-120254285D01*
X196545714Y-120111428D01*
X196474285Y-119825714D01*
X196474285Y-119611428D01*
X196545714Y-119325714D01*
X196617142Y-119182857D01*
X196760000Y-119040000D01*
X196974285Y-118968571D01*
X197117142Y-118968571D01*
X197331428Y-119040000D01*
X197402857Y-119111428D01*
X197831428Y-118968571D02*
X198331428Y-120468571D01*
X198831428Y-118968571D01*
X200117142Y-120468571D02*
X199260000Y-120468571D01*
X199688571Y-120468571D02*
X199688571Y-118968571D01*
X199545714Y-119182857D01*
X199402857Y-119325714D01*
X199260000Y-119397142D01*
X201402857Y-118968571D02*
X201117142Y-118968571D01*
X200974285Y-119040000D01*
X200902857Y-119111428D01*
X200760000Y-119325714D01*
X200688571Y-119611428D01*
X200688571Y-120182857D01*
X200760000Y-120325714D01*
X200831428Y-120397142D01*
X200974285Y-120468571D01*
X201260000Y-120468571D01*
X201402857Y-120397142D01*
X201474285Y-120325714D01*
X201545714Y-120182857D01*
X201545714Y-119825714D01*
X201474285Y-119682857D01*
X201402857Y-119611428D01*
X201260000Y-119540000D01*
X200974285Y-119540000D01*
X200831428Y-119611428D01*
X200760000Y-119682857D01*
X200688571Y-119825714D01*
X179622857Y-120325714D02*
X179551428Y-120397142D01*
X179337142Y-120468571D01*
X179194285Y-120468571D01*
X178980000Y-120397142D01*
X178837142Y-120254285D01*
X178765714Y-120111428D01*
X178694285Y-119825714D01*
X178694285Y-119611428D01*
X178765714Y-119325714D01*
X178837142Y-119182857D01*
X178980000Y-119040000D01*
X179194285Y-118968571D01*
X179337142Y-118968571D01*
X179551428Y-119040000D01*
X179622857Y-119111428D01*
X180051428Y-118968571D02*
X180551428Y-120468571D01*
X181051428Y-118968571D01*
X182337142Y-120468571D02*
X181480000Y-120468571D01*
X181908571Y-120468571D02*
X181908571Y-118968571D01*
X181765714Y-119182857D01*
X181622857Y-119325714D01*
X181480000Y-119397142D01*
X183694285Y-118968571D02*
X182980000Y-118968571D01*
X182908571Y-119682857D01*
X182980000Y-119611428D01*
X183122857Y-119540000D01*
X183480000Y-119540000D01*
X183622857Y-119611428D01*
X183694285Y-119682857D01*
X183765714Y-119825714D01*
X183765714Y-120182857D01*
X183694285Y-120325714D01*
X183622857Y-120397142D01*
X183480000Y-120468571D01*
X183122857Y-120468571D01*
X182980000Y-120397142D01*
X182908571Y-120325714D01*
X161842857Y-120325714D02*
X161771428Y-120397142D01*
X161557142Y-120468571D01*
X161414285Y-120468571D01*
X161200000Y-120397142D01*
X161057142Y-120254285D01*
X160985714Y-120111428D01*
X160914285Y-119825714D01*
X160914285Y-119611428D01*
X160985714Y-119325714D01*
X161057142Y-119182857D01*
X161200000Y-119040000D01*
X161414285Y-118968571D01*
X161557142Y-118968571D01*
X161771428Y-119040000D01*
X161842857Y-119111428D01*
X162271428Y-118968571D02*
X162771428Y-120468571D01*
X163271428Y-118968571D01*
X164557142Y-120468571D02*
X163700000Y-120468571D01*
X164128571Y-120468571D02*
X164128571Y-118968571D01*
X163985714Y-119182857D01*
X163842857Y-119325714D01*
X163700000Y-119397142D01*
X165842857Y-119468571D02*
X165842857Y-120468571D01*
X165485714Y-118897142D02*
X165128571Y-119968571D01*
X166057142Y-119968571D01*
X144062857Y-120325714D02*
X143991428Y-120397142D01*
X143777142Y-120468571D01*
X143634285Y-120468571D01*
X143420000Y-120397142D01*
X143277142Y-120254285D01*
X143205714Y-120111428D01*
X143134285Y-119825714D01*
X143134285Y-119611428D01*
X143205714Y-119325714D01*
X143277142Y-119182857D01*
X143420000Y-119040000D01*
X143634285Y-118968571D01*
X143777142Y-118968571D01*
X143991428Y-119040000D01*
X144062857Y-119111428D01*
X144491428Y-118968571D02*
X144991428Y-120468571D01*
X145491428Y-118968571D01*
X146777142Y-120468571D02*
X145920000Y-120468571D01*
X146348571Y-120468571D02*
X146348571Y-118968571D01*
X146205714Y-119182857D01*
X146062857Y-119325714D01*
X145920000Y-119397142D01*
X147277142Y-118968571D02*
X148205714Y-118968571D01*
X147705714Y-119540000D01*
X147920000Y-119540000D01*
X148062857Y-119611428D01*
X148134285Y-119682857D01*
X148205714Y-119825714D01*
X148205714Y-120182857D01*
X148134285Y-120325714D01*
X148062857Y-120397142D01*
X147920000Y-120468571D01*
X147491428Y-120468571D01*
X147348571Y-120397142D01*
X147277142Y-120325714D01*
X126997142Y-120325714D02*
X126925714Y-120397142D01*
X126711428Y-120468571D01*
X126568571Y-120468571D01*
X126354285Y-120397142D01*
X126211428Y-120254285D01*
X126140000Y-120111428D01*
X126068571Y-119825714D01*
X126068571Y-119611428D01*
X126140000Y-119325714D01*
X126211428Y-119182857D01*
X126354285Y-119040000D01*
X126568571Y-118968571D01*
X126711428Y-118968571D01*
X126925714Y-119040000D01*
X126997142Y-119111428D01*
X127425714Y-118968571D02*
X127925714Y-120468571D01*
X128425714Y-118968571D01*
X129140000Y-119611428D02*
X128997142Y-119540000D01*
X128925714Y-119468571D01*
X128854285Y-119325714D01*
X128854285Y-119254285D01*
X128925714Y-119111428D01*
X128997142Y-119040000D01*
X129140000Y-118968571D01*
X129425714Y-118968571D01*
X129568571Y-119040000D01*
X129640000Y-119111428D01*
X129711428Y-119254285D01*
X129711428Y-119325714D01*
X129640000Y-119468571D01*
X129568571Y-119540000D01*
X129425714Y-119611428D01*
X129140000Y-119611428D01*
X128997142Y-119682857D01*
X128925714Y-119754285D01*
X128854285Y-119897142D01*
X128854285Y-120182857D01*
X128925714Y-120325714D01*
X128997142Y-120397142D01*
X129140000Y-120468571D01*
X129425714Y-120468571D01*
X129568571Y-120397142D01*
X129640000Y-120325714D01*
X129711428Y-120182857D01*
X129711428Y-119897142D01*
X129640000Y-119754285D01*
X129568571Y-119682857D01*
X129425714Y-119611428D01*
X109217142Y-120325714D02*
X109145714Y-120397142D01*
X108931428Y-120468571D01*
X108788571Y-120468571D01*
X108574285Y-120397142D01*
X108431428Y-120254285D01*
X108360000Y-120111428D01*
X108288571Y-119825714D01*
X108288571Y-119611428D01*
X108360000Y-119325714D01*
X108431428Y-119182857D01*
X108574285Y-119040000D01*
X108788571Y-118968571D01*
X108931428Y-118968571D01*
X109145714Y-119040000D01*
X109217142Y-119111428D01*
X109645714Y-118968571D02*
X110145714Y-120468571D01*
X110645714Y-118968571D01*
X111002857Y-118968571D02*
X112002857Y-118968571D01*
X111360000Y-120468571D01*
X91437142Y-120325714D02*
X91365714Y-120397142D01*
X91151428Y-120468571D01*
X91008571Y-120468571D01*
X90794285Y-120397142D01*
X90651428Y-120254285D01*
X90580000Y-120111428D01*
X90508571Y-119825714D01*
X90508571Y-119611428D01*
X90580000Y-119325714D01*
X90651428Y-119182857D01*
X90794285Y-119040000D01*
X91008571Y-118968571D01*
X91151428Y-118968571D01*
X91365714Y-119040000D01*
X91437142Y-119111428D01*
X91865714Y-118968571D02*
X92365714Y-120468571D01*
X92865714Y-118968571D01*
X94008571Y-118968571D02*
X93722857Y-118968571D01*
X93580000Y-119040000D01*
X93508571Y-119111428D01*
X93365714Y-119325714D01*
X93294285Y-119611428D01*
X93294285Y-120182857D01*
X93365714Y-120325714D01*
X93437142Y-120397142D01*
X93580000Y-120468571D01*
X93865714Y-120468571D01*
X94008571Y-120397142D01*
X94080000Y-120325714D01*
X94151428Y-120182857D01*
X94151428Y-119825714D01*
X94080000Y-119682857D01*
X94008571Y-119611428D01*
X93865714Y-119540000D01*
X93580000Y-119540000D01*
X93437142Y-119611428D01*
X93365714Y-119682857D01*
X93294285Y-119825714D01*
X73657142Y-120325714D02*
X73585714Y-120397142D01*
X73371428Y-120468571D01*
X73228571Y-120468571D01*
X73014285Y-120397142D01*
X72871428Y-120254285D01*
X72800000Y-120111428D01*
X72728571Y-119825714D01*
X72728571Y-119611428D01*
X72800000Y-119325714D01*
X72871428Y-119182857D01*
X73014285Y-119040000D01*
X73228571Y-118968571D01*
X73371428Y-118968571D01*
X73585714Y-119040000D01*
X73657142Y-119111428D01*
X74085714Y-118968571D02*
X74585714Y-120468571D01*
X75085714Y-118968571D01*
X76300000Y-118968571D02*
X75585714Y-118968571D01*
X75514285Y-119682857D01*
X75585714Y-119611428D01*
X75728571Y-119540000D01*
X76085714Y-119540000D01*
X76228571Y-119611428D01*
X76300000Y-119682857D01*
X76371428Y-119825714D01*
X76371428Y-120182857D01*
X76300000Y-120325714D01*
X76228571Y-120397142D01*
X76085714Y-120468571D01*
X75728571Y-120468571D01*
X75585714Y-120397142D01*
X75514285Y-120325714D01*
X197402857Y-74605714D02*
X197331428Y-74677142D01*
X197117142Y-74748571D01*
X196974285Y-74748571D01*
X196760000Y-74677142D01*
X196617142Y-74534285D01*
X196545714Y-74391428D01*
X196474285Y-74105714D01*
X196474285Y-73891428D01*
X196545714Y-73605714D01*
X196617142Y-73462857D01*
X196760000Y-73320000D01*
X196974285Y-73248571D01*
X197117142Y-73248571D01*
X197331428Y-73320000D01*
X197402857Y-73391428D01*
X197831428Y-73248571D02*
X198331428Y-74748571D01*
X198831428Y-73248571D01*
X200117142Y-74748571D02*
X199260000Y-74748571D01*
X199688571Y-74748571D02*
X199688571Y-73248571D01*
X199545714Y-73462857D01*
X199402857Y-73605714D01*
X199260000Y-73677142D01*
X200688571Y-73391428D02*
X200760000Y-73320000D01*
X200902857Y-73248571D01*
X201260000Y-73248571D01*
X201402857Y-73320000D01*
X201474285Y-73391428D01*
X201545714Y-73534285D01*
X201545714Y-73677142D01*
X201474285Y-73891428D01*
X200617142Y-74748571D01*
X201545714Y-74748571D01*
X179622857Y-74605714D02*
X179551428Y-74677142D01*
X179337142Y-74748571D01*
X179194285Y-74748571D01*
X178980000Y-74677142D01*
X178837142Y-74534285D01*
X178765714Y-74391428D01*
X178694285Y-74105714D01*
X178694285Y-73891428D01*
X178765714Y-73605714D01*
X178837142Y-73462857D01*
X178980000Y-73320000D01*
X179194285Y-73248571D01*
X179337142Y-73248571D01*
X179551428Y-73320000D01*
X179622857Y-73391428D01*
X180051428Y-73248571D02*
X180551428Y-74748571D01*
X181051428Y-73248571D01*
X182337142Y-74748571D02*
X181480000Y-74748571D01*
X181908571Y-74748571D02*
X181908571Y-73248571D01*
X181765714Y-73462857D01*
X181622857Y-73605714D01*
X181480000Y-73677142D01*
X183765714Y-74748571D02*
X182908571Y-74748571D01*
X183337142Y-74748571D02*
X183337142Y-73248571D01*
X183194285Y-73462857D01*
X183051428Y-73605714D01*
X182908571Y-73677142D01*
X161842857Y-74605714D02*
X161771428Y-74677142D01*
X161557142Y-74748571D01*
X161414285Y-74748571D01*
X161200000Y-74677142D01*
X161057142Y-74534285D01*
X160985714Y-74391428D01*
X160914285Y-74105714D01*
X160914285Y-73891428D01*
X160985714Y-73605714D01*
X161057142Y-73462857D01*
X161200000Y-73320000D01*
X161414285Y-73248571D01*
X161557142Y-73248571D01*
X161771428Y-73320000D01*
X161842857Y-73391428D01*
X162271428Y-73248571D02*
X162771428Y-74748571D01*
X163271428Y-73248571D01*
X164557142Y-74748571D02*
X163700000Y-74748571D01*
X164128571Y-74748571D02*
X164128571Y-73248571D01*
X163985714Y-73462857D01*
X163842857Y-73605714D01*
X163700000Y-73677142D01*
X165485714Y-73248571D02*
X165628571Y-73248571D01*
X165771428Y-73320000D01*
X165842857Y-73391428D01*
X165914285Y-73534285D01*
X165985714Y-73820000D01*
X165985714Y-74177142D01*
X165914285Y-74462857D01*
X165842857Y-74605714D01*
X165771428Y-74677142D01*
X165628571Y-74748571D01*
X165485714Y-74748571D01*
X165342857Y-74677142D01*
X165271428Y-74605714D01*
X165200000Y-74462857D01*
X165128571Y-74177142D01*
X165128571Y-73820000D01*
X165200000Y-73534285D01*
X165271428Y-73391428D01*
X165342857Y-73320000D01*
X165485714Y-73248571D01*
X144777142Y-74605714D02*
X144705714Y-74677142D01*
X144491428Y-74748571D01*
X144348571Y-74748571D01*
X144134285Y-74677142D01*
X143991428Y-74534285D01*
X143920000Y-74391428D01*
X143848571Y-74105714D01*
X143848571Y-73891428D01*
X143920000Y-73605714D01*
X143991428Y-73462857D01*
X144134285Y-73320000D01*
X144348571Y-73248571D01*
X144491428Y-73248571D01*
X144705714Y-73320000D01*
X144777142Y-73391428D01*
X145205714Y-73248571D02*
X145705714Y-74748571D01*
X146205714Y-73248571D01*
X146777142Y-74748571D02*
X147062857Y-74748571D01*
X147205714Y-74677142D01*
X147277142Y-74605714D01*
X147420000Y-74391428D01*
X147491428Y-74105714D01*
X147491428Y-73534285D01*
X147420000Y-73391428D01*
X147348571Y-73320000D01*
X147205714Y-73248571D01*
X146920000Y-73248571D01*
X146777142Y-73320000D01*
X146705714Y-73391428D01*
X146634285Y-73534285D01*
X146634285Y-73891428D01*
X146705714Y-74034285D01*
X146777142Y-74105714D01*
X146920000Y-74177142D01*
X147205714Y-74177142D01*
X147348571Y-74105714D01*
X147420000Y-74034285D01*
X147491428Y-73891428D01*
X126997142Y-74605714D02*
X126925714Y-74677142D01*
X126711428Y-74748571D01*
X126568571Y-74748571D01*
X126354285Y-74677142D01*
X126211428Y-74534285D01*
X126140000Y-74391428D01*
X126068571Y-74105714D01*
X126068571Y-73891428D01*
X126140000Y-73605714D01*
X126211428Y-73462857D01*
X126354285Y-73320000D01*
X126568571Y-73248571D01*
X126711428Y-73248571D01*
X126925714Y-73320000D01*
X126997142Y-73391428D01*
X127425714Y-73248571D02*
X127925714Y-74748571D01*
X128425714Y-73248571D01*
X129568571Y-73748571D02*
X129568571Y-74748571D01*
X129211428Y-73177142D02*
X128854285Y-74248571D01*
X129782857Y-74248571D01*
X109217142Y-74605714D02*
X109145714Y-74677142D01*
X108931428Y-74748571D01*
X108788571Y-74748571D01*
X108574285Y-74677142D01*
X108431428Y-74534285D01*
X108360000Y-74391428D01*
X108288571Y-74105714D01*
X108288571Y-73891428D01*
X108360000Y-73605714D01*
X108431428Y-73462857D01*
X108574285Y-73320000D01*
X108788571Y-73248571D01*
X108931428Y-73248571D01*
X109145714Y-73320000D01*
X109217142Y-73391428D01*
X109645714Y-73248571D02*
X110145714Y-74748571D01*
X110645714Y-73248571D01*
X111002857Y-73248571D02*
X111931428Y-73248571D01*
X111431428Y-73820000D01*
X111645714Y-73820000D01*
X111788571Y-73891428D01*
X111860000Y-73962857D01*
X111931428Y-74105714D01*
X111931428Y-74462857D01*
X111860000Y-74605714D01*
X111788571Y-74677142D01*
X111645714Y-74748571D01*
X111217142Y-74748571D01*
X111074285Y-74677142D01*
X111002857Y-74605714D01*
X91437142Y-74605714D02*
X91365714Y-74677142D01*
X91151428Y-74748571D01*
X91008571Y-74748571D01*
X90794285Y-74677142D01*
X90651428Y-74534285D01*
X90580000Y-74391428D01*
X90508571Y-74105714D01*
X90508571Y-73891428D01*
X90580000Y-73605714D01*
X90651428Y-73462857D01*
X90794285Y-73320000D01*
X91008571Y-73248571D01*
X91151428Y-73248571D01*
X91365714Y-73320000D01*
X91437142Y-73391428D01*
X91865714Y-73248571D02*
X92365714Y-74748571D01*
X92865714Y-73248571D01*
X93294285Y-73391428D02*
X93365714Y-73320000D01*
X93508571Y-73248571D01*
X93865714Y-73248571D01*
X94008571Y-73320000D01*
X94080000Y-73391428D01*
X94151428Y-73534285D01*
X94151428Y-73677142D01*
X94080000Y-73891428D01*
X93222857Y-74748571D01*
X94151428Y-74748571D01*
X73657142Y-74605714D02*
X73585714Y-74677142D01*
X73371428Y-74748571D01*
X73228571Y-74748571D01*
X73014285Y-74677142D01*
X72871428Y-74534285D01*
X72800000Y-74391428D01*
X72728571Y-74105714D01*
X72728571Y-73891428D01*
X72800000Y-73605714D01*
X72871428Y-73462857D01*
X73014285Y-73320000D01*
X73228571Y-73248571D01*
X73371428Y-73248571D01*
X73585714Y-73320000D01*
X73657142Y-73391428D01*
X74085714Y-73248571D02*
X74585714Y-74748571D01*
X75085714Y-73248571D01*
X76371428Y-74748571D02*
X75514285Y-74748571D01*
X75942857Y-74748571D02*
X75942857Y-73248571D01*
X75800000Y-73462857D01*
X75657142Y-73605714D01*
X75514285Y-73677142D01*
D15*
G04 #@! TO.C,J14*
X203510000Y-68280000D02*
X203510000Y-57780000D01*
X194510000Y-68280000D02*
X194510000Y-57780000D01*
X194510000Y-57780000D02*
X198510000Y-57780000D01*
X199510000Y-57780000D02*
X203510000Y-57780000D01*
X194510000Y-68280000D02*
X198660000Y-68280000D01*
X199360000Y-68280000D02*
X203510000Y-68280000D01*
X200810000Y-63780000D02*
G75*
G03X200810000Y-63780000I-1800000J0D01*
G01*
X200070000Y-71260000D02*
X200070000Y-70460000D01*
X200070000Y-71260000D02*
X199210000Y-71260000D01*
G04 #@! TO.C,J12*
X167950000Y-68280000D02*
X167950000Y-57780000D01*
X158950000Y-68280000D02*
X158950000Y-57780000D01*
X158950000Y-57780000D02*
X162950000Y-57780000D01*
X163950000Y-57780000D02*
X167950000Y-57780000D01*
X158950000Y-68280000D02*
X163100000Y-68280000D01*
X163800000Y-68280000D02*
X167950000Y-68280000D01*
X165250000Y-63780000D02*
G75*
G03X165250000Y-63780000I-1800000J0D01*
G01*
X164510000Y-71260000D02*
X164510000Y-70460000D01*
X164510000Y-71260000D02*
X163650000Y-71260000D01*
G04 #@! TO.C,J13*
X185730000Y-68280000D02*
X185730000Y-57780000D01*
X176730000Y-68280000D02*
X176730000Y-57780000D01*
X176730000Y-57780000D02*
X180730000Y-57780000D01*
X181730000Y-57780000D02*
X185730000Y-57780000D01*
X176730000Y-68280000D02*
X180880000Y-68280000D01*
X181580000Y-68280000D02*
X185730000Y-68280000D01*
X183030000Y-63780000D02*
G75*
G03X183030000Y-63780000I-1800000J0D01*
G01*
X182290000Y-71260000D02*
X182290000Y-70460000D01*
X182290000Y-71260000D02*
X181430000Y-71260000D01*
G04 #@! TO.C,J3*
X79050000Y-68280000D02*
X79050000Y-57780000D01*
X70050000Y-68280000D02*
X70050000Y-57780000D01*
X70050000Y-57780000D02*
X74050000Y-57780000D01*
X75050000Y-57780000D02*
X79050000Y-57780000D01*
X70050000Y-68280000D02*
X74200000Y-68280000D01*
X74900000Y-68280000D02*
X79050000Y-68280000D01*
X76350000Y-63780000D02*
G75*
G03X76350000Y-63780000I-1800000J0D01*
G01*
X75610000Y-71260000D02*
X75610000Y-70460000D01*
X75610000Y-71260000D02*
X74750000Y-71260000D01*
G04 #@! TO.C,J4*
X96830000Y-68280000D02*
X96830000Y-57780000D01*
X87830000Y-68280000D02*
X87830000Y-57780000D01*
X87830000Y-57780000D02*
X91830000Y-57780000D01*
X92830000Y-57780000D02*
X96830000Y-57780000D01*
X87830000Y-68280000D02*
X91980000Y-68280000D01*
X92680000Y-68280000D02*
X96830000Y-68280000D01*
X94130000Y-63780000D02*
G75*
G03X94130000Y-63780000I-1800000J0D01*
G01*
X93390000Y-71260000D02*
X93390000Y-70460000D01*
X93390000Y-71260000D02*
X92530000Y-71260000D01*
G04 #@! TO.C,J5*
X114610000Y-68280000D02*
X114610000Y-57780000D01*
X105610000Y-68280000D02*
X105610000Y-57780000D01*
X105610000Y-57780000D02*
X109610000Y-57780000D01*
X110610000Y-57780000D02*
X114610000Y-57780000D01*
X105610000Y-68280000D02*
X109760000Y-68280000D01*
X110460000Y-68280000D02*
X114610000Y-68280000D01*
X111910000Y-63780000D02*
G75*
G03X111910000Y-63780000I-1800000J0D01*
G01*
X111170000Y-71260000D02*
X111170000Y-70460000D01*
X111170000Y-71260000D02*
X110310000Y-71260000D01*
G04 #@! TO.C,J6*
X132390000Y-68280000D02*
X132390000Y-57780000D01*
X123390000Y-68280000D02*
X123390000Y-57780000D01*
X123390000Y-57780000D02*
X127390000Y-57780000D01*
X128390000Y-57780000D02*
X132390000Y-57780000D01*
X123390000Y-68280000D02*
X127540000Y-68280000D01*
X128240000Y-68280000D02*
X132390000Y-68280000D01*
X129690000Y-63780000D02*
G75*
G03X129690000Y-63780000I-1800000J0D01*
G01*
X128950000Y-71260000D02*
X128950000Y-70460000D01*
X128950000Y-71260000D02*
X128090000Y-71260000D01*
G04 #@! TO.C,J7*
X79050000Y-114000000D02*
X79050000Y-103500000D01*
X70050000Y-114000000D02*
X70050000Y-103500000D01*
X70050000Y-103500000D02*
X74050000Y-103500000D01*
X75050000Y-103500000D02*
X79050000Y-103500000D01*
X70050000Y-114000000D02*
X74200000Y-114000000D01*
X74900000Y-114000000D02*
X79050000Y-114000000D01*
X76350000Y-109500000D02*
G75*
G03X76350000Y-109500000I-1800000J0D01*
G01*
X75610000Y-116980000D02*
X75610000Y-116180000D01*
X75610000Y-116980000D02*
X74750000Y-116980000D01*
G04 #@! TO.C,J8*
X96830000Y-114000000D02*
X96830000Y-103500000D01*
X87830000Y-114000000D02*
X87830000Y-103500000D01*
X87830000Y-103500000D02*
X91830000Y-103500000D01*
X92830000Y-103500000D02*
X96830000Y-103500000D01*
X87830000Y-114000000D02*
X91980000Y-114000000D01*
X92680000Y-114000000D02*
X96830000Y-114000000D01*
X94130000Y-109500000D02*
G75*
G03X94130000Y-109500000I-1800000J0D01*
G01*
X93390000Y-116980000D02*
X93390000Y-116180000D01*
X93390000Y-116980000D02*
X92530000Y-116980000D01*
G04 #@! TO.C,J9*
X114610000Y-114000000D02*
X114610000Y-103500000D01*
X105610000Y-114000000D02*
X105610000Y-103500000D01*
X105610000Y-103500000D02*
X109610000Y-103500000D01*
X110610000Y-103500000D02*
X114610000Y-103500000D01*
X105610000Y-114000000D02*
X109760000Y-114000000D01*
X110460000Y-114000000D02*
X114610000Y-114000000D01*
X111910000Y-109500000D02*
G75*
G03X111910000Y-109500000I-1800000J0D01*
G01*
X111170000Y-116980000D02*
X111170000Y-116180000D01*
X111170000Y-116980000D02*
X110310000Y-116980000D01*
G04 #@! TO.C,J10*
X132390000Y-114000000D02*
X132390000Y-103500000D01*
X123390000Y-114000000D02*
X123390000Y-103500000D01*
X123390000Y-103500000D02*
X127390000Y-103500000D01*
X128390000Y-103500000D02*
X132390000Y-103500000D01*
X123390000Y-114000000D02*
X127540000Y-114000000D01*
X128240000Y-114000000D02*
X132390000Y-114000000D01*
X129690000Y-109500000D02*
G75*
G03X129690000Y-109500000I-1800000J0D01*
G01*
X128950000Y-116980000D02*
X128950000Y-116180000D01*
X128950000Y-116980000D02*
X128090000Y-116980000D01*
G04 #@! TO.C,J11*
X150170000Y-68280000D02*
X150170000Y-57780000D01*
X141170000Y-68280000D02*
X141170000Y-57780000D01*
X141170000Y-57780000D02*
X145170000Y-57780000D01*
X146170000Y-57780000D02*
X150170000Y-57780000D01*
X141170000Y-68280000D02*
X145320000Y-68280000D01*
X146020000Y-68280000D02*
X150170000Y-68280000D01*
X147470000Y-63780000D02*
G75*
G03X147470000Y-63780000I-1800000J0D01*
G01*
X146730000Y-71260000D02*
X146730000Y-70460000D01*
X146730000Y-71260000D02*
X145870000Y-71260000D01*
G04 #@! TO.C,J15*
X150170000Y-114000000D02*
X150170000Y-103500000D01*
X141170000Y-114000000D02*
X141170000Y-103500000D01*
X141170000Y-103500000D02*
X145170000Y-103500000D01*
X146170000Y-103500000D02*
X150170000Y-103500000D01*
X141170000Y-114000000D02*
X145320000Y-114000000D01*
X146020000Y-114000000D02*
X150170000Y-114000000D01*
X147470000Y-109500000D02*
G75*
G03X147470000Y-109500000I-1800000J0D01*
G01*
X146730000Y-116980000D02*
X146730000Y-116180000D01*
X146730000Y-116980000D02*
X145870000Y-116980000D01*
G04 #@! TO.C,J16*
X167950000Y-114000000D02*
X167950000Y-103500000D01*
X158950000Y-114000000D02*
X158950000Y-103500000D01*
X158950000Y-103500000D02*
X162950000Y-103500000D01*
X163950000Y-103500000D02*
X167950000Y-103500000D01*
X158950000Y-114000000D02*
X163100000Y-114000000D01*
X163800000Y-114000000D02*
X167950000Y-114000000D01*
X165250000Y-109500000D02*
G75*
G03X165250000Y-109500000I-1800000J0D01*
G01*
X164510000Y-116980000D02*
X164510000Y-116180000D01*
X164510000Y-116980000D02*
X163650000Y-116980000D01*
G04 #@! TO.C,J17*
X185730000Y-114000000D02*
X185730000Y-103500000D01*
X176730000Y-114000000D02*
X176730000Y-103500000D01*
X176730000Y-103500000D02*
X180730000Y-103500000D01*
X181730000Y-103500000D02*
X185730000Y-103500000D01*
X176730000Y-114000000D02*
X180880000Y-114000000D01*
X181580000Y-114000000D02*
X185730000Y-114000000D01*
X183030000Y-109500000D02*
G75*
G03X183030000Y-109500000I-1800000J0D01*
G01*
X182290000Y-116980000D02*
X182290000Y-116180000D01*
X182290000Y-116980000D02*
X181430000Y-116980000D01*
G04 #@! TO.C,J18*
X203510000Y-114000000D02*
X203510000Y-103500000D01*
X194510000Y-114000000D02*
X194510000Y-103500000D01*
X194510000Y-103500000D02*
X198510000Y-103500000D01*
X199510000Y-103500000D02*
X203510000Y-103500000D01*
X194510000Y-114000000D02*
X198660000Y-114000000D01*
X199360000Y-114000000D02*
X203510000Y-114000000D01*
X200810000Y-109500000D02*
G75*
G03X200810000Y-109500000I-1800000J0D01*
G01*
X200070000Y-116980000D02*
X200070000Y-116180000D01*
X200070000Y-116980000D02*
X199210000Y-116980000D01*
G04 #@! TO.C,RV1*
X76210000Y-54140000D02*
X75380000Y-54140000D01*
X73760000Y-54140000D02*
X73230000Y-54140000D01*
X70860000Y-54140000D02*
X69680000Y-54140000D01*
X79420000Y-54140000D02*
X79420000Y-49420000D01*
X69680000Y-45610000D02*
X69680000Y-42550000D01*
X69670000Y-54140000D02*
X69670000Y-49420000D01*
X79420000Y-45610000D02*
X79420000Y-42550000D01*
X79420000Y-54140000D02*
X77930000Y-54140000D01*
X79420000Y-42550000D02*
X69680000Y-42550000D01*
G04 #@! TO.C,RV2*
X97200000Y-42550000D02*
X87460000Y-42550000D01*
X97200000Y-54140000D02*
X95710000Y-54140000D01*
X97200000Y-45610000D02*
X97200000Y-42550000D01*
X87450000Y-54140000D02*
X87450000Y-49420000D01*
X87460000Y-45610000D02*
X87460000Y-42550000D01*
X97200000Y-54140000D02*
X97200000Y-49420000D01*
X88640000Y-54140000D02*
X87460000Y-54140000D01*
X91540000Y-54140000D02*
X91010000Y-54140000D01*
X93990000Y-54140000D02*
X93160000Y-54140000D01*
G04 #@! TO.C,RV3*
X111770000Y-54140000D02*
X110940000Y-54140000D01*
X109320000Y-54140000D02*
X108790000Y-54140000D01*
X106420000Y-54140000D02*
X105240000Y-54140000D01*
X114980000Y-54140000D02*
X114980000Y-49420000D01*
X105240000Y-45610000D02*
X105240000Y-42550000D01*
X105230000Y-54140000D02*
X105230000Y-49420000D01*
X114980000Y-45610000D02*
X114980000Y-42550000D01*
X114980000Y-54140000D02*
X113490000Y-54140000D01*
X114980000Y-42550000D02*
X105240000Y-42550000D01*
G04 #@! TO.C,RV4*
X129550000Y-54140000D02*
X128720000Y-54140000D01*
X127100000Y-54140000D02*
X126570000Y-54140000D01*
X124200000Y-54140000D02*
X123020000Y-54140000D01*
X132760000Y-54140000D02*
X132760000Y-49420000D01*
X123020000Y-45610000D02*
X123020000Y-42550000D01*
X123010000Y-54140000D02*
X123010000Y-49420000D01*
X132760000Y-45610000D02*
X132760000Y-42550000D01*
X132760000Y-54140000D02*
X131270000Y-54140000D01*
X132760000Y-42550000D02*
X123020000Y-42550000D01*
G04 #@! TO.C,RV5*
X79420000Y-88270000D02*
X69680000Y-88270000D01*
X79420000Y-99860000D02*
X77930000Y-99860000D01*
X79420000Y-91330000D02*
X79420000Y-88270000D01*
X69670000Y-99860000D02*
X69670000Y-95140000D01*
X69680000Y-91330000D02*
X69680000Y-88270000D01*
X79420000Y-99860000D02*
X79420000Y-95140000D01*
X70860000Y-99860000D02*
X69680000Y-99860000D01*
X73760000Y-99860000D02*
X73230000Y-99860000D01*
X76210000Y-99860000D02*
X75380000Y-99860000D01*
G04 #@! TO.C,RV6*
X93990000Y-99860000D02*
X93160000Y-99860000D01*
X91540000Y-99860000D02*
X91010000Y-99860000D01*
X88640000Y-99860000D02*
X87460000Y-99860000D01*
X97200000Y-99860000D02*
X97200000Y-95140000D01*
X87460000Y-91330000D02*
X87460000Y-88270000D01*
X87450000Y-99860000D02*
X87450000Y-95140000D01*
X97200000Y-91330000D02*
X97200000Y-88270000D01*
X97200000Y-99860000D02*
X95710000Y-99860000D01*
X97200000Y-88270000D02*
X87460000Y-88270000D01*
G04 #@! TO.C,RV7*
X111770000Y-99860000D02*
X110940000Y-99860000D01*
X109320000Y-99860000D02*
X108790000Y-99860000D01*
X106420000Y-99860000D02*
X105240000Y-99860000D01*
X114980000Y-99860000D02*
X114980000Y-95140000D01*
X105240000Y-91330000D02*
X105240000Y-88270000D01*
X105230000Y-99860000D02*
X105230000Y-95140000D01*
X114980000Y-91330000D02*
X114980000Y-88270000D01*
X114980000Y-99860000D02*
X113490000Y-99860000D01*
X114980000Y-88270000D02*
X105240000Y-88270000D01*
G04 #@! TO.C,RV8*
X132760000Y-88270000D02*
X123020000Y-88270000D01*
X132760000Y-99860000D02*
X131270000Y-99860000D01*
X132760000Y-91330000D02*
X132760000Y-88270000D01*
X123010000Y-99860000D02*
X123010000Y-95140000D01*
X123020000Y-91330000D02*
X123020000Y-88270000D01*
X132760000Y-99860000D02*
X132760000Y-95140000D01*
X124200000Y-99860000D02*
X123020000Y-99860000D01*
X127100000Y-99860000D02*
X126570000Y-99860000D01*
X129550000Y-99860000D02*
X128720000Y-99860000D01*
G04 #@! TO.C,RV9*
X150540000Y-42550000D02*
X140800000Y-42550000D01*
X150540000Y-54140000D02*
X149050000Y-54140000D01*
X150540000Y-45610000D02*
X150540000Y-42550000D01*
X140790000Y-54140000D02*
X140790000Y-49420000D01*
X140800000Y-45610000D02*
X140800000Y-42550000D01*
X150540000Y-54140000D02*
X150540000Y-49420000D01*
X141980000Y-54140000D02*
X140800000Y-54140000D01*
X144880000Y-54140000D02*
X144350000Y-54140000D01*
X147330000Y-54140000D02*
X146500000Y-54140000D01*
G04 #@! TO.C,RV10*
X168320000Y-42550000D02*
X158580000Y-42550000D01*
X168320000Y-54140000D02*
X166830000Y-54140000D01*
X168320000Y-45610000D02*
X168320000Y-42550000D01*
X158570000Y-54140000D02*
X158570000Y-49420000D01*
X158580000Y-45610000D02*
X158580000Y-42550000D01*
X168320000Y-54140000D02*
X168320000Y-49420000D01*
X159760000Y-54140000D02*
X158580000Y-54140000D01*
X162660000Y-54140000D02*
X162130000Y-54140000D01*
X165110000Y-54140000D02*
X164280000Y-54140000D01*
G04 #@! TO.C,RV11*
X182890000Y-54140000D02*
X182060000Y-54140000D01*
X180440000Y-54140000D02*
X179910000Y-54140000D01*
X177540000Y-54140000D02*
X176360000Y-54140000D01*
X186100000Y-54140000D02*
X186100000Y-49420000D01*
X176360000Y-45610000D02*
X176360000Y-42550000D01*
X176350000Y-54140000D02*
X176350000Y-49420000D01*
X186100000Y-45610000D02*
X186100000Y-42550000D01*
X186100000Y-54140000D02*
X184610000Y-54140000D01*
X186100000Y-42550000D02*
X176360000Y-42550000D01*
G04 #@! TO.C,RV12*
X203880000Y-42550000D02*
X194140000Y-42550000D01*
X203880000Y-54140000D02*
X202390000Y-54140000D01*
X203880000Y-45610000D02*
X203880000Y-42550000D01*
X194130000Y-54140000D02*
X194130000Y-49420000D01*
X194140000Y-45610000D02*
X194140000Y-42550000D01*
X203880000Y-54140000D02*
X203880000Y-49420000D01*
X195320000Y-54140000D02*
X194140000Y-54140000D01*
X198220000Y-54140000D02*
X197690000Y-54140000D01*
X200670000Y-54140000D02*
X199840000Y-54140000D01*
G04 #@! TO.C,RV13*
X147330000Y-99860000D02*
X146500000Y-99860000D01*
X144880000Y-99860000D02*
X144350000Y-99860000D01*
X141980000Y-99860000D02*
X140800000Y-99860000D01*
X150540000Y-99860000D02*
X150540000Y-95140000D01*
X140800000Y-91330000D02*
X140800000Y-88270000D01*
X140790000Y-99860000D02*
X140790000Y-95140000D01*
X150540000Y-91330000D02*
X150540000Y-88270000D01*
X150540000Y-99860000D02*
X149050000Y-99860000D01*
X150540000Y-88270000D02*
X140800000Y-88270000D01*
G04 #@! TO.C,RV14*
X168320000Y-88270000D02*
X158580000Y-88270000D01*
X168320000Y-99860000D02*
X166830000Y-99860000D01*
X168320000Y-91330000D02*
X168320000Y-88270000D01*
X158570000Y-99860000D02*
X158570000Y-95140000D01*
X158580000Y-91330000D02*
X158580000Y-88270000D01*
X168320000Y-99860000D02*
X168320000Y-95140000D01*
X159760000Y-99860000D02*
X158580000Y-99860000D01*
X162660000Y-99860000D02*
X162130000Y-99860000D01*
X165110000Y-99860000D02*
X164280000Y-99860000D01*
G04 #@! TO.C,RV15*
X182890000Y-99860000D02*
X182060000Y-99860000D01*
X180440000Y-99860000D02*
X179910000Y-99860000D01*
X177540000Y-99860000D02*
X176360000Y-99860000D01*
X186100000Y-99860000D02*
X186100000Y-95140000D01*
X176360000Y-91330000D02*
X176360000Y-88270000D01*
X176350000Y-99860000D02*
X176350000Y-95140000D01*
X186100000Y-91330000D02*
X186100000Y-88270000D01*
X186100000Y-99860000D02*
X184610000Y-99860000D01*
X186100000Y-88270000D02*
X176360000Y-88270000D01*
G04 #@! TO.C,RV16*
X203880000Y-88270000D02*
X194140000Y-88270000D01*
X203880000Y-99860000D02*
X202390000Y-99860000D01*
X203880000Y-91330000D02*
X203880000Y-88270000D01*
X194130000Y-99860000D02*
X194130000Y-95140000D01*
X194140000Y-91330000D02*
X194140000Y-88270000D01*
X203880000Y-99860000D02*
X203880000Y-95140000D01*
X195320000Y-99860000D02*
X194140000Y-99860000D01*
X198220000Y-99860000D02*
X197690000Y-99860000D01*
X200670000Y-99860000D02*
X199840000Y-99860000D01*
G04 #@! TO.C,J2*
X106030000Y-136705000D02*
X164990000Y-136705000D01*
X164990000Y-136705000D02*
X164990000Y-146055000D01*
X164990000Y-146055000D02*
X106030000Y-146055000D01*
X106030000Y-146055000D02*
X106030000Y-136705000D01*
X105780000Y-146305000D02*
X108320000Y-146305000D01*
X105780000Y-146305000D02*
X105780000Y-143765000D01*
G04 #@! TD*
G04 #@! TO.C,J14*
D16*
X202230476Y-68632380D02*
X202230476Y-69346666D01*
X202182857Y-69489523D01*
X202087619Y-69584761D01*
X201944761Y-69632380D01*
X201849523Y-69632380D01*
X203230476Y-69632380D02*
X202659047Y-69632380D01*
X202944761Y-69632380D02*
X202944761Y-68632380D01*
X202849523Y-68775238D01*
X202754285Y-68870476D01*
X202659047Y-68918095D01*
X204087619Y-68965714D02*
X204087619Y-69632380D01*
X203849523Y-68584761D02*
X203611428Y-69299047D01*
X204230476Y-69299047D01*
G04 #@! TO.C,J12*
X166670476Y-68632380D02*
X166670476Y-69346666D01*
X166622857Y-69489523D01*
X166527619Y-69584761D01*
X166384761Y-69632380D01*
X166289523Y-69632380D01*
X167670476Y-69632380D02*
X167099047Y-69632380D01*
X167384761Y-69632380D02*
X167384761Y-68632380D01*
X167289523Y-68775238D01*
X167194285Y-68870476D01*
X167099047Y-68918095D01*
X168051428Y-68727619D02*
X168099047Y-68680000D01*
X168194285Y-68632380D01*
X168432380Y-68632380D01*
X168527619Y-68680000D01*
X168575238Y-68727619D01*
X168622857Y-68822857D01*
X168622857Y-68918095D01*
X168575238Y-69060952D01*
X168003809Y-69632380D01*
X168622857Y-69632380D01*
G04 #@! TO.C,J13*
X184450476Y-68632380D02*
X184450476Y-69346666D01*
X184402857Y-69489523D01*
X184307619Y-69584761D01*
X184164761Y-69632380D01*
X184069523Y-69632380D01*
X185450476Y-69632380D02*
X184879047Y-69632380D01*
X185164761Y-69632380D02*
X185164761Y-68632380D01*
X185069523Y-68775238D01*
X184974285Y-68870476D01*
X184879047Y-68918095D01*
X185783809Y-68632380D02*
X186402857Y-68632380D01*
X186069523Y-69013333D01*
X186212380Y-69013333D01*
X186307619Y-69060952D01*
X186355238Y-69108571D01*
X186402857Y-69203809D01*
X186402857Y-69441904D01*
X186355238Y-69537142D01*
X186307619Y-69584761D01*
X186212380Y-69632380D01*
X185926666Y-69632380D01*
X185831428Y-69584761D01*
X185783809Y-69537142D01*
G04 #@! TO.C,J3*
X78246666Y-68632380D02*
X78246666Y-69346666D01*
X78199047Y-69489523D01*
X78103809Y-69584761D01*
X77960952Y-69632380D01*
X77865714Y-69632380D01*
X78627619Y-68632380D02*
X79246666Y-68632380D01*
X78913333Y-69013333D01*
X79056190Y-69013333D01*
X79151428Y-69060952D01*
X79199047Y-69108571D01*
X79246666Y-69203809D01*
X79246666Y-69441904D01*
X79199047Y-69537142D01*
X79151428Y-69584761D01*
X79056190Y-69632380D01*
X78770476Y-69632380D01*
X78675238Y-69584761D01*
X78627619Y-69537142D01*
G04 #@! TO.C,J4*
X96026666Y-68632380D02*
X96026666Y-69346666D01*
X95979047Y-69489523D01*
X95883809Y-69584761D01*
X95740952Y-69632380D01*
X95645714Y-69632380D01*
X96931428Y-68965714D02*
X96931428Y-69632380D01*
X96693333Y-68584761D02*
X96455238Y-69299047D01*
X97074285Y-69299047D01*
G04 #@! TO.C,J5*
X113806666Y-68632380D02*
X113806666Y-69346666D01*
X113759047Y-69489523D01*
X113663809Y-69584761D01*
X113520952Y-69632380D01*
X113425714Y-69632380D01*
X114759047Y-68632380D02*
X114282857Y-68632380D01*
X114235238Y-69108571D01*
X114282857Y-69060952D01*
X114378095Y-69013333D01*
X114616190Y-69013333D01*
X114711428Y-69060952D01*
X114759047Y-69108571D01*
X114806666Y-69203809D01*
X114806666Y-69441904D01*
X114759047Y-69537142D01*
X114711428Y-69584761D01*
X114616190Y-69632380D01*
X114378095Y-69632380D01*
X114282857Y-69584761D01*
X114235238Y-69537142D01*
G04 #@! TO.C,J6*
X131586666Y-68632380D02*
X131586666Y-69346666D01*
X131539047Y-69489523D01*
X131443809Y-69584761D01*
X131300952Y-69632380D01*
X131205714Y-69632380D01*
X132491428Y-68632380D02*
X132300952Y-68632380D01*
X132205714Y-68680000D01*
X132158095Y-68727619D01*
X132062857Y-68870476D01*
X132015238Y-69060952D01*
X132015238Y-69441904D01*
X132062857Y-69537142D01*
X132110476Y-69584761D01*
X132205714Y-69632380D01*
X132396190Y-69632380D01*
X132491428Y-69584761D01*
X132539047Y-69537142D01*
X132586666Y-69441904D01*
X132586666Y-69203809D01*
X132539047Y-69108571D01*
X132491428Y-69060952D01*
X132396190Y-69013333D01*
X132205714Y-69013333D01*
X132110476Y-69060952D01*
X132062857Y-69108571D01*
X132015238Y-69203809D01*
G04 #@! TO.C,J7*
X78246666Y-114352380D02*
X78246666Y-115066666D01*
X78199047Y-115209523D01*
X78103809Y-115304761D01*
X77960952Y-115352380D01*
X77865714Y-115352380D01*
X78627619Y-114352380D02*
X79294285Y-114352380D01*
X78865714Y-115352380D01*
G04 #@! TO.C,J8*
X96026666Y-114352380D02*
X96026666Y-115066666D01*
X95979047Y-115209523D01*
X95883809Y-115304761D01*
X95740952Y-115352380D01*
X95645714Y-115352380D01*
X96645714Y-114780952D02*
X96550476Y-114733333D01*
X96502857Y-114685714D01*
X96455238Y-114590476D01*
X96455238Y-114542857D01*
X96502857Y-114447619D01*
X96550476Y-114400000D01*
X96645714Y-114352380D01*
X96836190Y-114352380D01*
X96931428Y-114400000D01*
X96979047Y-114447619D01*
X97026666Y-114542857D01*
X97026666Y-114590476D01*
X96979047Y-114685714D01*
X96931428Y-114733333D01*
X96836190Y-114780952D01*
X96645714Y-114780952D01*
X96550476Y-114828571D01*
X96502857Y-114876190D01*
X96455238Y-114971428D01*
X96455238Y-115161904D01*
X96502857Y-115257142D01*
X96550476Y-115304761D01*
X96645714Y-115352380D01*
X96836190Y-115352380D01*
X96931428Y-115304761D01*
X96979047Y-115257142D01*
X97026666Y-115161904D01*
X97026666Y-114971428D01*
X96979047Y-114876190D01*
X96931428Y-114828571D01*
X96836190Y-114780952D01*
G04 #@! TO.C,J9*
X113806666Y-114352380D02*
X113806666Y-115066666D01*
X113759047Y-115209523D01*
X113663809Y-115304761D01*
X113520952Y-115352380D01*
X113425714Y-115352380D01*
X114330476Y-115352380D02*
X114520952Y-115352380D01*
X114616190Y-115304761D01*
X114663809Y-115257142D01*
X114759047Y-115114285D01*
X114806666Y-114923809D01*
X114806666Y-114542857D01*
X114759047Y-114447619D01*
X114711428Y-114400000D01*
X114616190Y-114352380D01*
X114425714Y-114352380D01*
X114330476Y-114400000D01*
X114282857Y-114447619D01*
X114235238Y-114542857D01*
X114235238Y-114780952D01*
X114282857Y-114876190D01*
X114330476Y-114923809D01*
X114425714Y-114971428D01*
X114616190Y-114971428D01*
X114711428Y-114923809D01*
X114759047Y-114876190D01*
X114806666Y-114780952D01*
G04 #@! TO.C,J10*
X131110476Y-114352380D02*
X131110476Y-115066666D01*
X131062857Y-115209523D01*
X130967619Y-115304761D01*
X130824761Y-115352380D01*
X130729523Y-115352380D01*
X132110476Y-115352380D02*
X131539047Y-115352380D01*
X131824761Y-115352380D02*
X131824761Y-114352380D01*
X131729523Y-114495238D01*
X131634285Y-114590476D01*
X131539047Y-114638095D01*
X132729523Y-114352380D02*
X132824761Y-114352380D01*
X132920000Y-114400000D01*
X132967619Y-114447619D01*
X133015238Y-114542857D01*
X133062857Y-114733333D01*
X133062857Y-114971428D01*
X133015238Y-115161904D01*
X132967619Y-115257142D01*
X132920000Y-115304761D01*
X132824761Y-115352380D01*
X132729523Y-115352380D01*
X132634285Y-115304761D01*
X132586666Y-115257142D01*
X132539047Y-115161904D01*
X132491428Y-114971428D01*
X132491428Y-114733333D01*
X132539047Y-114542857D01*
X132586666Y-114447619D01*
X132634285Y-114400000D01*
X132729523Y-114352380D01*
G04 #@! TO.C,J11*
X148890476Y-68632380D02*
X148890476Y-69346666D01*
X148842857Y-69489523D01*
X148747619Y-69584761D01*
X148604761Y-69632380D01*
X148509523Y-69632380D01*
X149890476Y-69632380D02*
X149319047Y-69632380D01*
X149604761Y-69632380D02*
X149604761Y-68632380D01*
X149509523Y-68775238D01*
X149414285Y-68870476D01*
X149319047Y-68918095D01*
X150842857Y-69632380D02*
X150271428Y-69632380D01*
X150557142Y-69632380D02*
X150557142Y-68632380D01*
X150461904Y-68775238D01*
X150366666Y-68870476D01*
X150271428Y-68918095D01*
G04 #@! TO.C,J15*
X148890476Y-114352380D02*
X148890476Y-115066666D01*
X148842857Y-115209523D01*
X148747619Y-115304761D01*
X148604761Y-115352380D01*
X148509523Y-115352380D01*
X149890476Y-115352380D02*
X149319047Y-115352380D01*
X149604761Y-115352380D02*
X149604761Y-114352380D01*
X149509523Y-114495238D01*
X149414285Y-114590476D01*
X149319047Y-114638095D01*
X150795238Y-114352380D02*
X150319047Y-114352380D01*
X150271428Y-114828571D01*
X150319047Y-114780952D01*
X150414285Y-114733333D01*
X150652380Y-114733333D01*
X150747619Y-114780952D01*
X150795238Y-114828571D01*
X150842857Y-114923809D01*
X150842857Y-115161904D01*
X150795238Y-115257142D01*
X150747619Y-115304761D01*
X150652380Y-115352380D01*
X150414285Y-115352380D01*
X150319047Y-115304761D01*
X150271428Y-115257142D01*
G04 #@! TO.C,J16*
X166670476Y-114352380D02*
X166670476Y-115066666D01*
X166622857Y-115209523D01*
X166527619Y-115304761D01*
X166384761Y-115352380D01*
X166289523Y-115352380D01*
X167670476Y-115352380D02*
X167099047Y-115352380D01*
X167384761Y-115352380D02*
X167384761Y-114352380D01*
X167289523Y-114495238D01*
X167194285Y-114590476D01*
X167099047Y-114638095D01*
X168527619Y-114352380D02*
X168337142Y-114352380D01*
X168241904Y-114400000D01*
X168194285Y-114447619D01*
X168099047Y-114590476D01*
X168051428Y-114780952D01*
X168051428Y-115161904D01*
X168099047Y-115257142D01*
X168146666Y-115304761D01*
X168241904Y-115352380D01*
X168432380Y-115352380D01*
X168527619Y-115304761D01*
X168575238Y-115257142D01*
X168622857Y-115161904D01*
X168622857Y-114923809D01*
X168575238Y-114828571D01*
X168527619Y-114780952D01*
X168432380Y-114733333D01*
X168241904Y-114733333D01*
X168146666Y-114780952D01*
X168099047Y-114828571D01*
X168051428Y-114923809D01*
G04 #@! TO.C,J17*
X184450476Y-114352380D02*
X184450476Y-115066666D01*
X184402857Y-115209523D01*
X184307619Y-115304761D01*
X184164761Y-115352380D01*
X184069523Y-115352380D01*
X185450476Y-115352380D02*
X184879047Y-115352380D01*
X185164761Y-115352380D02*
X185164761Y-114352380D01*
X185069523Y-114495238D01*
X184974285Y-114590476D01*
X184879047Y-114638095D01*
X185783809Y-114352380D02*
X186450476Y-114352380D01*
X186021904Y-115352380D01*
G04 #@! TO.C,J18*
X202230476Y-114352380D02*
X202230476Y-115066666D01*
X202182857Y-115209523D01*
X202087619Y-115304761D01*
X201944761Y-115352380D01*
X201849523Y-115352380D01*
X203230476Y-115352380D02*
X202659047Y-115352380D01*
X202944761Y-115352380D02*
X202944761Y-114352380D01*
X202849523Y-114495238D01*
X202754285Y-114590476D01*
X202659047Y-114638095D01*
X203801904Y-114780952D02*
X203706666Y-114733333D01*
X203659047Y-114685714D01*
X203611428Y-114590476D01*
X203611428Y-114542857D01*
X203659047Y-114447619D01*
X203706666Y-114400000D01*
X203801904Y-114352380D01*
X203992380Y-114352380D01*
X204087619Y-114400000D01*
X204135238Y-114447619D01*
X204182857Y-114542857D01*
X204182857Y-114590476D01*
X204135238Y-114685714D01*
X204087619Y-114733333D01*
X203992380Y-114780952D01*
X203801904Y-114780952D01*
X203706666Y-114828571D01*
X203659047Y-114876190D01*
X203611428Y-114971428D01*
X203611428Y-115161904D01*
X203659047Y-115257142D01*
X203706666Y-115304761D01*
X203801904Y-115352380D01*
X203992380Y-115352380D01*
X204087619Y-115304761D01*
X204135238Y-115257142D01*
X204182857Y-115161904D01*
X204182857Y-114971428D01*
X204135238Y-114876190D01*
X204087619Y-114828571D01*
X203992380Y-114780952D01*
G04 #@! TO.C,RV1*
X67862380Y-48905238D02*
X67386190Y-49238571D01*
X67862380Y-49476666D02*
X66862380Y-49476666D01*
X66862380Y-49095714D01*
X66910000Y-49000476D01*
X66957619Y-48952857D01*
X67052857Y-48905238D01*
X67195714Y-48905238D01*
X67290952Y-48952857D01*
X67338571Y-49000476D01*
X67386190Y-49095714D01*
X67386190Y-49476666D01*
X66862380Y-48619523D02*
X67862380Y-48286190D01*
X66862380Y-47952857D01*
X67862380Y-47095714D02*
X67862380Y-47667142D01*
X67862380Y-47381428D02*
X66862380Y-47381428D01*
X67005238Y-47476666D01*
X67100476Y-47571904D01*
X67148095Y-47667142D01*
G04 #@! TO.C,RV2*
X85642380Y-48905238D02*
X85166190Y-49238571D01*
X85642380Y-49476666D02*
X84642380Y-49476666D01*
X84642380Y-49095714D01*
X84690000Y-49000476D01*
X84737619Y-48952857D01*
X84832857Y-48905238D01*
X84975714Y-48905238D01*
X85070952Y-48952857D01*
X85118571Y-49000476D01*
X85166190Y-49095714D01*
X85166190Y-49476666D01*
X84642380Y-48619523D02*
X85642380Y-48286190D01*
X84642380Y-47952857D01*
X84737619Y-47667142D02*
X84690000Y-47619523D01*
X84642380Y-47524285D01*
X84642380Y-47286190D01*
X84690000Y-47190952D01*
X84737619Y-47143333D01*
X84832857Y-47095714D01*
X84928095Y-47095714D01*
X85070952Y-47143333D01*
X85642380Y-47714761D01*
X85642380Y-47095714D01*
G04 #@! TO.C,RV3*
X103422380Y-48905238D02*
X102946190Y-49238571D01*
X103422380Y-49476666D02*
X102422380Y-49476666D01*
X102422380Y-49095714D01*
X102470000Y-49000476D01*
X102517619Y-48952857D01*
X102612857Y-48905238D01*
X102755714Y-48905238D01*
X102850952Y-48952857D01*
X102898571Y-49000476D01*
X102946190Y-49095714D01*
X102946190Y-49476666D01*
X102422380Y-48619523D02*
X103422380Y-48286190D01*
X102422380Y-47952857D01*
X102422380Y-47714761D02*
X102422380Y-47095714D01*
X102803333Y-47429047D01*
X102803333Y-47286190D01*
X102850952Y-47190952D01*
X102898571Y-47143333D01*
X102993809Y-47095714D01*
X103231904Y-47095714D01*
X103327142Y-47143333D01*
X103374761Y-47190952D01*
X103422380Y-47286190D01*
X103422380Y-47571904D01*
X103374761Y-47667142D01*
X103327142Y-47714761D01*
G04 #@! TO.C,RV4*
X121202380Y-48905238D02*
X120726190Y-49238571D01*
X121202380Y-49476666D02*
X120202380Y-49476666D01*
X120202380Y-49095714D01*
X120250000Y-49000476D01*
X120297619Y-48952857D01*
X120392857Y-48905238D01*
X120535714Y-48905238D01*
X120630952Y-48952857D01*
X120678571Y-49000476D01*
X120726190Y-49095714D01*
X120726190Y-49476666D01*
X120202380Y-48619523D02*
X121202380Y-48286190D01*
X120202380Y-47952857D01*
X120535714Y-47190952D02*
X121202380Y-47190952D01*
X120154761Y-47429047D02*
X120869047Y-47667142D01*
X120869047Y-47048095D01*
G04 #@! TO.C,RV5*
X67862380Y-94625238D02*
X67386190Y-94958571D01*
X67862380Y-95196666D02*
X66862380Y-95196666D01*
X66862380Y-94815714D01*
X66910000Y-94720476D01*
X66957619Y-94672857D01*
X67052857Y-94625238D01*
X67195714Y-94625238D01*
X67290952Y-94672857D01*
X67338571Y-94720476D01*
X67386190Y-94815714D01*
X67386190Y-95196666D01*
X66862380Y-94339523D02*
X67862380Y-94006190D01*
X66862380Y-93672857D01*
X66862380Y-92863333D02*
X66862380Y-93339523D01*
X67338571Y-93387142D01*
X67290952Y-93339523D01*
X67243333Y-93244285D01*
X67243333Y-93006190D01*
X67290952Y-92910952D01*
X67338571Y-92863333D01*
X67433809Y-92815714D01*
X67671904Y-92815714D01*
X67767142Y-92863333D01*
X67814761Y-92910952D01*
X67862380Y-93006190D01*
X67862380Y-93244285D01*
X67814761Y-93339523D01*
X67767142Y-93387142D01*
G04 #@! TO.C,RV6*
X85642380Y-94625238D02*
X85166190Y-94958571D01*
X85642380Y-95196666D02*
X84642380Y-95196666D01*
X84642380Y-94815714D01*
X84690000Y-94720476D01*
X84737619Y-94672857D01*
X84832857Y-94625238D01*
X84975714Y-94625238D01*
X85070952Y-94672857D01*
X85118571Y-94720476D01*
X85166190Y-94815714D01*
X85166190Y-95196666D01*
X84642380Y-94339523D02*
X85642380Y-94006190D01*
X84642380Y-93672857D01*
X84642380Y-92910952D02*
X84642380Y-93101428D01*
X84690000Y-93196666D01*
X84737619Y-93244285D01*
X84880476Y-93339523D01*
X85070952Y-93387142D01*
X85451904Y-93387142D01*
X85547142Y-93339523D01*
X85594761Y-93291904D01*
X85642380Y-93196666D01*
X85642380Y-93006190D01*
X85594761Y-92910952D01*
X85547142Y-92863333D01*
X85451904Y-92815714D01*
X85213809Y-92815714D01*
X85118571Y-92863333D01*
X85070952Y-92910952D01*
X85023333Y-93006190D01*
X85023333Y-93196666D01*
X85070952Y-93291904D01*
X85118571Y-93339523D01*
X85213809Y-93387142D01*
G04 #@! TO.C,RV7*
X103422380Y-94625238D02*
X102946190Y-94958571D01*
X103422380Y-95196666D02*
X102422380Y-95196666D01*
X102422380Y-94815714D01*
X102470000Y-94720476D01*
X102517619Y-94672857D01*
X102612857Y-94625238D01*
X102755714Y-94625238D01*
X102850952Y-94672857D01*
X102898571Y-94720476D01*
X102946190Y-94815714D01*
X102946190Y-95196666D01*
X102422380Y-94339523D02*
X103422380Y-94006190D01*
X102422380Y-93672857D01*
X102422380Y-93434761D02*
X102422380Y-92768095D01*
X103422380Y-93196666D01*
G04 #@! TO.C,RV8*
X121202380Y-94625238D02*
X120726190Y-94958571D01*
X121202380Y-95196666D02*
X120202380Y-95196666D01*
X120202380Y-94815714D01*
X120250000Y-94720476D01*
X120297619Y-94672857D01*
X120392857Y-94625238D01*
X120535714Y-94625238D01*
X120630952Y-94672857D01*
X120678571Y-94720476D01*
X120726190Y-94815714D01*
X120726190Y-95196666D01*
X120202380Y-94339523D02*
X121202380Y-94006190D01*
X120202380Y-93672857D01*
X120630952Y-93196666D02*
X120583333Y-93291904D01*
X120535714Y-93339523D01*
X120440476Y-93387142D01*
X120392857Y-93387142D01*
X120297619Y-93339523D01*
X120250000Y-93291904D01*
X120202380Y-93196666D01*
X120202380Y-93006190D01*
X120250000Y-92910952D01*
X120297619Y-92863333D01*
X120392857Y-92815714D01*
X120440476Y-92815714D01*
X120535714Y-92863333D01*
X120583333Y-92910952D01*
X120630952Y-93006190D01*
X120630952Y-93196666D01*
X120678571Y-93291904D01*
X120726190Y-93339523D01*
X120821428Y-93387142D01*
X121011904Y-93387142D01*
X121107142Y-93339523D01*
X121154761Y-93291904D01*
X121202380Y-93196666D01*
X121202380Y-93006190D01*
X121154761Y-92910952D01*
X121107142Y-92863333D01*
X121011904Y-92815714D01*
X120821428Y-92815714D01*
X120726190Y-92863333D01*
X120678571Y-92910952D01*
X120630952Y-93006190D01*
G04 #@! TO.C,RV9*
X138982380Y-48905238D02*
X138506190Y-49238571D01*
X138982380Y-49476666D02*
X137982380Y-49476666D01*
X137982380Y-49095714D01*
X138030000Y-49000476D01*
X138077619Y-48952857D01*
X138172857Y-48905238D01*
X138315714Y-48905238D01*
X138410952Y-48952857D01*
X138458571Y-49000476D01*
X138506190Y-49095714D01*
X138506190Y-49476666D01*
X137982380Y-48619523D02*
X138982380Y-48286190D01*
X137982380Y-47952857D01*
X138982380Y-47571904D02*
X138982380Y-47381428D01*
X138934761Y-47286190D01*
X138887142Y-47238571D01*
X138744285Y-47143333D01*
X138553809Y-47095714D01*
X138172857Y-47095714D01*
X138077619Y-47143333D01*
X138030000Y-47190952D01*
X137982380Y-47286190D01*
X137982380Y-47476666D01*
X138030000Y-47571904D01*
X138077619Y-47619523D01*
X138172857Y-47667142D01*
X138410952Y-47667142D01*
X138506190Y-47619523D01*
X138553809Y-47571904D01*
X138601428Y-47476666D01*
X138601428Y-47286190D01*
X138553809Y-47190952D01*
X138506190Y-47143333D01*
X138410952Y-47095714D01*
G04 #@! TO.C,RV10*
X156762380Y-49381428D02*
X156286190Y-49714761D01*
X156762380Y-49952857D02*
X155762380Y-49952857D01*
X155762380Y-49571904D01*
X155810000Y-49476666D01*
X155857619Y-49429047D01*
X155952857Y-49381428D01*
X156095714Y-49381428D01*
X156190952Y-49429047D01*
X156238571Y-49476666D01*
X156286190Y-49571904D01*
X156286190Y-49952857D01*
X155762380Y-49095714D02*
X156762380Y-48762380D01*
X155762380Y-48429047D01*
X156762380Y-47571904D02*
X156762380Y-48143333D01*
X156762380Y-47857619D02*
X155762380Y-47857619D01*
X155905238Y-47952857D01*
X156000476Y-48048095D01*
X156048095Y-48143333D01*
X155762380Y-46952857D02*
X155762380Y-46857619D01*
X155810000Y-46762380D01*
X155857619Y-46714761D01*
X155952857Y-46667142D01*
X156143333Y-46619523D01*
X156381428Y-46619523D01*
X156571904Y-46667142D01*
X156667142Y-46714761D01*
X156714761Y-46762380D01*
X156762380Y-46857619D01*
X156762380Y-46952857D01*
X156714761Y-47048095D01*
X156667142Y-47095714D01*
X156571904Y-47143333D01*
X156381428Y-47190952D01*
X156143333Y-47190952D01*
X155952857Y-47143333D01*
X155857619Y-47095714D01*
X155810000Y-47048095D01*
X155762380Y-46952857D01*
G04 #@! TO.C,RV11*
X174542380Y-49381428D02*
X174066190Y-49714761D01*
X174542380Y-49952857D02*
X173542380Y-49952857D01*
X173542380Y-49571904D01*
X173590000Y-49476666D01*
X173637619Y-49429047D01*
X173732857Y-49381428D01*
X173875714Y-49381428D01*
X173970952Y-49429047D01*
X174018571Y-49476666D01*
X174066190Y-49571904D01*
X174066190Y-49952857D01*
X173542380Y-49095714D02*
X174542380Y-48762380D01*
X173542380Y-48429047D01*
X174542380Y-47571904D02*
X174542380Y-48143333D01*
X174542380Y-47857619D02*
X173542380Y-47857619D01*
X173685238Y-47952857D01*
X173780476Y-48048095D01*
X173828095Y-48143333D01*
X174542380Y-46619523D02*
X174542380Y-47190952D01*
X174542380Y-46905238D02*
X173542380Y-46905238D01*
X173685238Y-47000476D01*
X173780476Y-47095714D01*
X173828095Y-47190952D01*
G04 #@! TO.C,RV12*
X192322380Y-49381428D02*
X191846190Y-49714761D01*
X192322380Y-49952857D02*
X191322380Y-49952857D01*
X191322380Y-49571904D01*
X191370000Y-49476666D01*
X191417619Y-49429047D01*
X191512857Y-49381428D01*
X191655714Y-49381428D01*
X191750952Y-49429047D01*
X191798571Y-49476666D01*
X191846190Y-49571904D01*
X191846190Y-49952857D01*
X191322380Y-49095714D02*
X192322380Y-48762380D01*
X191322380Y-48429047D01*
X192322380Y-47571904D02*
X192322380Y-48143333D01*
X192322380Y-47857619D02*
X191322380Y-47857619D01*
X191465238Y-47952857D01*
X191560476Y-48048095D01*
X191608095Y-48143333D01*
X191417619Y-47190952D02*
X191370000Y-47143333D01*
X191322380Y-47048095D01*
X191322380Y-46810000D01*
X191370000Y-46714761D01*
X191417619Y-46667142D01*
X191512857Y-46619523D01*
X191608095Y-46619523D01*
X191750952Y-46667142D01*
X192322380Y-47238571D01*
X192322380Y-46619523D01*
G04 #@! TO.C,RV13*
X138982380Y-95101428D02*
X138506190Y-95434761D01*
X138982380Y-95672857D02*
X137982380Y-95672857D01*
X137982380Y-95291904D01*
X138030000Y-95196666D01*
X138077619Y-95149047D01*
X138172857Y-95101428D01*
X138315714Y-95101428D01*
X138410952Y-95149047D01*
X138458571Y-95196666D01*
X138506190Y-95291904D01*
X138506190Y-95672857D01*
X137982380Y-94815714D02*
X138982380Y-94482380D01*
X137982380Y-94149047D01*
X138982380Y-93291904D02*
X138982380Y-93863333D01*
X138982380Y-93577619D02*
X137982380Y-93577619D01*
X138125238Y-93672857D01*
X138220476Y-93768095D01*
X138268095Y-93863333D01*
X137982380Y-92958571D02*
X137982380Y-92339523D01*
X138363333Y-92672857D01*
X138363333Y-92530000D01*
X138410952Y-92434761D01*
X138458571Y-92387142D01*
X138553809Y-92339523D01*
X138791904Y-92339523D01*
X138887142Y-92387142D01*
X138934761Y-92434761D01*
X138982380Y-92530000D01*
X138982380Y-92815714D01*
X138934761Y-92910952D01*
X138887142Y-92958571D01*
G04 #@! TO.C,RV14*
X156762380Y-95101428D02*
X156286190Y-95434761D01*
X156762380Y-95672857D02*
X155762380Y-95672857D01*
X155762380Y-95291904D01*
X155810000Y-95196666D01*
X155857619Y-95149047D01*
X155952857Y-95101428D01*
X156095714Y-95101428D01*
X156190952Y-95149047D01*
X156238571Y-95196666D01*
X156286190Y-95291904D01*
X156286190Y-95672857D01*
X155762380Y-94815714D02*
X156762380Y-94482380D01*
X155762380Y-94149047D01*
X156762380Y-93291904D02*
X156762380Y-93863333D01*
X156762380Y-93577619D02*
X155762380Y-93577619D01*
X155905238Y-93672857D01*
X156000476Y-93768095D01*
X156048095Y-93863333D01*
X156095714Y-92434761D02*
X156762380Y-92434761D01*
X155714761Y-92672857D02*
X156429047Y-92910952D01*
X156429047Y-92291904D01*
G04 #@! TO.C,RV15*
X174542380Y-95101428D02*
X174066190Y-95434761D01*
X174542380Y-95672857D02*
X173542380Y-95672857D01*
X173542380Y-95291904D01*
X173590000Y-95196666D01*
X173637619Y-95149047D01*
X173732857Y-95101428D01*
X173875714Y-95101428D01*
X173970952Y-95149047D01*
X174018571Y-95196666D01*
X174066190Y-95291904D01*
X174066190Y-95672857D01*
X173542380Y-94815714D02*
X174542380Y-94482380D01*
X173542380Y-94149047D01*
X174542380Y-93291904D02*
X174542380Y-93863333D01*
X174542380Y-93577619D02*
X173542380Y-93577619D01*
X173685238Y-93672857D01*
X173780476Y-93768095D01*
X173828095Y-93863333D01*
X173542380Y-92387142D02*
X173542380Y-92863333D01*
X174018571Y-92910952D01*
X173970952Y-92863333D01*
X173923333Y-92768095D01*
X173923333Y-92530000D01*
X173970952Y-92434761D01*
X174018571Y-92387142D01*
X174113809Y-92339523D01*
X174351904Y-92339523D01*
X174447142Y-92387142D01*
X174494761Y-92434761D01*
X174542380Y-92530000D01*
X174542380Y-92768095D01*
X174494761Y-92863333D01*
X174447142Y-92910952D01*
G04 #@! TO.C,RV16*
X192322380Y-95101428D02*
X191846190Y-95434761D01*
X192322380Y-95672857D02*
X191322380Y-95672857D01*
X191322380Y-95291904D01*
X191370000Y-95196666D01*
X191417619Y-95149047D01*
X191512857Y-95101428D01*
X191655714Y-95101428D01*
X191750952Y-95149047D01*
X191798571Y-95196666D01*
X191846190Y-95291904D01*
X191846190Y-95672857D01*
X191322380Y-94815714D02*
X192322380Y-94482380D01*
X191322380Y-94149047D01*
X192322380Y-93291904D02*
X192322380Y-93863333D01*
X192322380Y-93577619D02*
X191322380Y-93577619D01*
X191465238Y-93672857D01*
X191560476Y-93768095D01*
X191608095Y-93863333D01*
X191322380Y-92434761D02*
X191322380Y-92625238D01*
X191370000Y-92720476D01*
X191417619Y-92768095D01*
X191560476Y-92863333D01*
X191750952Y-92910952D01*
X192131904Y-92910952D01*
X192227142Y-92863333D01*
X192274761Y-92815714D01*
X192322380Y-92720476D01*
X192322380Y-92530000D01*
X192274761Y-92434761D01*
X192227142Y-92387142D01*
X192131904Y-92339523D01*
X191893809Y-92339523D01*
X191798571Y-92387142D01*
X191750952Y-92434761D01*
X191703333Y-92530000D01*
X191703333Y-92720476D01*
X191750952Y-92815714D01*
X191798571Y-92863333D01*
X191893809Y-92910952D01*
G04 #@! TO.C,J2*
X104482380Y-137268333D02*
X105196666Y-137268333D01*
X105339523Y-137315952D01*
X105434761Y-137411190D01*
X105482380Y-137554047D01*
X105482380Y-137649285D01*
X104577619Y-136839761D02*
X104530000Y-136792142D01*
X104482380Y-136696904D01*
X104482380Y-136458809D01*
X104530000Y-136363571D01*
X104577619Y-136315952D01*
X104672857Y-136268333D01*
X104768095Y-136268333D01*
X104910952Y-136315952D01*
X105482380Y-136887380D01*
X105482380Y-136268333D01*
G04 #@! TD*
M02*
