G04 #@! TF.GenerationSoftware,KiCad,Pcbnew,(5.0.1-3-g963ef8bb5)*
G04 #@! TF.CreationDate,2020-08-17T14:29:48-04:00*
G04 #@! TF.ProjectId,Wave_Pool CV Input Front Panel,576176655F506F6F6C20435620496E70,rev?*
G04 #@! TF.SameCoordinates,Original*
G04 #@! TF.FileFunction,Legend,Bot*
G04 #@! TF.FilePolarity,Positive*
%FSLAX46Y46*%
G04 Gerber Fmt 4.6, Leading zero omitted, Abs format (unit mm)*
G04 Created by KiCad (PCBNEW (5.0.1-3-g963ef8bb5)) date Monday, August 17, 2020 at 02:29:48 PM*
%MOMM*%
%LPD*%
G01*
G04 APERTURE LIST*
%ADD10C,0.300000*%
G04 APERTURE END LIST*
D10*
X190698571Y-149538571D02*
X190698571Y-150610000D01*
X190770000Y-150824285D01*
X190912857Y-150967142D01*
X191127142Y-151038571D01*
X191270000Y-151038571D01*
X189270000Y-151038571D02*
X189984285Y-151038571D01*
X189984285Y-149538571D01*
X187912857Y-150895714D02*
X187984285Y-150967142D01*
X188198571Y-151038571D01*
X188341428Y-151038571D01*
X188555714Y-150967142D01*
X188698571Y-150824285D01*
X188770000Y-150681428D01*
X188841428Y-150395714D01*
X188841428Y-150181428D01*
X188770000Y-149895714D01*
X188698571Y-149752857D01*
X188555714Y-149610000D01*
X188341428Y-149538571D01*
X188198571Y-149538571D01*
X187984285Y-149610000D01*
X187912857Y-149681428D01*
X186841428Y-149538571D02*
X186841428Y-150610000D01*
X186912857Y-150824285D01*
X187055714Y-150967142D01*
X187270000Y-151038571D01*
X187412857Y-151038571D01*
X185412857Y-151038571D02*
X186127142Y-151038571D01*
X186127142Y-149538571D01*
X184055714Y-150895714D02*
X184127142Y-150967142D01*
X184341428Y-151038571D01*
X184484285Y-151038571D01*
X184698571Y-150967142D01*
X184841428Y-150824285D01*
X184912857Y-150681428D01*
X184984285Y-150395714D01*
X184984285Y-150181428D01*
X184912857Y-149895714D01*
X184841428Y-149752857D01*
X184698571Y-149610000D01*
X184484285Y-149538571D01*
X184341428Y-149538571D01*
X184127142Y-149610000D01*
X184055714Y-149681428D01*
X182984285Y-149538571D02*
X182984285Y-150610000D01*
X183055714Y-150824285D01*
X183198571Y-150967142D01*
X183412857Y-151038571D01*
X183555714Y-151038571D01*
X181555714Y-151038571D02*
X182270000Y-151038571D01*
X182270000Y-149538571D01*
X180198571Y-150895714D02*
X180270000Y-150967142D01*
X180484285Y-151038571D01*
X180627142Y-151038571D01*
X180841428Y-150967142D01*
X180984285Y-150824285D01*
X181055714Y-150681428D01*
X181127142Y-150395714D01*
X181127142Y-150181428D01*
X181055714Y-149895714D01*
X180984285Y-149752857D01*
X180841428Y-149610000D01*
X180627142Y-149538571D01*
X180484285Y-149538571D01*
X180270000Y-149610000D01*
X180198571Y-149681428D01*
X179127142Y-149538571D02*
X179127142Y-150610000D01*
X179198571Y-150824285D01*
X179341428Y-150967142D01*
X179555714Y-151038571D01*
X179698571Y-151038571D01*
X177698571Y-151038571D02*
X178412857Y-151038571D01*
X178412857Y-149538571D01*
X176341428Y-150895714D02*
X176412857Y-150967142D01*
X176627142Y-151038571D01*
X176770000Y-151038571D01*
X176984285Y-150967142D01*
X177127142Y-150824285D01*
X177198571Y-150681428D01*
X177270000Y-150395714D01*
X177270000Y-150181428D01*
X177198571Y-149895714D01*
X177127142Y-149752857D01*
X176984285Y-149610000D01*
X176770000Y-149538571D01*
X176627142Y-149538571D01*
X176412857Y-149610000D01*
X176341428Y-149681428D01*
M02*
