G04 #@! TF.GenerationSoftware,KiCad,Pcbnew,(5.0.1-3-g963ef8bb5)*
G04 #@! TF.CreationDate,2020-08-17T14:29:48-04:00*
G04 #@! TF.ProjectId,Wave_Pool CV Input Front Panel,576176655F506F6F6C20435620496E70,rev?*
G04 #@! TF.SameCoordinates,Original*
G04 #@! TF.FileFunction,Profile,NP*
%FSLAX46Y46*%
G04 Gerber Fmt 4.6, Leading zero omitted, Abs format (unit mm)*
G04 Created by KiCad (PCBNEW (5.0.1-3-g963ef8bb5)) date Monday, August 17, 2020 at 02:29:48 PM*
%MOMM*%
%LPD*%
G01*
G04 APERTURE LIST*
%ADD10C,0.200000*%
%ADD11C,0.010000*%
G04 APERTURE END LIST*
D10*
X169395000Y-141380000D02*
G75*
G03X169395000Y-141380000I-1500000J0D01*
G01*
X104625000Y-141380000D02*
G75*
G03X104625000Y-141380000I-1500000J0D01*
G01*
X105751000Y-146296000D02*
X165187000Y-146296000D01*
X165187000Y-146296000D02*
X165187000Y-136390000D01*
X105751000Y-136390000D02*
X165187000Y-136390000D01*
X105751000Y-146296000D02*
X105751000Y-136390000D01*
D11*
X202100000Y-156250000D02*
G75*
G03X202100000Y-156250000I-1600000J0D01*
G01*
X202100000Y-33750000D02*
G75*
G03X202100000Y-33750000I-1600000J0D01*
G01*
X75100000Y-33750000D02*
G75*
G03X75100000Y-33750000I-1600000J0D01*
G01*
X75100000Y-156250000D02*
G75*
G03X75100000Y-156250000I-1600000J0D01*
G01*
D10*
X77600000Y-63783000D02*
G75*
G03X77600000Y-63783000I-3050000J0D01*
G01*
X202582500Y-47546000D02*
G75*
G03X202582500Y-47546000I-3550000J0D01*
G01*
X95902500Y-47546000D02*
G75*
G03X95902500Y-47546000I-3550000J0D01*
G01*
X131462500Y-47546000D02*
G75*
G03X131462500Y-47546000I-3550000J0D01*
G01*
X184802500Y-47546000D02*
G75*
G03X184802500Y-47546000I-3550000J0D01*
G01*
X167022500Y-47546000D02*
G75*
G03X167022500Y-47546000I-3550000J0D01*
G01*
X149179000Y-47546000D02*
G75*
G03X149179000Y-47546000I-3550000J0D01*
G01*
X113619000Y-47546000D02*
G75*
G03X113619000Y-47546000I-3550000J0D01*
G01*
X78051500Y-47546000D02*
G75*
G03X78051500Y-47546000I-3550000J0D01*
G01*
X202582500Y-93202500D02*
G75*
G03X202582500Y-93202500I-3550000J0D01*
G01*
X184802500Y-93202500D02*
G75*
G03X184802500Y-93202500I-3550000J0D01*
G01*
X167022500Y-93202500D02*
G75*
G03X167022500Y-93202500I-3550000J0D01*
G01*
X149179000Y-93202500D02*
G75*
G03X149179000Y-93202500I-3550000J0D01*
G01*
X131462500Y-93202500D02*
G75*
G03X131462500Y-93202500I-3550000J0D01*
G01*
X113619000Y-93202500D02*
G75*
G03X113619000Y-93202500I-3550000J0D01*
G01*
X95902500Y-93202500D02*
G75*
G03X95902500Y-93202500I-3550000J0D01*
G01*
X78116500Y-93210000D02*
G75*
G03X78116500Y-93210000I-3550000J0D01*
G01*
D11*
X66000000Y-159250000D02*
X207900000Y-159250000D01*
D10*
X202060000Y-63783000D02*
G75*
G03X202060000Y-63783000I-3050000J0D01*
G01*
X184280000Y-63783000D02*
G75*
G03X184280000Y-63783000I-3050000J0D01*
G01*
X166500000Y-63783000D02*
G75*
G03X166500000Y-63783000I-3050000J0D01*
G01*
X148720000Y-63783000D02*
G75*
G03X148720000Y-63783000I-3050000J0D01*
G01*
X130940000Y-63783000D02*
G75*
G03X130940000Y-63783000I-3050000J0D01*
G01*
X113160000Y-63783000D02*
G75*
G03X113160000Y-63783000I-3050000J0D01*
G01*
X95380000Y-63783000D02*
G75*
G03X95380000Y-63783000I-3050000J0D01*
G01*
X202060000Y-109503000D02*
G75*
G03X202060000Y-109503000I-3050000J0D01*
G01*
X184280000Y-109503000D02*
G75*
G03X184280000Y-109503000I-3050000J0D01*
G01*
X113160000Y-109503000D02*
G75*
G03X113160000Y-109503000I-3050000J0D01*
G01*
X166500000Y-109477600D02*
G75*
G03X166500000Y-109477600I-3050000J0D01*
G01*
X148694600Y-109528400D02*
G75*
G03X148694600Y-109528400I-3050000J0D01*
G01*
X130940000Y-109477600D02*
G75*
G03X130940000Y-109477600I-3050000J0D01*
G01*
X95380000Y-109503000D02*
G75*
G03X95380000Y-109503000I-3050000J0D01*
G01*
X77600106Y-109503000D02*
G75*
G03X77600106Y-109503000I-3050000J0D01*
G01*
D11*
X66000000Y-30750000D02*
X66000000Y-159250000D01*
X66000000Y-30750000D02*
X207900000Y-30750000D01*
X207900000Y-159250000D02*
X207900000Y-30750000D01*
M02*
